<?xml  version="1.0" encoding="UTF-8"?>
<!DOCTYPE svg PUBLIC "-//W3C//DTD SVG 1.0//EN" "http://www.w3.org/TR/2001/REC-SVG-20010904/DTD/svg10.dtd" >
<svg xmlns="http://www.w3.org/2000/svg" >
<metadata>
<version>1.0</version>
<id><![CDATA[Neo Sans W01 Medium]]></id>
<vendor>Monotype Imaging Inc.</vendor>
<credits>
<name>Fonts.com WebFonts</name>
<URL>http://webfonts.fonts.com</URL>
<role>Home of the Web fonts</role>
</credits>
<license>
<URL>http://webfonts.fonts.com/Legal</URL>
</license>
<copyright><![CDATA[Copyright 2004 Monotype Imaging Inc. All Rights Reserved. Neo Sans is designed by Sebastian Lester.]]></copyright>
<trademark><![CDATA[Neo Sans is a trademark of Monotype Imaging Inc. and may be registered in certain jurisdictions.]]></trademark>
<licensee>
<name></name>
</licensee>
</metadata>
<defs >
<font horiz-adv-x="539" id="af9d27b2-3ca0-47ca-8d5d-4c4665df6305">
<font-face font-family="" panose-1="2 11 6 4 3 5 4 4 2 4" ascent="1000" descent="-216" units-per-em="1000" alphabetic="0">
</font-face>
<missing-glyph horiz-adv-x="0" />

<glyph unicode="&#xA;" />
<glyph unicode="&#xD;" horiz-adv-x="0" />
<glyph unicode=" " horiz-adv-x="250" />
<glyph unicode="!" horiz-adv-x="256" d="M181 234Q181 226 175 220T161 214H96Q88 214 82 220T75 234L60 742Q60 750 66 755T81 761H176Q184 761 190 756T196 742L181 234ZM192 17Q192 9 187 3T173 -3H83Q75 -3 70 3T64 17V130Q64 149 83 149H173Q192 149 192 130V17Z"  />
<glyph unicode="&quot;" horiz-adv-x="420" d="M407 750Q407 748 405 742L337 535Q332 516 318 516H238Q229 516 229 526Q229 532 230 535L281 742Q285 761 301 761H395Q407 761 407 750ZM207 750Q207 748 205 742L137 535Q132 516 118 516H38Q29 516 29 526Q29 532 30 535L81 742Q85 761 101 761H195Q207 761 207 750Z"  />
<glyph unicode="#" horiz-adv-x="684" d="M634 524L629 479Q628 471 623 465T609 459Q606 459 596 459T573 459T546 458T520 458L504 281H589Q597 281 603 276T609 263V261L604 215Q603 207 598 201T584 195H496L481 19Q480 11 476 6T463 0H384Q376 0 372 5T368 17V19L383 195H253L238 19Q237 11 233 6T220 0H140Q133 0 129 5T124 17V19L139 195H56Q48 195 42 200T36 213V215L41 261Q42 269 47 275T61 281H147L163 458L82 459Q74 459 68 464T62 477V479L67 524Q68 532 73 538T87 544H170L186 724Q187 732 192 737T205 743H285Q292 743 296 738T300 726V724L284 544H414L430 724Q431 732 436 737T449 743H528Q536 743 539 738T543 726V724L527 544H614Q622 544 628 539T634 526V524ZM277 458L261 281H391L407 458H277Z"  />
<glyph unicode="$" horiz-adv-x="630" d="M555 201Q555 169 546 137T516 78T461 30T376 -1V-92Q376 -100 370 -106T356 -112H265Q257 -112 251 -106T245 -92V-7Q206 -5 175 -1T115 10Q107 12 102 17T96 30V102Q96 110 101 115T115 121H117Q132 119 156 118T207 115T256 112T294 111Q361 111 385 134T410 201Q410 216 406 227T392 250T366 272T325 299L193 378Q158 399 136 420T100 463T81 510T75 561Q75 595 84 625T113 680T165 720T245 745V829Q245 837 251 843T265 849H356Q364 849 370 843T376 829V749Q418 747 457 743T517 733Q525 731 530 727T535 714V640Q535 632 531 627T518 622H516Q466 627 417 629T319 632Q263 632 239 614T214 561Q214 549 217 539T230 518T256 496T296 472L416 405Q457 382 484 359T526 310T548 258T555 201Z"  />
<glyph unicode="%" horiz-adv-x="811" d="M772 162Q772 76 735 35T630 -6Q562 -6 525 35T487 162V244Q487 330 524 371T630 412Q698 412 735 371T772 244V162ZM674 735Q674 730 670 723L253 18Q247 7 243 2T230 -3H146Q136 -3 136 6Q136 13 140 18L557 723Q564 734 568 738T581 743H665Q674 743 674 735ZM325 499Q325 413 288 372T183 331Q115 331 78 372T40 499V581Q40 667 77 707T183 748Q251 748 288 708T325 581V499ZM687 244Q687 297 672 317T630 337Q603 337 588 317T572 244V162Q572 109 587 89T630 69Q657 69 672 89T687 162V244ZM240 581Q240 634 225 654T183 674Q156 674 141 654T125 581V499Q125 445 140 425T183 405Q210 405 225 425T240 499V581Z"  />
<glyph unicode="&amp;" horiz-adv-x="718" d="M687 11Q687 0 676 0H564Q559 0 556 1T547 8L510 47Q472 21 425 7T320 -8Q266 -8 218 2T134 36T76 96T55 184V194Q55 225 64 251T90 300T133 343T192 384L185 392Q153 429 134 456T106 504T93 543T90 577V586Q90 660 147 705T318 751Q418 751 475 706T533 586V577Q533 541 521 512T487 459T440 415T385 378L361 363L511 203Q525 234 531 270T537 346V358Q537 366 541 372T554 378H627Q635 378 640 372T645 358V346Q645 282 630 226T585 125L683 21Q687 17 687 11ZM414 586Q414 620 390 638T318 657Q267 657 238 639T208 586V577Q208 565 209 554T217 528T238 495T278 451L287 442L317 460Q345 477 363 490T393 517T409 545T414 577V586ZM266 306Q221 279 207 254T192 194V184Q192 136 228 113T320 90Q358 90 388 98T441 120L266 306Z"  />
<glyph unicode="&apos;" horiz-adv-x="220" d="M207 750Q207 748 205 742L137 535Q132 516 118 516H38Q29 516 29 526Q29 532 30 535L81 742Q85 761 101 761H195Q207 761 207 750Z"  />
<glyph unicode="(" horiz-adv-x="333" d="M303 -185Q303 -195 291 -195H220Q209 -195 201 -192T186 -181Q154 -136 130 -89T89 13T64 129T55 264V283Q55 428 88 534T186 729Q192 737 200 740T220 743H291Q303 743 303 733Q303 725 298 717Q277 679 258 634T223 534T199 418T190 283V264Q190 192 199 130T223 14T257 -85T298 -169Q303 -177 303 -185Z"  />
<glyph unicode=")" horiz-adv-x="333" d="M278 264Q278 191 270 129T245 13T204 -88T147 -181Q141 -189 133 -192T113 -195H42Q30 -195 30 -185Q30 -177 35 -169Q56 -131 75 -86T110 13T134 129T143 264V283Q143 355 134 417T110 534T76 633T35 717Q30 725 30 733Q30 743 42 743H113Q124 743 132 740T147 729Q211 640 244 534T278 283V264H278Z"  />
<glyph unicode="*" horiz-adv-x="473" d="M435 583Q435 572 420 567L301 531L375 430Q380 423 380 416Q380 409 374 405L333 375Q328 372 324 372Q316 372 309 382L237 484L165 382Q158 372 150 372Q145 372 141 375L99 405Q93 409 93 416Q93 423 98 430L173 531L55 567Q39 572 39 583Q39 586 40 588L56 637Q59 647 69 647Q73 647 79 645L198 606L196 731Q196 739 199 744T211 750H263Q271 750 274 744T278 730L277 606L395 645Q401 647 405 647Q415 647 418 637L434 588Q435 586 435 583Z"  />
<glyph unicode="+" horiz-adv-x="630" d="M548 356Q548 348 542 344T528 340H366V179Q366 171 362 165T350 159H280Q272 159 268 165T264 179V340H103Q95 340 89 344T83 356V426Q83 434 89 438T103 442H264V604Q264 612 268 618T280 624H350Q358 624 362 618T366 604V442H528Q536 442 542 438T548 426V356H548Z"  />
<glyph unicode="&#x2c;" horiz-adv-x="259" d="M203 140Q203 139 201 133L114 -77Q110 -86 107 -91T95 -97H26Q11 -97 11 -83Q11 -79 12 -77L73 133Q79 152 93 152H189Q203 152 203 140Z"  />
<glyph unicode="-" horiz-adv-x="321" d="M278 276Q278 258 259 258H63Q55 258 49 263T43 276V339Q43 347 49 352T63 358H259Q278 358 278 339V276H278Z"  />
<glyph unicode="." horiz-adv-x="259" d="M194 20Q194 12 188 6T174 0H85Q77 0 71 6T65 20V133Q65 141 71 146T85 152H174Q182 152 188 147T194 133V20H194Z"  />
<glyph unicode="/" horiz-adv-x="365" d="M234 723Q236 731 240 737T253 743H334Q342 743 347 739T349 723L132 21Q130 13 126 7T113 0H32Q21 0 18 6T16 21L234 723H234Z"  />
<glyph unicode="0" horiz-adv-x="630" d="M576 334Q576 241 558 176T506 70T424 11T315 -8Q254 -8 206 10T124 69T72 175T54 334V408Q54 501 72 566T123 673T205 732T315 751Q376 751 424 733T506 673T558 567T576 408V334ZM437 408Q437 476 428 520T402 591T363 627T315 638Q289 638 267 628T229 591T203 521T193 408V334Q193 266 202 222T228 152T267 116T315 105Q341 105 363 115T401 152T427 222T437 334V408Z"  />
<glyph unicode="1" horiz-adv-x="630" d="M129 0Q121 0 115 6T109 20V96Q109 104 115 109T129 114H263V606L132 566Q127 564 120 564Q109 564 109 576V670Q109 678 116 681L293 739Q298 741 303 742T316 743H382Q401 743 401 724V114H535Q543 114 549 109T555 96V20Q555 12 549 6T535 0H129Z"  />
<glyph unicode="2" horiz-adv-x="630" d="M553 568Q553 505 522 461T428 374L338 314Q267 267 232 224T196 118V114H525Q533 114 539 109T545 96V20Q545 12 539 6T525 0H101Q93 0 87 6T81 20V118Q81 159 93 197T126 269T174 331T233 380L332 446Q361 465 379 479T407 505T420 532T424 568Q424 609 397 625T307 642Q285 642 260 641T208 637T155 633T107 627H105Q97 627 92 633T87 647V707Q87 715 92 719T106 726Q125 731 150 735T201 743T255 749T307 751Q438 751 495 706T553 568Z"  />
<glyph unicode="3" horiz-adv-x="630" d="M546 208Q546 152 527 112T474 45T394 5T295 -8Q239 -8 193 -1T103 17Q95 19 90 23T84 36V98Q84 106 89 111T102 116H104Q164 110 211 106T295 102Q356 102 381 128T407 208V229Q407 249 404 267T390 299T361 321T315 330H138Q119 330 119 349V412Q119 431 138 431H315Q343 431 361 439T389 460T403 491T407 529V545Q407 564 403 581T386 612T351 633T295 641Q268 641 248 640T206 638T161 633T104 627H102Q94 627 89 632T84 645V707Q84 715 89 719T103 726Q146 737 192 744T295 751Q349 751 395 740T474 705T527 641T546 545V529Q546 476 524 440T460 381Q502 358 524 318T546 229V208H546Z"  />
<glyph unicode="4" horiz-adv-x="630" d="M592 199Q592 191 586 185T572 179H498V20Q498 12 493 6T480 0H377Q369 0 364 6T359 20V179H59Q51 179 45 185T39 199V280Q39 298 50 312L358 725Q363 733 369 738T387 743H478Q486 743 492 737T498 723V289H572Q580 289 586 283T592 269V199ZM360 543Q360 549 357 549Q354 549 350 543L175 300Q172 297 172 294Q172 289 180 289H360V543Z"  />
<glyph unicode="5" horiz-adv-x="630" d="M552 237Q552 124 489 58T295 -8Q250 -8 198 -1T103 17Q95 19 90 23T84 39V98Q84 106 89 111T102 116H104Q164 108 211 105T295 102Q330 102 353 111T389 138T408 181T413 237V242Q413 304 372 329T236 354H101Q96 354 93 358T90 367V369L122 725Q123 733 128 738T142 743H505Q513 743 519 738T525 724V648Q525 640 519 635T505 629H234L219 463H236Q293 463 349 456T451 425T524 358T552 242V237H552Z"  />
<glyph unicode="6" horiz-adv-x="630" d="M580 240Q580 184 563 139T513 61T432 10T322 -8Q266 -8 218 10T135 65T80 161T60 301V416Q60 506 77 570T130 674T216 732T337 751Q403 751 450 744T522 732Q533 730 539 726T545 711V649Q545 628 526 628H522Q508 630 486 632T438 637T386 640T337 641Q299 641 273 632T230 602T205 545T196 459Q220 464 257 467T335 470Q384 470 428 459T506 422T560 354T580 250V240ZM444 250Q444 285 433 308T403 344T359 363T307 369Q285 369 252 366T196 358V301Q196 238 205 199T231 138T271 108T322 100Q347 100 369 106T408 129T434 172T444 240V250Z"  />
<glyph unicode="7" horiz-adv-x="630" d="M554 649Q554 641 549 631T536 603L266 19Q261 8 255 4T239 0H135Q128 0 125 4T121 15Q121 18 123 24L410 622V624Q410 629 405 629H97Q89 629 83 634T77 647V724Q77 732 83 737T97 743H514Q531 743 542 732T554 703V649H554Z"  />
<glyph unicode="8" horiz-adv-x="630" d="M577 215Q577 156 556 114T500 44T418 5T320 -8H310Q259 -8 213 4T131 44T75 113T54 215V224Q54 275 79 316T145 387Q99 417 79 456T58 543V547Q58 603 78 642T132 705T213 740T310 751H320Q371 751 417 740T498 705T553 642T574 547V543Q574 496 553 457T486 387Q527 358 552 317T577 224V215ZM445 543Q445 594 416 621T320 649H310Q244 649 216 622T187 543V539Q187 495 212 466T295 436H336Q394 436 419 465T445 539V543ZM442 224Q442 242 437 261T419 297T386 323T336 334H295Q265 334 245 324T213 297T195 262T189 224V215Q189 164 219 130T310 96H320Q381 96 411 130T442 215V224Z"  />
<glyph unicode="9" horiz-adv-x="630" d="M569 327Q569 237 552 173T499 69T413 11T292 -8Q226 -8 179 -1T107 11Q96 13 90 17T84 32V94Q84 115 103 115H107Q121 113 143 111T191 106T243 103T292 102Q330 102 356 111T399 141T424 198T433 284Q409 279 372 276T294 273Q245 273 201 284T123 321T69 389T49 493V503Q49 558 66 604T116 682T197 733T307 751Q363 751 411 733T494 678T549 582T569 442V327ZM433 442Q433 505 424 544T398 605T358 635T307 643Q281 643 259 637T221 614T195 571T185 503V493Q185 458 196 435T226 399T270 380T322 374Q344 374 377 377T433 385V442Z"  />
<glyph unicode=":" horiz-adv-x="259" d="M194 414Q194 406 188 401T174 395H85Q77 395 71 400T65 414V527Q65 535 71 541T85 547H174Q182 547 188 541T194 527V414ZM194 20Q194 12 188 6T174 0H85Q77 0 71 6T65 20V133Q65 141 71 146T85 152H174Q182 152 188 147T194 133V20Z"  />
<glyph unicode=";" horiz-adv-x="259" d="M194 414Q194 406 188 401T174 395H85Q77 395 71 400T65 414V527Q65 535 71 541T85 547H174Q182 547 188 541T194 527V414ZM196 140Q196 139 194 133L107 -77Q103 -86 100 -91T88 -97H19Q4 -97 4 -83Q4 -79 5 -77L66 133Q72 152 86 152H182Q196 152 196 140Z"  />
<glyph unicode="&lt;" horiz-adv-x="630" d="M514 153Q514 148 511 144T502 139H392Q384 139 380 142T370 150L139 352Q127 363 122 371T116 391Q116 403 121 411T139 430L370 632Q375 637 379 640T392 643H502Q507 643 510 639T514 629Q514 621 508 617L248 391L508 165Q514 160 514 153Z"  />
<glyph unicode="=" horiz-adv-x="630" d="M538 477Q538 469 532 465T518 461H113Q105 461 99 465T93 477V547Q93 555 99 559T113 563H518Q526 563 532 559T538 547V477ZM538 235Q538 227 532 223T518 219H113Q105 219 99 223T93 235V305Q93 313 99 317T113 321H518Q526 321 532 317T538 305V235Z"  />
<glyph unicode="&gt;" horiz-adv-x="630" d="M514 391Q514 379 509 371T491 352L260 150Q255 145 251 142T238 139H128Q123 139 120 143T116 153Q116 160 122 165L382 391L122 617Q116 621 116 629Q116 634 119 638T128 643H238Q246 643 250 640T260 632L491 430Q503 419 508 411T514 391Z"  />
<glyph unicode="?" horiz-adv-x="437" d="M407 579Q407 565 406 551T397 518T376 478T336 425L275 353Q255 329 242 312T229 271V233Q229 225 223 220T209 214H126Q107 214 107 233V271Q107 295 109 313T119 347T137 380T166 418L230 492Q248 513 253 534T259 579V595Q259 613 246 622T201 632Q164 632 124 629T51 621H47Q30 621 30 643V705Q30 717 32 723T48 733Q80 741 121 746T201 751Q249 751 287 744T352 718T393 670T407 595V579ZM233 19Q233 11 227 6T213 0H123Q115 0 109 5T103 19V132Q103 140 109 146T123 152H213Q221 152 227 146T233 132V19Z"  />
<glyph unicode="@" horiz-adv-x="772" d="M737 362Q737 271 711 211T635 114T518 63T368 48Q292 48 245 83T198 191Q198 196 198 200T199 209L208 326Q215 411 267 451T402 491Q412 491 428 490T462 486T500 482T534 476Q557 473 557 450V446L528 144Q567 150 592 168T633 215T654 281T660 362Q660 407 646 449T603 522T528 573T420 592Q288 592 214 527T129 344L114 186Q113 177 113 169T112 153Q112 109 127 72T173 8T251 -34T362 -49Q397 -49 437 -47T507 -42H513Q520 -42 520 -51V-88Q520 -100 507 -101Q484 -104 447 -107T362 -111Q290 -111 230 -93T127 -42T60 41T36 154Q36 162 36 170T37 186L52 349Q58 419 86 476T161 575T273 638T421 660Q501 660 560 635T659 569T717 473T737 362ZM446 397Q432 399 419 400T391 402Q353 402 336 384T314 322L303 210Q302 205 302 201T302 193Q302 162 319 150T375 137H395Q403 137 409 137T423 138L446 397Z"  />
<glyph unicode="A" horiz-adv-x="646" d="M627 17Q627 9 622 5T609 0H503Q496 0 491 5T484 17L438 207H208L162 17Q160 10 155 5T143 0H37Q29 0 24 4T19 17Q19 18 19 19T20 22L184 649Q193 684 210 704T246 734T286 748T323 751Q339 751 359 748T399 735T436 704T462 649L626 22Q626 20 626 19T627 17ZM339 618Q337 627 334 630T323 634Q315 634 312 631T307 618L235 321H411L339 618Z"  />
<glyph unicode="B" horiz-adv-x="650" d="M600 208Q600 148 579 107T518 41T422 4T296 -8Q235 -8 191 -5T123 3Q98 8 87 18T75 57V687Q75 714 85 725T120 741Q140 744 184 747T287 751Q355 751 411 741T509 706T572 644T595 548V528Q595 478 572 438T503 377Q549 357 574 320T600 225V208ZM460 540Q460 592 422 614T287 636Q269 636 250 636T214 634V431H341Q376 431 399 438T435 459T454 489T460 526V540ZM464 223Q464 244 458 263T438 296T400 320T341 329H214V109Q232 109 256 108T296 107Q344 107 376 113T427 132T455 164T464 210V223Z"  />
<glyph unicode="C" horiz-adv-x="563" d="M518 31Q518 20 512 16T496 8Q490 6 476 4T440 -1T393 -6T338 -8Q293 -8 243 5T152 52T83 146T55 298V445Q55 539 82 598T151 692T243 738T338 751Q367 751 393 749T440 745T475 739T496 735Q506 732 512 728T518 712V645Q518 636 514 630T498 624H496Q483 625 465 626T425 629T382 631T340 632Q308 632 282 623T236 592T206 534T195 445V298Q195 246 206 210T236 152T281 121T340 111Q360 111 382 112T425 114T464 116T496 119H498Q509 119 513 113T518 98V31H518Z"  />
<glyph unicode="D" horiz-adv-x="667" d="M612 298Q612 149 531 71T298 -8Q271 -8 242 -7T185 -4T135 0T101 4Q88 6 82 13T75 35V708Q75 723 81 730T101 739Q112 741 134 743T184 747T241 750T298 751Q449 751 530 673T612 445V298ZM474 445Q474 501 461 537T424 595T368 625T298 634Q270 634 250 633T214 631V112Q230 111 250 110T298 109Q335 109 367 117T423 147T460 205T474 298V445Z"  />
<glyph unicode="E" horiz-adv-x="576" d="M516 27Q516 16 512 12T496 6Q484 4 470 2T434 -3T382 -6T306 -8Q257 -8 215 0T142 30T93 93T75 197V546Q75 610 93 650T142 712T215 743T306 751Q351 751 381 750T433 746T469 742T496 737Q507 735 511 731T516 716V652Q516 644 510 638T496 632H292Q248 632 231 614T213 546V438H484Q492 438 498 432T504 418V346Q504 338 498 332T484 326H213V197Q213 147 230 129T292 111H496Q504 111 510 105T516 91V27H516Z"  />
<glyph unicode="F" horiz-adv-x="576" d="M516 652Q516 644 510 638T496 632H292Q248 632 231 614T213 546V438H484Q492 438 498 432T504 418V346Q504 338 498 332T484 326H213V20Q213 12 207 6T193 0H95Q87 0 81 6T75 20V546Q75 610 93 650T142 712T215 743T306 751Q351 751 381 750T433 746T469 742T496 737Q507 735 511 731T516 716V652H516Z"  />
<glyph unicode="G" horiz-adv-x="635" d="M560 33Q560 13 541 9Q503 1 452 -3T323 -8Q282 -8 236 7T149 57T82 151T55 299V443Q55 532 80 591T146 685T233 736T326 751Q362 751 395 749T457 744T507 738T541 733Q560 729 560 712V645Q560 634 556 629T540 624H537Q502 627 450 629T326 632Q301 632 278 623T236 591T206 533T195 443V299Q195 246 206 210T236 152T278 121T323 111Q351 111 375 111T422 114V369Q422 377 427 383T441 389H540Q548 389 554 383T560 369V33H560Z"  />
<glyph unicode="H" horiz-adv-x="712" d="M637 20Q637 12 631 6T617 0H518Q510 0 504 6T498 20V326H214V20Q214 12 208 6T194 0H95Q87 0 81 6T75 20V724Q75 732 81 737T95 743H194Q202 743 208 738T214 724V448H498V724Q498 732 504 737T518 743H617Q625 743 631 738T637 724V20H637Z"  />
<glyph unicode="I" horiz-adv-x="289" d="M214 20Q214 12 208 6T194 0H95Q87 0 81 6T75 20V724Q75 732 81 737T95 743H194Q202 743 208 738T214 724V20H214Z"  />
<glyph unicode="J" horiz-adv-x="289" d="M214 -21Q214 -101 175 -134T54 -167Q43 -167 30 -166T6 -164T-14 -161T-26 -159Q-36 -156 -36 -145V-74Q-36 -66 -30 -61T-16 -56H50Q64 -56 69 -50T75 -21V724Q75 732 81 737T95 743H194Q202 743 208 738T214 724V-21H214Z"  />
<glyph unicode="K" horiz-adv-x="643" d="M615 9Q615 0 600 0H466Q450 0 443 11L214 352V20Q214 12 208 6T194 0H95Q87 0 81 6T75 20V723Q75 731 81 736T95 742H194Q202 742 208 737T214 723V405L459 734Q463 739 468 740T482 742H596Q615 742 615 730Q615 723 608 714L352 383L610 21Q615 13 615 9Z"  />
<glyph unicode="L" horiz-adv-x="516" d="M496 27Q496 16 492 12T476 6Q465 3 445 1T400 -4T351 -7T306 -8Q257 -8 215 0T142 30T93 93T75 197V723Q75 731 81 737T95 743H194Q202 743 208 737T214 723V197Q214 147 231 129T292 111H476Q484 111 490 105T496 91V27H496Z"  />
<glyph unicode="M" horiz-adv-x="792" d="M717 15Q717 7 712 4T700 0H599Q592 0 588 6T583 20V485Q583 495 580 495Q579 495 575 489L479 298Q474 290 466 286T447 281H346Q336 281 328 285T314 298L217 489Q213 495 212 495Q209 495 209 485V20Q209 12 205 6T193 0H92Q85 0 80 3T75 15V703Q75 720 86 731T115 743H197Q209 743 219 737T234 719L385 413Q389 406 391 403T396 399Q399 399 401 402T407 413L558 719Q563 730 573 736T595 743H677Q694 743 705 732T717 703V15H717Z"  />
<glyph unicode="N" horiz-adv-x="712" d="M637 40Q637 23 626 12T597 0H496Q478 0 463 4T435 36L213 523Q209 531 204 531Q199 531 199 523V20Q199 12 194 6T180 0H95Q87 0 81 6T75 20V703Q75 720 86 731T115 743H223Q239 743 248 737T267 711L500 197Q503 189 508 189Q513 189 513 198V724Q513 743 532 743H618Q637 743 637 724V40H637Z"  />
<glyph unicode="O" horiz-adv-x="680" d="M625 304Q625 221 604 162T544 66T454 10T340 -8Q278 -8 226 10T136 65T77 162T55 304V439Q55 521 76 580T136 677T226 733T340 751Q402 751 454 733T544 678T603 581T625 439V304ZM485 439Q485 539 450 584T340 630Q266 630 231 585T195 439V304Q195 204 230 159T340 113Q414 113 449 158T485 304V439Z"  />
<glyph unicode="P" horiz-adv-x="626" d="M591 511Q591 445 568 400T505 328T413 289T303 277Q283 277 257 278T214 281V20Q214 12 209 6T195 0H95Q87 0 81 6T75 20V708Q75 723 83 729T107 738Q146 744 197 747T303 751Q361 751 413 740T504 702T567 631T591 520V511ZM453 520Q453 583 416 609T303 636Q295 636 283 636T257 635T233 634T214 632V394Q220 394 232 394T258 393T284 392T303 391Q384 391 418 421T453 511V520Z"  />
<glyph unicode="Q" horiz-adv-x="690" d="M630 304Q630 233 614 180T569 89T500 29T411 -3V-24Q411 -44 419 -50T441 -56H538Q549 -56 555 -60T562 -72V-134Q562 -149 540 -155Q525 -159 495 -162T441 -166Q405 -166 376 -159T325 -134T291 -91T279 -26V-3Q230 6 190 28T121 88T76 179T60 304V439Q60 521 81 580T141 677T231 733T345 751Q407 751 459 733T549 678T608 581T630 439V304ZM490 439Q490 539 455 584T345 630Q271 630 236 585T200 439V304Q200 204 235 159T345 113Q419 113 454 158T490 304V439Z"  />
<glyph unicode="R" horiz-adv-x="653" d="M615 12Q615 0 603 0H481Q473 0 469 6T461 20L317 287H303Q283 287 257 288T214 291V20Q214 12 209 6T195 0H95Q87 0 81 6T75 20V708Q75 723 83 729T107 738Q146 744 197 747T303 751Q361 751 413 740T504 702T567 633T591 525V516Q591 436 555 386T456 312L613 20Q615 17 615 12ZM453 525Q453 582 416 607T303 632Q295 632 283 632T257 631T233 630T214 628V403Q220 403 232 403T258 402T284 401T303 400Q381 400 417 425T453 516V525Z"  />
<glyph unicode="S" horiz-adv-x="570" d="M525 201Q525 163 512 126T469 59T388 11T262 -8Q205 -8 163 -3T85 10Q77 12 72 17T66 30V102Q66 110 71 115T85 121H87Q102 119 126 118T177 115T226 112T264 111Q331 111 355 134T380 201Q380 216 376 227T362 250T336 272T295 299L163 378Q128 399 106 420T70 463T51 510T45 561Q45 602 58 637T100 697T177 737T295 751Q320 751 348 750T403 745T452 739T487 733Q495 731 500 727T505 714V640Q505 632 501 627T488 622H486Q436 627 387 629T289 632Q233 632 209 614T184 561Q184 549 187 539T200 518T226 496T266 472L386 405Q427 382 454 359T496 310T518 258T525 201Z"  />
<glyph unicode="T" horiz-adv-x="579" d="M554 645Q554 637 548 632T534 627H359V20Q359 12 353 6T339 0H240Q232 0 226 6T220 20V627H45Q37 627 31 632T25 645V724Q25 732 31 737T45 743H534Q542 743 548 738T554 724V645H554Z"  />
<glyph unicode="U" horiz-adv-x="690" d="M620 275Q620 195 600 141T543 54T456 7T345 -8Q285 -8 235 6T148 54T91 141T70 275V724Q70 732 76 737T90 743H189Q197 743 203 738T209 724V275Q209 232 215 201T236 148T278 117T345 107Q385 107 411 117T453 148T475 200T481 275V724Q481 732 487 737T501 743H600Q608 743 614 738T620 724V275H620Z"  />
<glyph unicode="V" horiz-adv-x="656" d="M632 726Q632 724 632 724T631 721L467 94Q458 59 441 39T405 9T365 -5T328 -8Q312 -8 292 -5T252 8T215 39T189 94L25 721Q25 723 25 723T24 726Q24 734 29 738T42 743H148Q155 743 160 738T167 726L312 125Q314 116 317 113T328 109Q336 109 339 112T344 125L489 726Q491 733 496 738T508 743H614Q622 743 627 739T632 726Z"  />
<glyph unicode="W" horiz-adv-x="862" d="M838 726L744 73Q737 26 715 9T654 -8H600Q566 -8 547 10T517 72L438 402Q436 413 432 413Q427 413 425 402L346 72Q335 28 316 10T263 -8H209Q170 -8 148 9T119 73L25 726V729Q25 736 30 739T42 743H148Q154 743 159 738T165 725L237 128Q238 121 238 117T242 113Q245 113 245 117T248 128L334 479Q339 497 352 510T397 524H466Q498 524 511 511T529 479L615 128Q617 121 617 117T621 113Q624 113 624 117T626 128L698 725Q699 733 704 738T715 743H821Q828 743 833 740T838 729V726Z"  />
<glyph unicode="X" horiz-adv-x="650" d="M627 12Q627 7 623 4T611 0H493Q485 0 479 5T467 20L320 256L182 20Q171 0 156 0H47Q31 0 31 13Q31 16 33 20L246 375L27 724Q25 728 25 730Q25 743 41 743H159Q167 743 173 737T185 724L331 491L466 724Q470 731 477 737T492 743H601Q617 743 617 730Q617 728 615 724L405 372L625 20Q627 17 627 12Z"  />
<glyph unicode="Y" horiz-adv-x="615" d="M590 728Q590 726 588 720L436 373Q422 340 407 324T375 300V20Q375 12 370 6T356 0H256Q248 0 243 6T237 20V300Q220 307 205 323T176 373L25 720Q23 726 23 728Q23 734 27 738T39 743H150Q157 743 162 738T169 727L289 429Q294 416 298 413T306 409Q310 409 314 412T324 429L444 727Q446 733 451 738T463 743H573Q581 743 585 739T590 728Z"  />
<glyph unicode="Z" horiz-adv-x="588" d="M548 20Q548 12 542 6T528 0H91Q69 0 55 8T40 37V92Q40 101 42 110T53 130L370 605Q373 609 373 614Q373 622 363 622H85Q66 622 66 640V724Q66 743 85 743H488Q510 743 525 734T541 705V647Q541 636 537 626T527 606L215 139Q211 134 211 128Q211 122 220 122H528Q536 122 542 117T548 104V20H548Z"  />
<glyph unicode="[" horiz-adv-x="356" d="M328 -178Q328 -194 309 -194H87Q79 -194 75 -189T70 -175V724Q70 732 74 737T87 743H309Q328 743 328 727V654Q328 637 309 637H204V-88H309Q328 -88 328 -105V-178H328Z"  />
<glyph unicode="\" horiz-adv-x="385" d="M371 8Q371 2 366 -3T354 -8H253Q245 -8 241 -2T235 13L16 723Q16 725 16 725T15 728Q15 734 20 738T32 743H132Q140 743 145 737T152 723L370 13Q370 11 370 11T371 8Z"  />
<glyph unicode="]" horiz-adv-x="356" d="M286 -175Q286 -183 282 -188T269 -194H47Q28 -194 28 -178V-105Q28 -88 47 -88H152V637H47Q28 637 28 653V726Q28 743 47 743H269Q277 743 281 738T286 724V-175H286Z"  />
<glyph unicode="^" horiz-adv-x="630" d="M548 573Q548 564 536 564H434Q423 564 418 568T404 580L315 682L226 580Q218 572 213 568T196 564H94Q82 564 82 573Q82 578 87 585L200 733Q208 744 214 747T232 751H398Q410 751 416 748T430 733L543 585Q548 578 548 573Z"  />
<glyph unicode="_" horiz-adv-x="523" d="M554 -98Q554 -106 548 -110T534 -114H-11Q-19 -114 -25 -110T-31 -98V-59Q-31 -51 -25 -47T-11 -43H534Q542 -43 548 -47T554 -59V-98H554Z"  />
<glyph unicode="`" horiz-adv-x="415" d="M273 634Q273 627 264 627H178Q169 627 165 630T155 640L36 764Q32 768 32 772Q32 779 43 779H149Q159 779 163 776T175 764L269 644Q273 640 273 634Z"  />
<glyph unicode="a" horiz-adv-x="548" d="M483 20Q483 12 477 6T463 0H378Q370 0 364 6T358 20V36Q323 15 288 4T217 -8Q186 -8 155 -1T100 25T60 76T44 159V163Q44 206 57 238T100 292T176 325T288 336H351V380Q351 429 330 445T263 461Q215 461 170 459T100 453H95Q87 453 82 456T77 470V534Q77 551 96 555Q126 561 168 566T263 571Q370 571 426 524T483 380V20ZM351 248H288Q254 248 233 243T199 227T182 200T177 163V159Q177 122 194 110T249 97Q276 97 302 105T351 125V248Z"  />
<glyph unicode="b" horiz-adv-x="577" d="M532 243Q532 125 473 59T293 -8Q245 -8 192 -1T92 18Q75 23 70 28T65 45V741Q65 749 71 755T85 761H177Q185 761 191 755T197 741V564Q225 568 250 569T293 571Q414 571 473 505T532 320V243ZM400 320Q400 351 396 377T379 422T346 452T293 463Q275 463 247 461T197 456V107Q211 104 238 102T293 100Q325 100 346 111T379 141T395 186T400 243V320Z"  />
<glyph unicode="c" horiz-adv-x="468" d="M423 31Q423 19 419 14T402 5Q385 0 352 -4T273 -8Q224 -8 183 7T111 52T63 128T45 235V328Q45 389 62 434T110 510T182 556T273 571Q319 571 352 567T402 558Q415 555 419 550T423 532V467Q423 459 418 456T405 452H402Q387 454 374 455T347 457T315 458T273 459Q255 459 238 453T208 433T186 393T177 328V235Q177 196 185 171T207 131T238 110T273 104Q297 104 315 104T347 105T374 107T402 111H405Q413 111 418 108T423 96V31H423Z"  />
<glyph unicode="d" horiz-adv-x="577" d="M512 45Q512 34 507 29T485 18Q438 6 385 -1T284 -8Q163 -8 104 58T45 243V320Q45 438 104 504T284 571Q302 571 327 570T380 564V741Q380 749 386 755T400 761H492Q500 761 506 755T512 741V45ZM380 456Q359 459 331 461T284 463Q252 463 231 452T198 422T182 377T177 320V243Q177 212 181 186T198 141T231 111T284 100Q311 100 338 102T380 107V456Z"  />
<glyph unicode="e" horiz-adv-x="574" d="M526 261Q526 236 506 236H180V233Q180 211 185 189T203 148T240 118T300 106Q355 106 403 109T484 116H487Q495 116 500 113T505 101V35Q505 23 502 17T484 9Q460 4 439 1T397 -4T350 -7T290 -8Q252 -8 210 3T131 43T72 120T48 243V317Q48 375 64 422T110 502T186 553T288 571Q346 571 390 553T465 500T510 420T526 317V261ZM393 334Q393 393 364 425T288 457Q241 457 211 426T181 334V330H393V334Z"  />
<glyph unicode="f" horiz-adv-x="395" d="M375 690Q375 681 370 677T360 673H315Q279 673 268 662T256 613V564H352Q360 564 366 558T372 544V484Q372 476 366 471T352 465H256V21Q256 13 250 7T236 0H145Q137 0 131 6T124 21V465L35 479Q27 481 21 485T15 498V544Q15 552 21 558T35 564H124V613Q124 661 136 692T171 741T226 766T297 773Q315 773 329 771T357 765Q363 763 369 760T375 749V690H375Z"  />
<glyph unicode="g" horiz-adv-x="584" d="M556 495Q556 484 553 481T540 473L507 460Q519 443 525 425T532 380V373Q532 279 471 235T295 191Q255 191 228 196T186 208Q169 197 169 182Q169 167 177 160T203 149L321 121Q372 109 413 98T484 69T529 27T545 -39V-46Q545 -123 487 -163T300 -203Q178 -203 115 -160T52 -37V-28Q52 3 65 31T103 82Q82 98 70 122T58 174V175Q58 198 68 220T98 256Q75 279 66 307T57 373V380Q57 417 70 450T111 509T185 549T295 564H529Q540 564 548 556T556 537V495ZM402 378Q402 396 398 411T381 438T348 456T295 463Q263 463 242 457T209 439T192 412T187 378V370Q187 356 191 342T206 317T239 298T295 291Q357 291 379 311T402 370V378ZM413 -39Q413 -31 410 -24T394 -10T358 4T295 21L206 42Q195 26 188 13T181 -28V-37Q181 -52 186 -64T205 -85T242 -98T300 -103Q336 -103 358 -99T392 -88T409 -71T413 -46V-39Z"  />
<glyph unicode="h" horiz-adv-x="592" d="M527 21Q527 13 521 7T507 0H415Q407 0 401 6T395 21V350Q395 383 392 404T379 437T354 454T313 459Q262 459 197 425V21Q197 13 191 7T177 0H85Q77 0 71 6T65 21V741Q65 749 71 755T85 761H177Q185 761 191 755T197 741V534Q226 551 260 561T348 571Q400 571 434 554T489 507T518 437T527 350V21H527Z"  />
<glyph unicode="i" horiz-adv-x="268" d="M203 659Q203 651 197 645T183 639H86Q78 639 72 645T65 659V747Q65 755 71 761T86 767H183Q191 767 197 761T203 747V659ZM200 21Q200 13 194 7T180 0H88Q80 0 74 6T68 21V544Q68 552 74 558T88 564H180Q188 564 194 558T200 544V21Z"  />
<glyph unicode="j" horiz-adv-x="268" d="M203 659Q203 651 197 645T182 639H86Q78 639 72 645T66 659V747Q66 755 72 761T86 767H182Q190 767 196 761T203 747V659ZM200 -42Q200 -88 190 -118T161 -167T115 -192T52 -200Q35 -200 20 -199T-14 -194Q-33 -191 -33 -176V-111Q-33 -95 -12 -95H33Q57 -95 62 -84T68 -42V544Q68 552 74 558T88 564H180Q188 564 194 558T200 544V-42Z"  />
<glyph unicode="k" horiz-adv-x="549" d="M519 12Q519 7 515 4T505 0H383Q375 0 367 6T354 20L197 248V21Q197 13 191 7T177 0H85Q77 0 71 6T65 21V741Q65 749 71 755T85 761H177Q185 761 191 755T197 741V324L368 552Q373 559 379 561T391 564H503Q518 564 518 553Q518 548 514 543L313 296L516 20Q519 15 519 12Z"  />
<glyph unicode="l" horiz-adv-x="272" d="M202 21Q202 13 197 7T183 0H90Q82 0 76 6T70 21V741Q70 749 76 755T90 761H183Q191 761 196 755T202 741V21H202Z"  />
<glyph unicode="m" horiz-adv-x="848" d="M783 21Q783 13 777 7T763 0H671Q663 0 657 6T651 21V361Q651 390 648 408T636 438T614 453T579 458Q565 458 539 453T486 433Q488 416 489 398T490 361V21Q490 13 484 7T470 0H378Q370 0 364 6T358 21V361Q358 390 355 408T345 438T324 453T289 458Q258 458 197 425V21Q197 13 191 7T177 0H85Q77 0 71 6T65 21V544Q65 552 71 558T85 564H172Q180 564 186 558T192 544V523Q224 543 257 557T335 571Q378 571 406 559T452 526Q490 547 527 559T617 571Q668 571 700 555T751 510T776 443T783 361V21H783Z"  />
<glyph unicode="n" horiz-adv-x="592" d="M527 21Q527 13 521 7T507 0H415Q407 0 401 6T395 21V347Q395 380 393 401T382 435T356 453T310 459Q284 459 257 450T197 423V21Q197 13 191 7T177 0H85Q77 0 71 6T65 21V544Q65 552 71 558T85 564H172Q180 564 186 558T192 544V523Q214 537 232 546T270 560T309 568T354 571Q408 571 442 554T494 507T520 436T527 347V21H527Z"  />
<glyph unicode="o" horiz-adv-x="574" d="M526 241Q526 187 511 142T465 63T391 11T287 -8Q228 -8 184 11T109 63T64 141T48 241V322Q48 376 63 421T109 500T183 552T287 571Q346 571 390 552T465 500T510 422T526 322V241ZM394 322Q394 384 367 420T287 457Q234 457 207 421T180 322V241Q180 179 207 143T287 106Q340 106 367 142T394 241V322Z"  />
<glyph unicode="p" horiz-adv-x="577" d="M532 243Q532 125 473 59T293 -8Q275 -8 250 -7T197 -1V-178Q197 -186 191 -192T177 -198H85Q77 -198 71 -192T65 -178V518Q65 529 70 534T92 545Q139 557 192 564T293 571Q414 571 473 505T532 320V243ZM400 320Q400 351 396 377T379 422T346 452T293 463Q266 463 239 461T197 456V107Q218 104 246 102T293 100Q325 100 346 111T379 141T395 186T400 243V320Z"  />
<glyph unicode="q" horiz-adv-x="577" d="M512 -178Q512 -186 506 -192T492 -198H400Q392 -198 386 -192T380 -178V-1Q352 -5 327 -6T284 -8Q163 -8 104 58T45 243V320Q45 438 104 504T284 571Q332 571 385 564T485 545Q502 540 507 535T512 518V-178ZM380 456Q366 459 339 461T284 463Q252 463 231 452T198 422T182 377T177 320V243Q177 212 181 186T198 141T231 111T284 100Q302 100 330 102T380 107V456Z"  />
<glyph unicode="r" horiz-adv-x="375" d="M355 479Q355 471 349 465T335 459Q294 459 262 450T197 423V21Q197 13 191 7T177 0H85Q77 0 71 6T65 21V544Q65 552 71 558T85 564H172Q180 564 186 558T192 544V523Q229 552 267 561T335 571Q343 571 349 565T355 551V479H355Z"  />
<glyph unicode="s" horiz-adv-x="489" d="M444 148Q444 115 432 87T396 37T334 4T248 -8Q233 -8 212 -7T165 -4T115 2T69 12Q50 17 50 35V95Q50 101 54 106T67 111H71Q89 109 113 107T162 104T207 101T239 100Q262 100 276 103T297 113T307 129T310 148Q310 162 300 173T266 199L129 283Q92 306 69 341T45 421Q45 571 235 571Q265 571 289 570T335 565T375 559T413 551Q431 546 431 528V470Q431 451 415 451H411Q400 452 381 454T339 458T292 461T246 463Q210 463 194 454T177 421Q177 409 187 400T217 380L348 300Q379 281 398 262T427 224T441 186T444 148Z"  />
<glyph unicode="t" horiz-adv-x="405" d="M380 17Q380 2 361 -1Q343 -4 327 -6T293 -8Q251 -8 221 -2T171 21T143 69T134 151V465L40 479Q32 481 26 486T20 499V544Q20 552 26 558T40 564H134V646Q134 654 140 659T154 666L247 682H251Q267 682 267 667V564H357Q365 564 371 558T377 544V485Q377 477 371 471T357 465H267V151Q267 132 268 121T273 104T284 97T306 95H359Q380 95 380 80V17H380Z"  />
<glyph unicode="u" horiz-adv-x="592" d="M527 20Q527 12 521 6T507 0H415Q407 0 401 6T395 20V43Q356 17 321 5T238 -7Q200 -7 169 3T115 35Q87 63 76 108T65 217V543Q65 551 71 557T85 564H177Q185 564 191 558T197 543V217Q197 179 201 157T220 121Q231 112 245 108T282 103Q296 103 311 107T342 117T370 130T395 143V543Q395 551 401 557T415 564H507Q515 564 521 558T527 543V20H527Z"  />
<glyph unicode="v" horiz-adv-x="551" d="M527 548Q527 543 526 541L400 86Q392 58 379 40T349 12T313 -3T275 -8Q256 -8 237 -4T202 11T172 40T151 86L25 541Q24 543 24 548Q24 564 40 564H140Q155 564 160 544L256 125Q259 111 264 106T275 100Q281 100 286 105T294 125L390 544Q395 564 411 564H511Q527 564 527 548Z"  />
<glyph unicode="w" horiz-adv-x="819" d="M793 541L702 81Q697 58 692 43T676 17T651 2T613 -3H586Q545 -3 523 16T491 75L412 381Q411 386 409 386Q407 386 406 381L327 75Q317 36 295 17T232 -3H205Q182 -3 167 1T142 16T126 42T116 81L25 541V544Q25 552 31 558T45 564H142Q150 564 154 559T160 546L223 123Q225 109 228 109Q232 109 235 123L318 459Q326 488 337 495T374 502H444Q470 502 481 495T500 459L583 123Q586 109 590 109Q593 109 595 123L658 546Q659 553 663 558T676 564H773Q781 564 787 558T793 544V541Z"  />
<glyph unicode="x" horiz-adv-x="557" d="M537 13Q537 8 533 4T522 0H408Q400 0 395 3T381 20L267 196L159 20Q151 7 146 4T132 0H29Q17 0 17 11Q17 15 20 20L199 291L30 544Q28 548 28 550Q28 555 32 559T44 564H158Q166 564 171 560T184 544L285 388L379 544Q387 558 392 561T406 564H509Q521 564 521 553Q521 548 518 544L353 292L535 20Q537 16 537 13Z"  />
<glyph unicode="y" horiz-adv-x="560" d="M535 547Q535 543 534 541L367 -43Q355 -84 341 -113T305 -162T248 -191T163 -200Q151 -200 136 -199T107 -196T79 -192T57 -187Q49 -185 43 -182T36 -170V-106Q36 -98 42 -93T56 -88H58Q68 -88 83 -89T114 -91T145 -93T171 -94Q203 -94 221 -82T250 -30L258 0H243Q232 0 220 2T197 13T175 37T156 83L25 541Q24 544 24 548Q24 564 43 564H144Q151 564 156 559T163 546L264 139Q267 126 270 122T278 117H279H284H287L395 547Q397 554 402 559T415 564H517Q525 564 530 559T535 547Z"  />
<glyph unicode="z" horiz-adv-x="490" d="M450 20Q450 12 444 6T430 0H80Q63 0 52 11T40 40V83Q40 98 53 115L295 448Q298 452 298 454Q298 457 292 457H66Q58 457 53 461T48 473V544Q48 552 54 558T68 564H408Q425 564 436 552T448 523V466Q448 462 447 454T443 443L210 124L208 121Q208 117 214 117H432Q440 117 445 113T450 101V20H450Z"  />
<glyph unicode="{" horiz-adv-x="363" d="M353 -181Q353 -198 334 -198H278Q222 -198 187 -190T131 -163T104 -111T96 -31V121Q96 161 82 186T37 233V313Q68 334 81 359T95 425V576Q95 624 102 656T130 707T185 735T277 743H334Q353 743 353 726V653Q353 637 334 637H287Q249 637 239 624T229 576V425Q229 373 212 336T151 273Q194 247 212 210T230 121V-31Q230 -66 240 -79T288 -92H334Q353 -92 353 -108V-181H353Z"  />
<glyph unicode="|" horiz-adv-x="274" d="M204 -174Q204 -182 199 -188T185 -194H90Q82 -194 76 -188T70 -174V723Q70 731 76 737T90 743H185Q193 743 198 737T204 723V-174H204Z"  />
<glyph unicode="}" horiz-adv-x="363" d="M326 233Q295 212 281 187T267 121V-31Q267 -79 260 -111T232 -162T177 -190T85 -198H29Q10 -198 10 -181V-108Q10 -92 29 -92H75Q113 -92 123 -79T133 -31V121Q133 173 151 210T212 273Q169 299 152 336T134 425V576Q134 611 124 624T76 637H29Q10 637 10 653V726Q10 743 29 743H86Q142 743 177 735T233 708T260 656T268 576V425Q268 385 281 360T326 313V233H326Z"  />
<glyph unicode="~" horiz-adv-x="630" d="M552 475Q552 399 520 368T423 336Q406 336 385 340T348 356L260 417Q248 425 239 427T221 430Q205 430 195 421T185 388V362Q185 342 168 342H97Q79 342 79 362V388Q79 463 111 495T209 528Q226 528 247 523T283 507L371 447Q383 439 393 437T411 434Q429 434 437 443T446 475V501Q446 521 463 521H533Q552 521 552 501V475H552Z"  />
<glyph unicode="&#xA0;" horiz-adv-x="250" />
<glyph unicode="&#xA1;" horiz-adv-x="256" d="M192 431Q192 412 173 412H83Q64 412 64 431V544Q64 552 69 558T83 564H173Q181 564 186 558T192 544V431ZM196 -181Q196 -189 190 -194T175 -200H80Q72 -200 66 -195T60 -181L75 327Q75 335 81 341T95 347H160Q168 347 174 341T181 327L196 -181Z"  />
<glyph unicode="&#xA2;" horiz-adv-x="630" d="M494 31Q494 19 490 14T473 5Q460 2 439 -1T388 -7V-87Q388 -95 382 -101T368 -107H286Q278 -107 272 -101T266 -87V3Q199 23 158 80T116 235V328Q116 425 157 482T266 560V648Q266 656 272 662T286 668H368Q376 668 382 662T388 648V570Q417 568 438 565T473 558Q486 555 490 550T494 532V467Q494 459 489 456T476 452H473Q458 454 445 455T418 457T386 458T344 459Q326 459 309 453T279 433T257 393T248 328V235Q248 196 256 171T278 131T309 110T344 104Q368 104 386 104T418 105T445 107T473 111H476Q484 111 489 108T494 96V31H494Z"  />
<glyph unicode="&#xA3;" horiz-adv-x="630" d="M562 629Q562 611 545 611H543Q528 612 509 614T467 617T423 620T381 621Q325 621 300 603T274 533V437H459Q467 437 473 432T479 418V343Q479 325 460 325H274V200Q274 169 267 149T250 111H541Q549 111 555 107T561 94V18Q561 10 555 5T541 0H114Q102 0 99 9T96 26V77Q96 85 98 90T104 100Q115 117 126 144T138 200V325H88Q69 325 69 343V418Q69 426 75 431T89 437H138V533Q138 582 150 619T190 682T264 721T381 735Q400 735 423 734T469 730T512 726T544 721Q558 719 560 715T562 702V629H562Z"  />
<glyph unicode="&#xA4;" horiz-adv-x="630" d="M571 562Q571 554 564 547L479 463Q505 420 505 372Q505 320 478 277L561 193Q568 186 568 178Q568 172 563 167L516 119Q511 114 505 114Q497 114 490 121L404 207Q363 183 316 183Q266 183 225 208L140 124Q136 121 133 119T124 116Q119 116 114 121L67 169Q62 176 62 181Q62 189 69 196L153 279Q126 323 126 372Q126 419 150 460L66 544Q59 551 59 559Q59 566 64 571L112 619Q117 624 122 624Q130 624 138 616L220 534Q242 548 266 554T316 561Q365 561 408 535L492 619Q499 626 507 626Q513 626 518 621L566 573Q571 568 571 562ZM409 374Q409 393 402 409T383 438T353 458T317 465Q298 465 281 458T252 439T232 410T224 374Q224 355 231 338T251 309T281 289T317 281Q336 281 353 288T382 308T402 338T409 374Z"  />
<glyph unicode="&#xA5;" horiz-adv-x="630" d="M601 730Q601 726 598 720L484 493H577Q585 493 591 488T597 475V412Q597 394 578 394H435L385 295V283H577Q585 283 591 278T597 265V202Q597 184 578 184H385V20Q385 12 380 6T366 0H263Q255 0 250 6T245 20V184H51Q32 184 32 202V265Q32 273 38 278T52 283H245V295L195 394H51Q32 394 32 412V475Q32 483 38 488T52 493H146L32 720Q29 726 29 730Q29 743 45 743H159Q166 743 170 738T177 727L315 433L453 727Q456 733 460 738T472 743H585Q601 743 601 730Z"  />
<glyph unicode="&#xA6;" horiz-adv-x="274" d="M204 363Q204 355 199 349T185 342H90Q82 342 76 348T70 363V708Q70 716 76 722T90 728H185Q193 728 198 722T204 708V363ZM204 -190Q204 -198 199 -204T185 -211H90Q82 -211 76 -205T70 -190V155Q70 163 76 169T90 175H185Q193 175 198 169T204 155V-190Z"  />
<glyph unicode="&#xA7;" horiz-adv-x="573" d="M529 -3Q529 -43 517 -81T474 -149T393 -197T267 -216Q210 -216 165 -211T83 -197Q75 -195 69 -191T63 -178V-100Q63 -92 69 -87T83 -82H85Q130 -87 173 -90T262 -94H269Q302 -94 323 -88T357 -70T374 -42T379 -6Q379 9 376 20T363 42T339 64T298 91L173 165Q134 188 109 210T70 256T50 305T44 360Q44 390 50 416T72 463Q56 487 50 512T44 568Q44 609 56 643T98 701T175 738T293 751Q318 751 347 750T403 745T454 739T490 733Q498 731 503 727T509 714V635Q509 627 504 622T490 617H489Q441 620 393 624T295 628H292Q236 628 213 612T189 561Q189 549 192 539T205 518T229 496T269 472L389 405Q430 382 457 359T500 312T522 261T529 205Q529 177 523 150T503 98Q518 75 523 51T529 -3ZM411 206Q411 225 407 240T391 269T359 298T306 332L227 379Q210 389 197 397T173 416Q154 394 154 356Q154 339 158 326T173 300T202 274T249 244L326 198Q374 169 399 146Q406 159 408 174T411 206Z"  />
<glyph unicode="&#xA8;" horiz-adv-x="415" d="M365 659Q365 651 359 645T344 639H272Q264 639 258 645T251 659V747Q251 755 257 761T272 767H344Q352 767 358 761T365 747V659ZM165 659Q165 651 159 645T144 639H72Q64 639 58 645T51 659V747Q51 755 57 761T72 767H144Q152 767 158 761T165 747V659Z"  />
<glyph unicode="&#xA9;" horiz-adv-x="750" d="M705 374Q705 306 679 246T608 142T503 71T374 45Q306 45 246 71T142 141T71 246T45 374Q45 442 71 502T141 608T246 679T374 706Q442 706 502 680T608 608T679 503T705 374ZM656 374Q656 432 634 483T573 573T484 634T374 657Q316 657 265 635T176 574T115 484T93 374Q93 316 115 265T175 176T265 116T374 94Q432 94 483 116T573 176T633 265T656 374ZM477 183Q477 172 463 169Q451 166 430 163T377 160Q303 160 259 204T214 347V407Q214 505 258 549T377 594Q408 594 430 591T463 585Q469 583 473 581T477 572V523Q477 515 473 513T464 511H462Q445 513 426 514T377 516Q362 516 348 511T324 494T307 460T301 407V347Q301 314 307 293T323 260T348 243T377 238Q403 238 424 239T462 243H464Q469 243 473 241T477 231V183Z"  />
<glyph unicode="&#xAA;" horiz-adv-x="335" d="M298 431Q298 418 289 415Q233 400 173 400Q99 400 66 426T32 506V513Q32 566 71 587T184 609H210V622Q210 652 198 663T163 674Q134 674 110 673T70 669H69Q64 669 60 672T55 683V721Q55 732 69 736Q85 740 110 744T163 748Q227 748 262 720T298 622V431ZM210 557Q208 557 203 557T191 558Q185 558 184 557Q147 557 132 547T116 513V506Q116 483 128 474T173 464Q184 464 193 465T210 468V557Z"  />
<glyph unicode="&#xAB;" horiz-adv-x="689" d="M652 77Q652 73 649 70T637 66H542Q529 66 524 69T512 79L350 257Q345 262 344 269T342 282Q342 287 343 294T350 307L512 485Q519 492 524 495T542 498H637Q645 498 648 495T652 487Q652 483 649 480L468 282L649 84Q652 81 652 77ZM365 77Q365 73 362 70T350 66H255Q242 66 237 69T225 79L63 257Q58 262 57 269T55 282Q55 287 56 294T63 307L225 485Q232 492 237 495T255 498H350Q358 498 361 495T365 487Q365 483 362 480L181 282L362 84Q365 81 365 77Z"  />
<glyph unicode="&#xAC;" horiz-adv-x="630" d="M538 203Q538 195 532 189T518 183H456Q448 183 442 189T436 203V462H113Q105 462 99 466T93 478V548Q93 556 99 560T113 564H520Q528 564 533 560T538 547V203H538Z"  />
<glyph unicode="&#xAD;" horiz-adv-x="321" d="M278 276Q278 258 259 258H63Q55 258 49 263T43 276V339Q43 347 49 352T63 358H259Q278 358 278 339V276H278Z"  />
<glyph unicode="&#xAE;" horiz-adv-x="598" d="M575 484Q575 427 553 377T494 290T406 231T299 209Q242 209 192 230T105 289T46 377T24 484Q24 541 45 591T104 678T192 737T299 759Q356 759 406 738T493 679T553 591T575 484ZM528 484Q528 531 510 573T461 646T388 695T299 713Q252 713 211 695T138 646T89 573T71 484Q71 437 89 396T138 323T210 274T299 256Q346 256 388 274T461 323T510 395T528 484ZM432 330Q432 326 430 323T421 319H370Q363 319 359 327L289 445Q286 450 279 450H259H248V332Q248 327 245 323T236 319H190Q185 319 182 323T178 332V629Q178 643 183 648T200 656Q206 657 216 657T238 658T262 659T284 660Q348 660 384 637T420 555V549Q420 512 403 492T358 461L430 338Q432 334 432 330ZM353 555Q353 580 338 590T289 600H258H246V504Q249 504 255 504T268 504T281 503T289 503Q324 503 338 514T353 549V555Z"  />
<glyph unicode="&#xAF;" horiz-adv-x="415" d="M383 680Q383 672 377 667T363 662H53Q45 662 39 667T33 680V737Q33 745 39 750T53 755H363Q371 755 377 750T383 737V680H383Z"  />
<glyph unicode="&#xB0;" horiz-adv-x="353" d="M326 602Q326 571 314 544T282 497T235 465T177 453Q146 453 119 464T72 496T40 544T28 602Q28 633 39 660T71 707T119 739T177 751Q208 751 235 739T282 707T314 660T326 602ZM256 602Q256 634 233 657T177 681Q145 681 122 658T99 602Q99 570 122 547T177 524Q209 524 232 547T256 602Z"  />
<glyph unicode="&#xB1;" horiz-adv-x="630" d="M548 356Q548 348 542 344T528 340H366V179Q366 171 362 165T350 159H280Q272 159 268 165T264 179V340H103Q95 340 89 344T83 356V426Q83 434 89 438T103 442H264V604Q264 612 268 618T280 624H350Q358 624 362 618T366 604V442H528Q536 442 542 438T548 426V356ZM548 1Q548 -7 542 -11T528 -15H103Q95 -15 89 -11T83 1V57Q83 65 89 69T103 73H528Q536 73 542 69T548 57V1Z"  />
<glyph unicode="&#xB2;" horiz-adv-x="347" d="M58 744Q79 750 110 754T169 758Q243 758 275 733T308 653Q308 618 290 593T237 544L189 511Q169 497 155 486T133 464T120 441T115 414H287Q294 414 299 411T304 398V357Q304 348 299 344T287 340H58Q51 340 46 345T41 357V410Q41 455 61 490T126 556L180 592Q206 609 216 621T226 653Q226 672 213 679T169 687Q146 687 116 685T61 679Q50 677 47 683T44 696V728Q44 740 58 744Z"  />
<glyph unicode="&#xB3;" horiz-adv-x="347" d="M304 458Q304 426 293 403T263 365T218 343T162 336Q133 336 107 340T58 349Q52 351 47 354T42 366V399Q42 407 45 412T60 415Q92 411 118 409T162 407Q192 407 204 420T217 458V470Q217 489 209 504T173 519H78Q71 519 66 523T61 535V569Q61 577 66 581T78 585H173Q200 585 208 598T217 632V641Q217 659 207 673T162 687Q134 687 111 685T58 679Q52 679 47 683T42 695V728Q42 733 47 737T58 744Q81 750 107 754T162 758Q192 758 218 752T263 731T293 695T304 641V632Q304 577 263 552Q283 538 293 517T304 470V458H304Z"  />
<glyph unicode="&#xB4;" horiz-adv-x="415" d="M383 772Q383 768 379 764L261 640Q255 633 251 630T237 627H151Q142 627 142 634Q142 640 146 644L241 764Q248 772 252 775T267 779H372Q383 779 383 772Z"  />
<glyph unicode="&#xB5;" horiz-adv-x="587" d="M527 42Q527 32 521 26T500 16Q462 6 411 -1T297 -8Q263 -8 238 0T194 23V-172Q194 -180 189 -186T176 -192H79Q71 -192 66 -186T60 -172V543Q60 551 66 557T80 564H173Q181 564 187 558T193 543V197Q193 101 297 101Q321 101 347 104T393 112V543Q393 551 399 557T413 564H506Q514 564 520 558T527 543V42H527Z"  />
<glyph unicode="&#xB6;" horiz-adv-x="644" d="M584 -176Q584 -184 580 -189T567 -195H532Q524 -195 520 -190T515 -176V676H454V-176Q454 -184 450 -189T437 -195H402Q394 -195 390 -190T385 -176V250H286Q234 250 190 264T114 307T63 377T45 473V520Q45 574 63 615T113 685T190 728T286 743H568Q584 743 584 724V-176H584Z"  />
<glyph unicode="&#xB7;" horiz-adv-x="259" d="M194 329Q194 321 188 315T174 309H85Q77 309 71 315T65 329V442Q65 450 71 455T85 461H174Q182 461 188 456T194 442V329H194Z"  />
<glyph unicode="&#xB8;" horiz-adv-x="403" d="M296 -41Q296 -45 292 -49L173 -172Q167 -179 163 -182T150 -186H64Q55 -186 55 -179Q55 -173 59 -169L153 -49Q160 -41 164 -38T179 -34H285Q296 -34 296 -41Z"  />
<glyph unicode="&#xB9;" horiz-adv-x="254" d="M113 751Q116 753 122 753T134 754H170Q180 754 183 749T187 737V357Q187 350 182 345T170 340H117Q110 340 105 345T100 357V664L44 645Q37 643 30 644T23 656V709Q23 714 25 716T32 720L113 751Z"  />
<glyph unicode="&#xBA;" horiz-adv-x="357" d="M325 557Q325 479 288 440T179 400Q108 400 71 439T33 557V591Q33 669 70 708T179 748Q250 748 287 709T325 591V557ZM236 591Q236 634 223 653T179 673Q149 673 135 654T121 591V557Q121 474 179 474Q209 474 222 494T236 557V591Z"  />
<glyph unicode="&#xBB;" horiz-adv-x="689" d="M649 282Q649 277 648 270T641 257L479 79Q472 72 467 69T449 66H354Q346 66 343 69T339 77Q339 81 342 84L523 282L342 480Q339 483 339 487Q339 491 342 494T354 498H449Q462 498 467 495T479 485L641 307Q646 302 647 295T649 282ZM362 282Q362 277 361 270T354 257L192 79Q185 72 180 69T162 66H67Q59 66 56 69T52 77Q52 81 55 84L236 282L55 480Q52 483 52 487Q52 491 55 494T67 498H162Q175 498 180 495T192 485L354 307Q359 302 360 295T362 282Z"  />
<glyph unicode="&#xBC;" horiz-adv-x="709" d="M120 751Q123 753 129 753T141 754H177Q187 754 190 749T194 737V357Q194 350 189 345T177 340H124Q117 340 112 345T107 357V664L51 645Q44 643 37 644T30 656V709Q30 714 32 716T39 720L120 751ZM600 735Q600 728 596 723L177 14Q171 3 168 0T156 -3H74Q64 -3 64 6Q64 13 68 18L487 726Q493 736 497 739T509 743H590Q600 743 600 735ZM679 113Q679 106 674 101T663 96H628V17Q628 10 624 5T612 0H556Q549 0 545 5T541 17V96H384Q378 96 373 101T368 113V157Q368 168 376 179L542 402Q546 407 550 410T562 414H611Q618 414 623 409T628 397V168H663Q669 168 674 163T679 151V113ZM542 288L455 168H542V288Z"  />
<glyph unicode="&#xBD;" horiz-adv-x="751" d="M120 751Q123 753 129 753T141 754H177Q187 754 190 749T194 737V357Q194 350 189 345T177 340H124Q117 340 112 345T107 357V664L51 645Q44 643 37 644T30 656V709Q30 714 32 716T39 720L120 751ZM600 735Q600 728 596 723L177 14Q171 3 168 0T156 -3H74Q64 -3 64 6Q64 13 68 18L487 726Q493 736 497 739T509 743H590Q600 743 600 735ZM721 313Q721 278 703 253T650 204L602 171Q568 148 549 126T528 74H700Q707 74 712 70T717 58V17Q717 10 712 5T700 0H471Q464 0 459 5T454 17V70Q454 115 479 154T539 216L593 252Q619 269 629 281T639 313Q639 332 626 339T582 347Q559 347 529 345T474 339Q466 339 462 344T457 356V388Q457 394 461 398T472 404H471Q492 410 523 414T582 418Q656 418 688 393T721 313Z"  />
<glyph unicode="&#xBE;" horiz-adv-x="770" d="M661 735Q661 728 657 723L238 14Q232 3 229 0T217 -3H135Q125 -3 125 6Q125 13 129 18L548 726Q554 736 558 739T570 743H651Q661 743 661 735ZM740 113Q740 106 735 101T724 96H689V17Q689 10 685 5T673 0H617Q610 0 606 5T602 17V96H445Q439 96 434 101T429 113V157Q429 168 437 179L603 402Q607 407 611 410T623 414H672Q679 414 684 409T689 397V168H724Q730 168 735 163T740 151V113ZM603 288L516 168H603V288ZM292 458Q292 426 281 403T251 365T206 343T150 336Q121 336 95 340T46 349Q40 351 35 355T30 366V399Q30 407 35 411T48 415Q80 411 106 409T150 407Q180 407 192 420T205 458V470Q205 489 197 504T161 519H66Q59 519 54 523T49 535V569Q49 577 54 581T66 585H161Q188 585 196 598T205 632V641Q205 659 195 673T150 687Q122 687 99 685T46 679Q40 679 35 683T30 695V728Q30 733 35 737T46 744Q69 750 95 754T150 758Q180 758 206 752T251 731T281 695T292 641V632Q292 577 251 552Q271 538 281 517T292 470V458Z"  />
<glyph unicode="&#xBF;" horiz-adv-x="437" d="M334 432Q334 424 328 418T314 412H224Q216 412 210 418T204 432V545Q204 553 210 558T224 564H314Q322 564 328 559T334 545V432ZM407 -144Q407 -156 405 -162T389 -172Q357 -180 316 -185T236 -190Q188 -190 150 -183T85 -157T44 -109T30 -34V-18Q30 -5 31 10T40 43T61 83T101 136L162 208Q182 232 195 249T208 290V328Q208 336 214 341T228 347H311Q330 347 330 328V290Q330 266 328 248T318 214T300 181T271 143L207 69Q189 48 184 27T178 -18V-34Q178 -56 191 -63T236 -71Q273 -71 313 -68T386 -60H390Q407 -60 407 -82V-144Z"  />
<glyph unicode="&#xC0;" horiz-adv-x="646" d="M627 17Q627 9 622 5T609 0H503Q496 0 491 5T484 17L438 207H208L162 17Q160 10 155 5T143 0H37Q29 0 24 4T19 17Q19 18 19 19T20 22L184 649Q193 684 210 704T246 734T286 748T323 751Q339 751 359 748T399 735T436 704T462 649L626 22Q626 20 626 19T627 17ZM339 618Q337 627 334 630T323 634Q315 634 312 631T307 618L235 321H411L339 618ZM434 801Q434 794 425 794H339Q330 794 326 797T316 807L197 931Q193 935 193 939Q193 946 204 946H310Q320 946 324 943T336 931L430 811Q434 807 434 801Z"  />
<glyph unicode="&#xC1;" horiz-adv-x="646" d="M627 17Q627 9 622 5T609 0H503Q496 0 491 5T484 17L438 207H208L162 17Q160 10 155 5T143 0H37Q29 0 24 4T19 17Q19 18 19 19T20 22L184 649Q193 684 210 704T246 734T286 748T323 751Q339 751 359 748T399 735T436 704T462 649L626 22Q626 20 626 19T627 17ZM339 618Q337 627 334 630T323 634Q315 634 312 631T307 618L235 321H411L339 618ZM491 939Q491 935 487 931L369 807Q363 800 359 797T345 794H259Q250 794 250 801Q250 807 254 811L349 931Q356 939 360 942T375 946H480Q491 946 491 939Z"  />
<glyph unicode="&#xC2;" horiz-adv-x="646" d="M627 17Q627 9 622 5T609 0H503Q496 0 491 5T484 17L438 207H208L162 17Q160 10 155 5T143 0H37Q29 0 24 4T19 17Q19 18 19 19T20 22L184 649Q193 684 210 704T246 734T286 748T323 751Q339 751 359 748T399 735T436 704T462 649L626 22Q626 20 626 19T627 17ZM339 618Q337 627 334 630T323 634Q315 634 312 631T307 618L235 321H411L339 618ZM509 801Q509 794 500 794H417Q408 794 404 797T394 807L323 888L252 807Q246 800 242 797T228 794H145Q136 794 136 801Q136 807 140 811L232 931Q239 939 243 942T258 946H388Q398 946 402 943T414 931L505 811Q509 807 509 801Z"  />
<glyph unicode="&#xC3;" horiz-adv-x="646" d="M627 17Q627 9 622 5T609 0H503Q496 0 491 5T484 17L438 207H208L162 17Q160 10 155 5T143 0H37Q29 0 24 4T19 17Q19 18 19 19T20 22L184 649Q193 684 210 704T246 734T286 748T323 751Q339 751 359 748T399 735T436 704T462 649L626 22Q626 20 626 19T627 17ZM339 618Q337 627 334 630T323 634Q315 634 312 631T307 618L235 321H411L339 618ZM531 900Q531 839 502 814T420 788Q403 788 384 794T350 811L306 844Q293 854 283 859T264 865Q252 865 244 858T236 831V810Q236 794 222 794H165Q151 794 151 810V831Q151 891 181 917T263 943Q280 943 298 938T332 921L376 888Q402 868 418 868Q431 868 438 874T446 901V922Q446 938 460 938H517Q531 938 531 922V900H531Z"  />
<glyph unicode="&#xC4;" horiz-adv-x="646" d="M627 17Q627 9 622 5T609 0H503Q496 0 491 5T484 17L438 207H208L162 17Q160 10 155 5T143 0H37Q29 0 24 4T19 17Q19 18 19 19T20 22L184 649Q193 684 210 704T246 734T286 748T323 751Q339 751 359 748T399 735T436 704T462 649L626 22Q626 20 626 19T627 17ZM339 618Q337 627 334 630T323 634Q315 634 312 631T307 618L235 321H411L339 618ZM479 824Q479 816 473 810T458 804H386Q378 804 372 810T365 824V912Q365 920 371 926T386 932H458Q466 932 472 926T479 912V824ZM279 824Q279 816 273 810T258 804H186Q178 804 172 810T165 824V912Q165 920 171 926T186 932H258Q266 932 272 926T279 912V824Z"  />
<glyph unicode="&#xC5;" horiz-adv-x="646" d="M627 17Q627 9 622 5T609 0H503Q496 0 491 5T484 17L438 207H208L162 17Q160 10 155 5T143 0H37Q29 0 24 4T19 17Q19 18 19 19T20 22L184 649Q193 684 210 704T246 734T286 748T323 751Q339 751 359 748T399 735T436 704T462 649L626 22Q626 20 626 19T627 17ZM339 618Q337 627 334 630T323 634Q315 634 312 631T307 618L235 321H411L339 618ZM432 889Q432 866 424 846T400 811T365 788T322 779Q299 779 279 787T244 811T220 846T211 889Q211 912 220 932T244 967T279 991T322 1000Q345 1000 365 991T400 967T423 932T432 889ZM370 890Q370 910 356 923T322 937Q302 937 289 924T276 890Q276 870 289 856T322 842Q342 842 356 856T370 890Z"  />
<glyph unicode="&#xC6;" horiz-adv-x="880" d="M820 27Q820 16 816 12T800 6Q788 3 777 1T749 -4T706 -7T640 -8Q591 -8 549 0T476 30T427 93T409 197V207H208L162 17Q160 10 155 5T143 0H37Q29 0 24 4T19 17Q19 18 19 19T20 22L184 649Q193 684 210 703T246 731T286 741T323 743H800Q820 743 820 722V652Q820 644 814 638T800 632H547V438H788Q796 438 802 432T808 418V346Q808 338 802 332T788 326H547V197Q547 147 564 129T626 111H800Q808 111 814 105T820 91V27ZM409 634H323Q315 634 312 631T307 618L235 321H409V634Z"  />
<glyph unicode="&#xC7;" horiz-adv-x="563" d="M518 31Q518 20 512 16T496 8Q490 6 476 4T440 -1T393 -6T338 -8Q293 -8 243 5T152 52T83 146T55 298V445Q55 539 82 598T151 692T243 738T338 751Q367 751 393 749T440 745T475 739T496 735Q506 732 512 728T518 712V645Q518 636 514 630T499 624H496Q483 625 465 626T425 629T382 631T340 632Q308 632 282 623T236 592T206 534T195 445V298Q195 246 206 210T236 152T281 121T340 111Q360 111 382 112T425 114T464 116T496 119H499Q510 119 514 113T518 98V31ZM420 -41Q420 -44 415 -49L296 -172Q290 -179 287 -182T273 -186H187Q178 -186 178 -179Q178 -175 182 -169L276 -49Q283 -41 287 -38T302 -34H408Q420 -34 420 -41Z"  />
<glyph unicode="&#xC8;" horiz-adv-x="576" d="M516 27Q516 16 512 12T496 6Q484 4 470 2T434 -3T382 -6T306 -8Q257 -8 215 0T142 30T93 93T75 197V546Q75 610 93 650T142 712T215 743T306 751Q351 751 381 750T433 746T469 742T496 737Q507 735 511 731T516 716V652Q516 644 510 638T496 632H292Q248 632 231 614T213 546V438H484Q492 438 498 432T504 418V346Q504 338 498 332T484 326H213V197Q213 147 230 129T292 111H496Q504 111 510 105T516 91V27H516ZM403 801Q403 794 394 794H308Q299 794 295 797T285 807L166 931Q162 935 162 939Q162 946 173 946H279Q289 946 293 943T305 931L399 811Q403 807 403 801Z"  />
<glyph unicode="&#xC9;" horiz-adv-x="576" d="M516 27Q516 16 512 12T496 6Q484 4 470 2T434 -3T382 -6T306 -8Q257 -8 215 0T142 30T93 93T75 197V546Q75 610 93 650T142 712T215 743T306 751Q351 751 381 750T433 746T469 742T496 737Q507 735 511 731T516 716V652Q516 644 510 638T496 632H292Q248 632 231 614T213 546V438H484Q492 438 498 432T504 418V346Q504 338 498 332T484 326H213V197Q213 147 230 129T292 111H496Q504 111 510 105T516 91V27H516ZM454 939Q454 935 450 931L332 807Q326 800 322 797T308 794H222Q213 794 213 801Q213 807 217 811L312 931Q319 939 323 942T338 946H443Q454 946 454 939Z"  />
<glyph unicode="&#xCA;" horiz-adv-x="576" d="M516 27Q516 16 512 12T496 6Q484 4 470 2T434 -3T382 -6T306 -8Q257 -8 215 0T142 30T93 93T75 197V546Q75 610 93 650T142 712T215 743T306 751Q351 751 381 750T433 746T469 742T496 737Q507 735 511 731T516 716V652Q516 644 510 638T496 632H292Q248 632 231 614T213 546V438H484Q492 438 498 432T504 418V346Q504 338 498 332T484 326H213V197Q213 147 230 129T292 111H496Q504 111 510 105T516 91V27H516ZM484 802Q484 795 475 795H392Q383 795 379 798T369 808L298 889L227 808Q221 801 217 798T203 795H120Q111 795 111 802Q111 808 115 812L207 932Q214 940 218 943T233 947H363Q373 947 377 944T389 932L480 812Q484 808 484 802Z"  />
<glyph unicode="&#xCB;" horiz-adv-x="576" d="M516 27Q516 16 512 12T496 6Q484 4 470 2T434 -3T382 -6T306 -8Q257 -8 215 0T142 30T93 93T75 197V546Q75 610 93 650T142 712T215 743T306 751Q351 751 381 750T433 746T469 742T496 737Q507 735 511 731T516 716V652Q516 644 510 638T496 632H292Q248 632 231 614T213 546V438H484Q492 438 498 432T504 418V346Q504 338 498 332T484 326H213V197Q213 147 230 129T292 111H496Q504 111 510 105T516 91V27H516ZM448 824Q448 816 442 810T427 804H355Q347 804 341 810T334 824V912Q334 920 340 926T355 932H427Q435 932 441 926T448 912V824ZM248 824Q248 816 242 810T227 804H155Q147 804 141 810T134 824V912Q134 920 140 926T155 932H227Q235 932 241 926T248 912V824Z"  />
<glyph unicode="&#xCC;" horiz-adv-x="289" d="M214 20Q214 12 208 6T194 0H95Q87 0 81 6T75 20V724Q75 732 81 737T95 743H194Q202 743 208 738T214 724V20H214ZM232 801Q232 794 223 794H137Q128 794 124 797T114 807L-5 931Q-9 935 -9 939Q-9 946 2 946H108Q118 946 122 943T134 931L228 811Q232 807 232 801Z"  />
<glyph unicode="&#xCD;" horiz-adv-x="289" d="M214 20Q214 12 208 6T194 0H95Q87 0 81 6T75 20V724Q75 732 81 737T95 743H194Q202 743 208 738T214 724V20H214ZM304 939Q304 935 300 931L182 807Q176 800 172 797T158 794H72Q63 794 63 801Q63 807 67 811L162 931Q169 939 173 942T188 946H293Q304 946 304 939Z"  />
<glyph unicode="&#xCE;" horiz-adv-x="289" d="M214 20Q214 12 208 6T194 0H95Q87 0 81 6T75 20V724Q75 732 81 737T95 743H194Q202 743 208 738T214 724V20H214ZM333 801Q333 794 324 794H241Q232 794 228 797T218 807L147 888L76 807Q70 800 66 797T52 794H-31Q-40 794 -40 801Q-40 807 -36 811L56 931Q63 939 67 942T82 946H212Q222 946 226 943T238 931L329 811Q333 807 333 801Z"  />
<glyph unicode="&#xCF;" horiz-adv-x="289" d="M214 20Q214 12 208 6T194 0H95Q87 0 81 6T75 20V724Q75 732 81 737T95 743H194Q202 743 208 738T214 724V20H214ZM302 824Q302 816 296 810T281 804H209Q201 804 195 810T188 824V912Q188 920 194 926T209 932H281Q289 932 295 926T302 912V824ZM102 824Q102 816 96 810T81 804H9Q1 804 -5 810T-12 824V912Q-12 920 -6 926T9 932H81Q89 932 95 926T102 912V824Z"  />
<glyph unicode="&#xD0;" horiz-adv-x="667" d="M612 298Q612 149 531 71T298 -8Q271 -8 242 -7T185 -4T135 0T101 4Q88 6 82 13T75 35V326H17Q-2 326 -2 345V420Q-2 438 17 438H75V708Q75 723 81 730T101 739Q112 741 134 743T184 747T241 750T298 751Q449 751 530 673T612 445V298ZM474 445Q474 501 461 537T424 595T368 625T298 634Q270 634 250 633T214 631V438H285Q304 438 304 420V345Q304 326 285 326H214V112Q230 111 250 110T298 109Q335 109 367 117T423 147T460 205T474 298V445Z"  />
<glyph unicode="&#xD1;" horiz-adv-x="712" d="M637 40Q637 23 626 12T597 0H496Q478 0 463 4T435 36L213 523Q209 531 204 531Q199 531 199 523V20Q199 12 194 6T180 0H95Q87 0 81 6T75 20V703Q75 720 86 731T115 743H223Q239 743 248 737T267 711L500 197Q503 189 508 189Q513 189 513 198V724Q513 743 532 743H618Q637 743 637 724V40H637ZM539 900Q539 839 510 814T428 788Q411 788 392 794T358 811L314 844Q301 854 291 859T272 865Q260 865 252 858T244 831V810Q244 794 230 794H173Q159 794 159 810V831Q159 891 189 917T271 943Q288 943 306 938T340 921L384 888Q410 868 426 868Q439 868 446 874T454 901V922Q454 938 468 938H525Q539 938 539 922V900H539Z"  />
<glyph unicode="&#xD2;" horiz-adv-x="680" d="M625 304Q625 221 604 162T544 66T454 10T340 -8Q278 -8 226 10T136 65T77 162T55 304V439Q55 521 76 580T136 677T226 733T340 751Q402 751 454 733T544 678T603 581T625 439V304ZM485 439Q485 539 450 584T340 630Q266 630 231 585T195 439V304Q195 204 230 159T340 113Q414 113 449 158T485 304V439ZM426 801Q426 794 417 794H331Q322 794 318 797T308 807L189 931Q185 935 185 939Q185 946 196 946H302Q312 946 316 943T328 931L422 811Q426 807 426 801Z"  />
<glyph unicode="&#xD3;" horiz-adv-x="680" d="M625 304Q625 221 604 162T544 66T454 10T340 -8Q278 -8 226 10T136 65T77 162T55 304V439Q55 521 76 580T136 677T226 733T340 751Q402 751 454 733T544 678T603 581T625 439V304ZM485 439Q485 539 450 584T340 630Q266 630 231 585T195 439V304Q195 204 230 159T340 113Q414 113 449 158T485 304V439ZM488 939Q488 935 484 931L366 807Q360 800 356 797T342 794H256Q247 794 247 801Q247 807 251 811L346 931Q353 939 357 942T372 946H477Q488 946 488 939Z"  />
<glyph unicode="&#xD4;" horiz-adv-x="680" d="M625 304Q625 221 604 162T544 66T454 10T340 -8Q278 -8 226 10T136 65T77 162T55 304V439Q55 521 76 580T136 677T226 733T340 751Q402 751 454 733T544 678T603 581T625 439V304ZM485 439Q485 539 450 584T340 630Q266 630 231 585T195 439V304Q195 204 230 159T340 113Q414 113 449 158T485 304V439ZM524 802Q524 795 515 795H432Q423 795 419 798T409 808L338 889L267 808Q261 801 257 798T243 795H160Q151 795 151 802Q151 808 155 812L247 932Q254 940 258 943T273 947H403Q413 947 417 944T429 932L520 812Q524 808 524 802Z"  />
<glyph unicode="&#xD5;" horiz-adv-x="680" d="M625 304Q625 221 604 162T544 66T454 10T340 -8Q278 -8 226 10T136 65T77 162T55 304V439Q55 521 76 580T136 677T226 733T340 751Q402 751 454 733T544 678T603 581T625 439V304ZM485 439Q485 539 450 584T340 630Q266 630 231 585T195 439V304Q195 204 230 159T340 113Q414 113 449 158T485 304V439ZM535 901Q535 840 506 815T424 789Q407 789 388 795T354 812L310 845Q297 855 287 860T268 866Q256 866 248 859T240 832V811Q240 795 226 795H169Q155 795 155 811V832Q155 892 185 918T267 944Q284 944 302 939T336 922L380 889Q406 869 422 869Q435 869 442 875T450 902V923Q450 939 464 939H521Q535 939 535 923V901H535Z"  />
<glyph unicode="&#xD6;" horiz-adv-x="680" d="M625 304Q625 221 604 162T544 66T454 10T340 -8Q278 -8 226 10T136 65T77 162T55 304V439Q55 521 76 580T136 677T226 733T340 751Q402 751 454 733T544 678T603 581T625 439V304ZM485 439Q485 539 450 584T340 630Q266 630 231 585T195 439V304Q195 204 230 159T340 113Q414 113 449 158T485 304V439ZM491 824Q491 816 485 810T470 804H398Q390 804 384 810T377 824V912Q377 920 383 926T398 932H470Q478 932 484 926T491 912V824ZM291 824Q291 816 285 810T270 804H198Q190 804 184 810T177 824V912Q177 920 183 926T198 932H270Q278 932 284 926T291 912V824Z"  />
<glyph unicode="&#xD7;" horiz-adv-x="630" d="M520 531Q520 523 512 515L387 390L512 266Q519 259 519 251Q519 245 514 240L465 191Q460 186 455 186Q448 186 440 194L315 318L191 194Q183 186 175 186Q170 186 165 191L116 240Q111 245 111 250Q111 258 119 266L243 390L118 515Q110 523 110 531Q110 536 115 541L164 590Q169 595 174 595Q182 595 190 587L315 462L440 587Q448 595 456 595Q461 595 466 590L515 541Q520 536 520 531Z"  />
<glyph unicode="&#xD8;" horiz-adv-x="680" d="M656 737Q656 733 653 729L581 629Q602 593 613 546T625 439V304Q625 221 604 162T544 66T454 10T340 -8Q287 -8 242 4T161 44L132 4Q127 -2 124 -5T112 -8H36Q25 -8 25 3Q25 6 28 11L100 111Q55 185 55 304V439Q55 521 76 580T136 677T226 733T340 751Q394 751 440 738T522 697L551 738Q556 744 559 746T570 748H645Q656 748 656 737ZM444 590Q408 630 340 630Q266 630 231 585T195 439V304Q195 273 198 248L444 590ZM485 439Q485 467 482 491L238 151Q273 113 340 113Q414 113 449 158T485 304V439Z"  />
<glyph unicode="&#xD9;" horiz-adv-x="690" d="M620 275Q620 195 600 141T543 54T456 7T345 -8Q285 -8 235 6T148 54T91 141T70 275V724Q70 732 76 737T90 743H189Q197 743 203 738T209 724V275Q209 232 215 201T236 148T278 117T345 107Q385 107 411 117T453 148T475 200T481 275V724Q481 732 487 737T501 743H600Q608 743 614 738T620 724V275H620ZM424 801Q424 794 415 794H329Q320 794 316 797T306 807L187 931Q183 935 183 939Q183 946 194 946H300Q310 946 314 943T326 931L420 811Q424 807 424 801Z"  />
<glyph unicode="&#xDA;" horiz-adv-x="690" d="M620 275Q620 195 600 141T543 54T456 7T345 -8Q285 -8 235 6T148 54T91 141T70 275V724Q70 732 76 737T90 743H189Q197 743 203 738T209 724V275Q209 232 215 201T236 148T278 117T345 107Q385 107 411 117T453 148T475 200T481 275V724Q481 732 487 737T501 743H600Q608 743 614 738T620 724V275H620ZM512 939Q512 935 508 931L390 807Q384 800 380 797T366 794H280Q271 794 271 801Q271 807 275 811L370 931Q377 939 381 942T396 946H501Q512 946 512 939Z"  />
<glyph unicode="&#xDB;" horiz-adv-x="690" d="M620 275Q620 195 600 141T543 54T456 7T345 -8Q285 -8 235 6T148 54T91 141T70 275V724Q70 732 76 737T90 743H189Q197 743 203 738T209 724V275Q209 232 215 201T236 148T278 117T345 107Q385 107 411 117T453 148T475 200T481 275V724Q481 732 487 737T501 743H600Q608 743 614 738T620 724V275H620ZM531 801Q531 794 522 794H439Q430 794 426 797T416 807L345 888L274 807Q268 800 264 797T250 794H167Q158 794 158 801Q158 807 162 811L254 931Q261 939 265 942T280 946H410Q420 946 424 943T436 931L527 811Q531 807 531 801Z"  />
<glyph unicode="&#xDC;" horiz-adv-x="690" d="M620 275Q620 195 600 141T543 54T456 7T345 -8Q285 -8 235 6T148 54T91 141T70 275V724Q70 732 76 737T90 743H189Q197 743 203 738T209 724V275Q209 232 215 201T236 148T278 117T345 107Q385 107 411 117T453 148T475 200T481 275V724Q481 732 487 737T501 743H600Q608 743 614 738T620 724V275H620ZM503 824Q503 816 497 810T482 804H410Q402 804 396 810T389 824V912Q389 920 395 926T410 932H482Q490 932 496 926T503 912V824ZM303 824Q303 816 297 810T282 804H210Q202 804 196 810T189 824V912Q189 920 195 926T210 932H282Q290 932 296 926T303 912V824Z"  />
<glyph unicode="&#xDD;" horiz-adv-x="615" d="M590 728Q590 726 588 720L436 373Q422 340 407 324T375 300V20Q375 12 370 6T356 0H256Q248 0 243 6T237 20V300Q220 307 205 323T176 373L25 720Q23 726 23 728Q23 734 27 738T39 743H150Q157 743 162 738T169 727L289 429Q294 416 298 413T306 409Q310 409 314 412T324 429L444 727Q446 733 451 738T463 743H573Q581 743 585 739T590 728ZM481 939Q481 935 477 931L359 807Q353 800 349 797T335 794H249Q240 794 240 801Q240 807 244 811L339 931Q346 939 350 942T365 946H470Q481 946 481 939Z"  />
<glyph unicode="&#xDE;" horiz-adv-x="626" d="M591 419Q591 351 567 305T503 232T410 193T299 181Q276 181 255 182T213 184V20Q213 12 208 6T195 0H94Q86 0 81 6T75 20V724Q75 743 94 743H195Q213 743 213 724V661Q226 662 251 662T296 663Q355 663 408 652T502 613T567 542T591 431V419ZM452 431Q452 495 413 520T299 545Q291 545 279 545T254 545T230 544T213 543V301Q219 301 230 301T255 300T280 299T299 299Q377 299 414 327T452 419V431Z"  />
<glyph unicode="&#xDF;" horiz-adv-x="624" d="M570 221Q570 161 551 118T498 47T421 6T329 -8Q317 -8 303 -7T273 -3Q265 -1 259 3T253 16V90Q253 105 270 105Q304 105 334 108T386 122T422 157T436 221V240Q436 285 406 314T309 343H277Q269 343 263 348T257 361V423Q257 431 263 436T277 441H309Q341 441 363 449T399 470T419 501T425 538V555Q425 598 400 625T314 653Q275 653 252 642T216 611T199 567T194 516V21Q194 13 189 7T175 0H80Q72 0 66 6T60 21V515Q60 645 126 706T314 768Q366 768 411 757T488 720T538 654T557 555V538Q557 493 531 455T464 396Q512 376 541 336T570 240V221H570Z"  />
<glyph unicode="&#xE0;" horiz-adv-x="548" d="M483 20Q483 12 477 6T463 0H378Q370 0 364 6T358 20V36Q323 15 288 4T217 -8Q186 -8 155 -1T100 25T60 76T44 159V163Q44 206 57 238T100 292T176 325T288 336H351V380Q351 429 330 445T263 461Q215 461 170 459T100 453H95Q87 453 82 456T77 470V534Q77 551 96 555Q126 561 168 566T263 571Q370 571 426 524T483 380V20ZM351 248H288Q254 248 233 243T199 227T182 200T177 163V159Q177 122 194 110T249 97Q276 97 302 105T351 125V248ZM351 634Q351 627 342 627H256Q247 627 243 630T233 640L114 764Q110 768 110 772Q110 779 121 779H227Q237 779 241 776T253 764L347 644Q351 640 351 634Z"  />
<glyph unicode="&#xE1;" horiz-adv-x="548" d="M483 20Q483 12 477 6T463 0H378Q370 0 364 6T358 20V36Q323 15 288 4T217 -8Q186 -8 155 -1T100 25T60 76T44 159V163Q44 206 57 238T100 292T176 325T288 336H351V380Q351 429 330 445T263 461Q215 461 170 459T100 453H95Q87 453 82 456T77 470V534Q77 551 96 555Q126 561 168 566T263 571Q370 571 426 524T483 380V20ZM351 248H288Q254 248 233 243T199 227T182 200T177 163V159Q177 122 194 110T249 97Q276 97 302 105T351 125V248ZM439 772Q439 768 435 764L317 640Q311 633 307 630T293 627H207Q198 627 198 634Q198 640 202 644L297 764Q304 772 308 775T323 779H428Q439 779 439 772Z"  />
<glyph unicode="&#xE2;" horiz-adv-x="548" d="M483 20Q483 12 477 6T463 0H378Q370 0 364 6T358 20V36Q323 15 288 4T217 -8Q186 -8 155 -1T100 25T60 76T44 159V163Q44 206 57 238T100 292T176 325T288 336H351V380Q351 429 330 445T263 461Q215 461 170 459T100 453H95Q87 453 82 456T77 470V534Q77 551 96 555Q126 561 168 566T263 571Q370 571 426 524T483 380V20ZM351 248H288Q254 248 233 243T199 227T182 200T177 163V159Q177 122 194 110T249 97Q276 97 302 105T351 125V248ZM463 634Q463 627 454 627H371Q362 627 358 630T348 640L277 721L206 640Q200 633 196 630T182 627H99Q90 627 90 634Q90 640 94 644L186 764Q193 772 197 775T212 779H342Q352 779 356 776T368 764L459 644Q463 640 463 634Z"  />
<glyph unicode="&#xE3;" horiz-adv-x="548" d="M483 20Q483 12 477 6T463 0H378Q370 0 364 6T358 20V36Q323 15 288 4T217 -8Q186 -8 155 -1T100 25T60 76T44 159V163Q44 206 57 238T100 292T176 325T288 336H351V380Q351 429 330 445T263 461Q215 461 170 459T100 453H95Q87 453 82 456T77 470V534Q77 551 96 555Q126 561 168 566T263 571Q370 571 426 524T483 380V20ZM351 248H288Q254 248 233 243T199 227T182 200T177 163V159Q177 122 194 110T249 97Q276 97 302 105T351 125V248ZM467 739Q467 678 438 653T356 627Q339 627 320 633T286 650L242 683Q229 693 219 698T200 704Q188 704 180 697T172 670V649Q172 633 158 633H101Q87 633 87 649V670Q87 730 117 756T199 782Q216 782 234 777T268 760L312 727Q338 707 354 707Q367 707 374 713T382 740V761Q382 777 396 777H453Q467 777 467 761V739H467Z"  />
<glyph unicode="&#xE4;" horiz-adv-x="548" d="M483 20Q483 12 477 6T463 0H378Q370 0 364 6T358 20V36Q323 15 288 4T217 -8Q186 -8 155 -1T100 25T60 76T44 159V163Q44 206 57 238T100 292T176 325T288 336H351V380Q351 429 330 445T263 461Q215 461 170 459T100 453H95Q87 453 82 456T77 470V534Q77 551 96 555Q126 561 168 566T263 571Q370 571 426 524T483 380V20ZM351 248H288Q254 248 233 243T199 227T182 200T177 163V159Q177 122 194 110T249 97Q276 97 302 105T351 125V248ZM433 662Q433 654 427 648T412 642H340Q332 642 326 648T319 662V750Q319 758 325 764T340 770H412Q420 770 426 764T433 750V662ZM233 662Q233 654 227 648T212 642H140Q132 642 126 648T119 662V750Q119 758 125 764T140 770H212Q220 770 226 764T233 750V662Z"  />
<glyph unicode="&#xE5;" horiz-adv-x="548" d="M483 20Q483 12 477 6T463 0H378Q370 0 364 6T358 20V36Q323 15 288 4T217 -8Q186 -8 155 -1T100 25T60 76T44 159V163Q44 206 57 238T100 292T176 325T288 336H351V380Q351 429 330 445T263 461Q215 461 170 459T100 453H95Q87 453 82 456T77 470V534Q77 551 96 555Q126 561 168 566T263 571Q370 571 426 524T483 380V20ZM351 248H288Q254 248 233 243T199 227T182 200T177 163V159Q177 122 194 110T249 97Q276 97 302 105T351 125V248ZM385 731Q385 708 377 688T353 653T318 630T275 621Q252 621 232 629T197 653T173 688T164 731Q164 754 173 774T197 809T232 833T275 842Q298 842 318 833T353 809T376 774T385 731ZM323 732Q323 752 309 765T275 779Q255 779 242 766T229 732Q229 712 242 698T275 684Q295 684 309 698T323 732Z"  />
<glyph unicode="&#xE6;" horiz-adv-x="870" d="M819 268Q819 260 813 254T798 248H484V207Q484 150 516 127T615 103Q628 103 650 104T696 106T742 108T780 112H781H784Q801 112 801 96V40Q801 29 797 24T782 16Q762 10 738 6T689 -2T640 -6T594 -8Q545 -8 504 5T436 46Q398 18 350 5T252 -8Q209 -8 172 2T106 33T62 87T46 168V179Q46 265 110 300T301 336H352V363Q352 419 329 439T260 460Q237 460 214 460T169 458T131 456T103 454H102H100Q83 454 83 471V531Q83 549 103 554Q130 560 172 565T260 571Q318 571 360 554T428 505Q456 536 495 553T589 571Q650 571 693 553T765 504T806 429T819 334V268ZM691 358Q691 380 686 400T668 435T636 459T588 468Q561 468 541 459T509 435T490 400T484 358V324H691V358ZM356 261H301Q233 261 203 243T173 179V168Q173 123 197 109T262 95Q286 95 310 98T356 109V261Z"  />
<glyph unicode="&#xE7;" horiz-adv-x="468" d="M423 31Q423 19 419 14T402 5Q385 0 352 -4T273 -8Q224 -8 183 7T111 52T63 128T45 235V328Q45 389 62 434T110 510T182 556T273 571Q319 571 352 567T402 558Q415 555 419 550T423 532V467Q423 459 418 456T405 452H402Q387 454 374 455T347 457T315 458T273 459Q255 459 238 453T208 433T186 393T177 328V235Q177 196 185 171T207 131T238 110T273 104Q297 104 315 104T347 105T374 107T402 111H405Q413 111 418 108T423 96V31ZM336 -41Q336 -45 332 -49L213 -172Q207 -179 203 -182T190 -186H104Q95 -186 95 -179Q95 -173 99 -169L193 -49Q200 -41 204 -38T219 -34H325Q336 -34 336 -41Z"  />
<glyph unicode="&#xE8;" horiz-adv-x="574" d="M526 261Q526 236 506 236H180V233Q180 211 185 189T203 148T240 118T300 106Q355 106 403 109T484 116H487Q495 116 500 113T505 101V35Q505 23 502 17T484 9Q460 4 439 1T397 -4T350 -7T290 -8Q252 -8 210 3T131 43T72 120T48 243V317Q48 375 64 422T110 502T186 553T288 571Q346 571 390 553T465 500T510 420T526 317V261ZM393 334Q393 393 364 425T288 457Q241 457 211 426T181 334V330H393V334ZM352 634Q352 627 343 627H257Q248 627 244 630T234 640L115 764Q111 768 111 772Q111 779 122 779H228Q238 779 242 776T254 764L348 644Q352 640 352 634Z"  />
<glyph unicode="&#xE9;" horiz-adv-x="574" d="M526 261Q526 236 506 236H180V233Q180 211 185 189T203 148T240 118T300 106Q355 106 403 109T484 116H487Q495 116 500 113T505 101V35Q505 23 502 17T484 9Q460 4 439 1T397 -4T350 -7T290 -8Q252 -8 210 3T131 43T72 120T48 243V317Q48 375 64 422T110 502T186 553T288 571Q346 571 390 553T465 500T510 420T526 317V261ZM393 334Q393 393 364 425T288 457Q241 457 211 426T181 334V330H393V334ZM456 772Q456 768 452 764L334 640Q328 633 324 630T310 627H224Q215 627 215 634Q215 640 219 644L314 764Q321 772 325 775T340 779H445Q456 779 456 772Z"  />
<glyph unicode="&#xEA;" horiz-adv-x="574" d="M526 261Q526 236 506 236H180V233Q180 211 185 189T203 148T240 118T300 106Q355 106 403 109T484 116H487Q495 116 500 113T505 101V35Q505 23 502 17T484 9Q460 4 439 1T397 -4T350 -7T290 -8Q252 -8 210 3T131 43T72 120T48 243V317Q48 375 64 422T110 502T186 553T288 571Q346 571 390 553T465 500T510 420T526 317V261ZM393 334Q393 393 364 425T288 457Q241 457 211 426T181 334V330H393V334ZM473 634Q473 627 464 627H381Q372 627 368 630T358 640L287 721L216 640Q210 633 206 630T192 627H109Q100 627 100 634Q100 640 104 644L196 764Q203 772 207 775T222 779H352Q362 779 366 776T378 764L469 644Q473 640 473 634Z"  />
<glyph unicode="&#xEB;" horiz-adv-x="574" d="M526 261Q526 236 506 236H180V233Q180 211 185 189T203 148T240 118T300 106Q355 106 403 109T484 116H487Q495 116 500 113T505 101V35Q505 23 502 17T484 9Q460 4 439 1T397 -4T350 -7T290 -8Q252 -8 210 3T131 43T72 120T48 243V317Q48 375 64 422T110 502T186 553T288 571Q346 571 390 553T465 500T510 420T526 317V261ZM393 334Q393 393 364 425T288 457Q241 457 211 426T181 334V330H393V334ZM443 659Q443 651 437 645T422 639H350Q342 639 336 645T329 659V747Q329 755 335 761T350 767H422Q430 767 436 761T443 747V659ZM243 659Q243 651 237 645T222 639H150Q142 639 136 645T129 659V747Q129 755 135 761T150 767H222Q230 767 236 761T243 747V659Z"  />
<glyph unicode="&#xEC;" horiz-adv-x="268" d="M200 21Q200 13 194 7T180 0H88Q80 0 74 6T68 21V544Q68 552 74 558T88 564H180Q188 564 194 558T200 544V21H200ZM213 634Q213 627 204 627H118Q109 627 105 630T95 640L-24 764Q-28 768 -28 772Q-28 779 -17 779H89Q99 779 103 776T115 764L209 644Q213 640 213 634Z"  />
<glyph unicode="&#xED;" horiz-adv-x="268" d="M200 21Q200 13 194 7T180 0H88Q80 0 74 6T68 21V544Q68 552 74 558T88 564H180Q188 564 194 558T200 544V21H200ZM303 772Q303 768 299 764L181 640Q175 633 171 630T157 627H71Q62 627 62 634Q62 640 66 644L161 764Q168 772 172 775T187 779H292Q303 779 303 772Z"  />
<glyph unicode="&#xEE;" horiz-adv-x="268" d="M200 21Q200 13 194 7T180 0H88Q80 0 74 6T68 21V544Q68 552 74 558T88 564H180Q188 564 194 558T200 544V21H200ZM322 634Q322 627 313 627H230Q221 627 217 630T207 640L136 721L65 640Q59 633 55 630T41 627H-42Q-51 627 -51 634Q-51 640 -47 644L45 764Q52 772 56 775T71 779H201Q211 779 215 776T227 764L318 644Q322 640 322 634Z"  />
<glyph unicode="&#xEF;" horiz-adv-x="268" d="M200 21Q200 13 194 7T180 0H88Q80 0 74 6T68 21V544Q68 552 74 558T88 564H180Q188 564 194 558T200 544V21H200ZM292 659Q292 651 286 645T271 639H199Q191 639 185 645T178 659V747Q178 755 184 761T199 767H271Q279 767 285 761T292 747V659ZM92 659Q92 651 86 645T71 639H-1Q-9 639 -15 645T-22 659V747Q-22 755 -16 761T-1 767H71Q79 767 85 761T92 747V659Z"  />
<glyph unicode="&#xF0;" horiz-adv-x="574" d="M526 253Q526 123 465 58T288 -8Q225 -8 180 10T106 62T62 144T48 253V293Q48 422 109 487T287 553Q304 553 323 551T360 539Q344 564 311 589T235 636L159 578Q151 572 146 572Q141 572 135 578L106 610Q103 613 103 618Q103 627 113 634L158 668Q132 677 107 683Q101 685 96 688T91 698Q91 701 92 703L113 761Q117 772 127 772Q132 772 135 771Q165 763 193 755T247 736L332 801Q337 805 345 805Q353 805 357 800L386 769Q390 765 390 761Q390 755 380 747L321 702Q376 671 415 633T479 545T515 433T526 293V253ZM393 293Q393 368 369 405T287 442Q230 442 206 406T181 293V253Q181 178 206 141T288 104Q345 104 369 140T393 253V293Z"  />
<glyph unicode="&#xF1;" horiz-adv-x="592" d="M527 21Q527 13 521 7T507 0H415Q407 0 401 6T395 21V347Q395 380 393 401T382 435T356 453T310 459Q284 459 257 450T197 423V21Q197 13 191 7T177 0H85Q77 0 71 6T65 21V544Q65 552 71 558T85 564H172Q180 564 186 558T192 544V523Q214 537 232 546T270 560T309 568T354 571Q408 571 442 554T494 507T520 436T527 347V21H527ZM482 739Q482 678 453 653T371 627Q354 627 335 633T301 650L257 683Q244 693 234 698T215 704Q203 704 195 697T187 670V649Q187 633 173 633H116Q102 633 102 649V670Q102 730 132 756T214 782Q231 782 249 777T283 760L327 727Q353 707 369 707Q382 707 389 713T397 740V761Q397 777 411 777H468Q482 777 482 761V739H482Z"  />
<glyph unicode="&#xF2;" horiz-adv-x="574" d="M526 241Q526 187 511 142T465 63T391 11T287 -8Q228 -8 184 11T109 63T64 141T48 241V322Q48 376 63 421T109 500T183 552T287 571Q346 571 390 552T465 500T510 422T526 322V241ZM394 322Q394 384 367 420T287 457Q234 457 207 421T180 322V241Q180 179 207 143T287 106Q340 106 367 142T394 241V322ZM368 634Q368 627 359 627H273Q264 627 260 630T250 640L131 764Q127 768 127 772Q127 779 138 779H244Q254 779 258 776T270 764L364 644Q368 640 368 634Z"  />
<glyph unicode="&#xF3;" horiz-adv-x="574" d="M526 241Q526 187 511 142T465 63T391 11T287 -8Q228 -8 184 11T109 63T64 141T48 241V322Q48 376 63 421T109 500T183 552T287 571Q346 571 390 552T465 500T510 422T526 322V241ZM394 322Q394 384 367 420T287 457Q234 457 207 421T180 322V241Q180 179 207 143T287 106Q340 106 367 142T394 241V322ZM441 772Q441 768 437 764L319 640Q313 633 309 630T295 627H209Q200 627 200 634Q200 640 204 644L299 764Q306 772 310 775T325 779H430Q441 779 441 772Z"  />
<glyph unicode="&#xF4;" horiz-adv-x="574" d="M526 241Q526 187 511 142T465 63T391 11T287 -8Q228 -8 184 11T109 63T64 141T48 241V322Q48 376 63 421T109 500T183 552T287 571Q346 571 390 552T465 500T510 422T526 322V241ZM394 322Q394 384 367 420T287 457Q234 457 207 421T180 322V241Q180 179 207 143T287 106Q340 106 367 142T394 241V322ZM472 634Q472 627 463 627H380Q371 627 367 630T357 640L286 721L215 640Q209 633 205 630T191 627H108Q99 627 99 634Q99 640 103 644L195 764Q202 772 206 775T221 779H351Q361 779 365 776T377 764L468 644Q472 640 472 634Z"  />
<glyph unicode="&#xF5;" horiz-adv-x="574" d="M526 241Q526 187 511 142T465 63T391 11T287 -8Q228 -8 184 11T109 63T64 141T48 241V322Q48 376 63 421T109 500T183 552T287 571Q346 571 390 552T465 500T510 422T526 322V241ZM394 322Q394 384 367 420T287 457Q234 457 207 421T180 322V241Q180 179 207 143T287 106Q340 106 367 142T394 241V322ZM474 739Q474 678 445 653T363 627Q346 627 327 633T293 650L249 683Q236 693 226 698T207 704Q195 704 187 697T179 670V649Q179 633 165 633H108Q94 633 94 649V670Q94 730 124 756T206 782Q223 782 241 777T275 760L319 727Q345 707 361 707Q374 707 381 713T389 740V761Q389 777 403 777H460Q474 777 474 761V739H474Z"  />
<glyph unicode="&#xF6;" horiz-adv-x="574" d="M526 241Q526 187 511 142T465 63T391 11T287 -8Q228 -8 184 11T109 63T64 141T48 241V322Q48 376 63 421T109 500T183 552T287 571Q346 571 390 552T465 500T510 422T526 322V241ZM394 322Q394 384 367 420T287 457Q234 457 207 421T180 322V241Q180 179 207 143T287 106Q340 106 367 142T394 241V322ZM442 659Q442 651 436 645T421 639H349Q341 639 335 645T328 659V747Q328 755 334 761T349 767H421Q429 767 435 761T442 747V659ZM242 659Q242 651 236 645T221 639H149Q141 639 135 645T128 659V747Q128 755 134 761T149 767H221Q229 767 235 761T242 747V659Z"  />
<glyph unicode="&#xF7;" horiz-adv-x="630" d="M380 542Q380 534 374 528T360 522H270Q262 522 256 528T250 542V645Q250 653 256 658T270 664H360Q368 664 374 659T380 645V542ZM538 356Q538 348 532 344T518 340H113Q105 340 99 344T93 356V426Q93 434 99 438T113 442H518Q526 442 532 438T538 426V356ZM380 127Q380 119 374 114T360 108H270Q262 108 256 113T250 127V230Q250 238 256 244T270 250H360Q368 250 374 244T380 230V127Z"  />
<glyph unicode="&#xF8;" horiz-adv-x="574" d="M545 589Q545 583 541 578L476 488Q501 456 513 414T526 322V241Q526 187 511 142T465 63T391 11T287 -8Q244 -8 210 2T147 30L107 -25Q102 -32 99 -33T91 -35H35Q27 -35 27 -27Q27 -21 31 -16L97 76Q72 108 60 150T48 241V322Q48 376 63 421T109 500T183 552T287 571Q329 571 363 561T426 533L465 587Q470 594 473 595T481 597H537Q545 597 545 589ZM354 433Q327 457 287 457Q234 457 207 421T180 322V241Q180 216 184 197L354 433ZM394 322Q394 334 393 345T390 368L219 130Q244 106 287 106Q340 106 367 142T394 241V322Z"  />
<glyph unicode="&#xF9;" horiz-adv-x="592" d="M527 20Q527 12 521 6T507 0H415Q407 0 401 6T395 20V43Q356 17 321 5T238 -7Q200 -7 169 3T115 35Q87 63 76 108T65 217V543Q65 551 71 557T85 564H177Q185 564 191 558T197 543V217Q197 179 201 157T220 121Q231 112 245 108T282 103Q296 103 311 107T342 117T370 130T395 143V543Q395 551 401 557T415 564H507Q515 564 521 558T527 543V20H527ZM380 634Q380 627 371 627H285Q276 627 272 630T262 640L143 764Q139 768 139 772Q139 779 150 779H256Q266 779 270 776T282 764L376 644Q380 640 380 634Z"  />
<glyph unicode="&#xFA;" horiz-adv-x="592" d="M527 20Q527 12 521 6T507 0H415Q407 0 401 6T395 20V43Q356 17 321 5T238 -7Q200 -7 169 3T115 35Q87 63 76 108T65 217V543Q65 551 71 557T85 564H177Q185 564 191 558T197 543V217Q197 179 201 157T220 121Q231 112 245 108T282 103Q296 103 311 107T342 117T370 130T395 143V543Q395 551 401 557T415 564H507Q515 564 521 558T527 543V20H527ZM463 772Q463 768 459 764L341 640Q335 633 331 630T317 627H231Q222 627 222 634Q222 640 226 644L321 764Q328 772 332 775T347 779H452Q463 779 463 772Z"  />
<glyph unicode="&#xFB;" horiz-adv-x="592" d="M527 20Q527 12 521 6T507 0H415Q407 0 401 6T395 20V43Q356 17 321 5T238 -7Q200 -7 169 3T115 35Q87 63 76 108T65 217V543Q65 551 71 557T85 564H177Q185 564 191 558T197 543V217Q197 179 201 157T220 121Q231 112 245 108T282 103Q296 103 311 107T342 117T370 130T395 143V543Q395 551 401 557T415 564H507Q515 564 521 558T527 543V20H527ZM481 634Q481 627 472 627H389Q380 627 376 630T366 640L295 721L224 640Q218 633 214 630T200 627H117Q108 627 108 634Q108 640 112 644L204 764Q211 772 215 775T230 779H360Q370 779 374 776T386 764L477 644Q481 640 481 634Z"  />
<glyph unicode="&#xFC;" horiz-adv-x="592" d="M527 20Q527 12 521 6T507 0H415Q407 0 401 6T395 20V43Q356 17 321 5T238 -7Q200 -7 169 3T115 35Q87 63 76 108T65 217V543Q65 551 71 557T85 564H177Q185 564 191 558T197 543V217Q197 179 201 157T220 121Q231 112 245 108T282 103Q296 103 311 107T342 117T370 130T395 143V543Q395 551 401 557T415 564H507Q515 564 521 558T527 543V20H527ZM458 659Q458 651 452 645T437 639H365Q357 639 351 645T344 659V747Q344 755 350 761T365 767H437Q445 767 451 761T458 747V659ZM258 659Q258 651 252 645T237 639H165Q157 639 151 645T144 659V747Q144 755 150 761T165 767H237Q245 767 251 761T258 747V659Z"  />
<glyph unicode="&#xFD;" horiz-adv-x="560" d="M535 547Q535 543 534 541L367 -43Q355 -84 341 -113T305 -162T248 -191T163 -200Q151 -200 136 -199T107 -196T79 -192T57 -187Q49 -185 43 -182T36 -170V-106Q36 -98 42 -93T56 -88H58Q68 -88 83 -89T114 -91T145 -93T171 -94Q203 -94 221 -82T250 -30L258 0H243Q232 0 220 2T197 13T175 37T156 83L25 541Q24 544 24 548Q24 564 43 564H144Q151 564 156 559T163 546L264 139Q267 126 270 122T278 117H279H284H287L395 547Q397 554 402 559T415 564H517Q525 564 530 559T535 547ZM471 772Q471 768 467 764L349 640Q343 633 339 630T325 627H239Q230 627 230 634Q230 640 234 644L329 764Q336 772 340 775T355 779H460Q471 779 471 772Z"  />
<glyph unicode="&#xFE;" horiz-adv-x="577" d="M532 245Q532 128 474 60T297 -8Q288 -8 275 -8T248 -6T221 -4T197 0V-178Q197 -186 192 -192T179 -198H85Q77 -198 71 -192T65 -178V741Q65 749 70 755T84 761H179Q187 761 192 755T197 741V564Q220 567 246 569T297 571Q412 571 472 505T532 317V245ZM400 317Q400 361 392 389T369 433T331 456T282 463Q263 463 242 461T197 455V108Q220 104 243 102T285 100Q312 100 333 106T370 129T392 174T400 245V317Z"  />
<glyph unicode="&#xFF;" horiz-adv-x="560" d="M535 547Q535 543 534 541L367 -43Q355 -84 341 -113T305 -162T248 -191T163 -200Q151 -200 136 -199T107 -196T79 -192T57 -187Q49 -185 43 -182T36 -170V-106Q36 -98 42 -93T56 -88H58Q68 -88 83 -89T114 -91T145 -93T171 -94Q203 -94 221 -82T250 -30L258 0H243Q232 0 220 2T197 13T175 37T156 83L25 541Q24 544 24 548Q24 564 43 564H144Q151 564 156 559T163 546L264 139Q267 126 270 122T278 117H279H284H287L395 547Q397 554 402 559T415 564H517Q525 564 530 559T535 547ZM443 659Q443 651 437 645T422 639H350Q342 639 336 645T329 659V747Q329 755 335 761T350 767H422Q430 767 436 761T443 747V659ZM243 659Q243 651 237 645T222 639H150Q142 639 136 645T129 659V747Q129 755 135 761T150 767H222Q230 767 236 761T243 747V659Z"  />
<glyph unicode="&#x131;" horiz-adv-x="268" d="M200 21Q200 13 194 7T180 0H88Q80 0 74 6T68 21V544Q68 552 74 558T88 564H180Q188 564 194 558T200 544V21H200Z"  />
<glyph unicode="&#x152;" horiz-adv-x="990" d="M930 27Q930 16 926 12T910 6Q898 4 884 2T848 -3T796 -6T720 -8Q661 -8 613 4T533 56Q495 20 449 6T345 -8Q283 -8 231 10T141 65T82 162T60 304V439Q60 521 81 580T141 677T231 733T345 751Q402 751 448 737T533 687Q560 724 610 737T720 751Q765 751 795 750T847 746T883 742T910 737Q921 735 925 731T930 716V652Q930 644 924 638T910 632H706Q662 632 645 614T627 546V438H898Q906 438 912 432T918 418V346Q918 338 912 332T898 326H627V197Q627 147 644 129T706 111H910Q918 111 924 105T930 91V27ZM489 463Q489 550 452 590T345 630Q271 630 236 585T200 439V304Q200 204 235 159T345 113Q414 113 451 153T489 280V463Z"  />
<glyph unicode="&#x153;" horiz-adv-x="926" d="M876 261Q876 236 856 236H528V230V226Q529 204 535 182T554 141T588 112T640 101Q695 101 748 104T834 111H837Q845 111 850 108T855 96V35Q855 23 852 17T834 9Q810 4 789 1T747 -4T700 -7T640 -8Q595 -8 547 7T463 64Q433 29 390 11T289 -8Q230 -8 186 11T111 63T66 141T50 241V322Q50 376 65 421T111 500T185 552T289 571Q347 571 391 552T464 497Q527 571 638 571Q696 571 740 551T815 497T860 416T876 317V261ZM745 334Q745 400 715 430T638 460Q616 460 596 453T561 432T537 396T528 344V338V330H745V334ZM396 322Q396 384 369 420T289 457Q236 457 209 421T182 322V241Q182 179 209 143T289 106Q342 106 369 142T396 241V322Z"  />
<glyph unicode="&#x160;" horiz-adv-x="570" d="M525 201Q525 163 512 126T469 59T388 11T262 -8Q205 -8 163 -3T85 10Q77 12 72 17T66 30V102Q66 110 71 115T85 121H87Q102 119 126 118T177 115T226 112T264 111Q331 111 355 134T380 201Q380 216 376 227T362 250T336 272T295 299L163 378Q128 399 106 420T70 463T51 510T45 561Q45 602 58 637T100 697T177 737T295 751Q320 751 348 750T403 745T452 739T487 733Q495 731 500 727T505 714V640Q505 632 501 627T488 622H486Q436 627 387 629T289 632Q233 632 209 614T184 561Q184 549 187 539T200 518T226 496T266 472L386 405Q427 382 454 359T496 310T518 258T525 201ZM467 940Q467 934 463 930L369 810Q362 802 358 799T343 795H213Q203 795 199 798T187 810L92 930Q88 934 88 940Q88 947 97 947H183Q192 947 196 944T207 933L278 854L349 933Q355 940 359 943T372 947H458Q467 947 467 940Z"  />
<glyph unicode="&#x161;" horiz-adv-x="489" d="M444 148Q444 115 432 87T396 37T334 4T248 -8Q233 -8 212 -7T165 -4T115 2T69 12Q50 17 50 35V95Q50 101 54 106T67 111H71Q89 109 113 107T162 104T207 101T239 100Q262 100 276 103T297 113T307 129T310 148Q310 162 300 173T266 199L129 283Q92 306 69 341T45 421Q45 571 235 571Q265 571 289 570T335 565T375 559T413 551Q431 546 431 528V470Q431 451 415 451H411Q400 452 381 454T339 458T292 461T246 463Q210 463 194 454T177 421Q177 409 187 400T217 380L348 300Q379 281 398 262T427 224T441 186T444 148ZM433 772Q433 766 429 762L335 642Q328 634 324 631T309 627H179Q169 627 165 630T153 642L58 762Q54 766 54 772Q54 779 63 779H149Q158 779 162 776T173 765L244 686L315 765Q321 772 325 775T338 779H424Q433 779 433 772Z"  />
<glyph unicode="&#x178;" horiz-adv-x="615" d="M590 728Q590 726 588 720L436 373Q422 340 407 324T375 300V20Q375 12 370 6T356 0H256Q248 0 243 6T237 20V300Q220 307 205 323T176 373L25 720Q23 726 23 728Q23 734 27 738T39 743H150Q157 743 162 738T169 727L289 429Q294 416 298 413T306 409Q310 409 314 412T324 429L444 727Q446 733 451 738T463 743H573Q581 743 585 739T590 728ZM469 819Q469 811 463 805T448 799H376Q368 799 362 805T355 819V907Q355 915 361 921T376 927H448Q456 927 462 921T469 907V819ZM269 819Q269 811 263 805T248 799H176Q168 799 162 805T155 819V907Q155 915 161 921T176 927H248Q256 927 262 921T269 907V819Z"  />
<glyph unicode="&#x17D;" horiz-adv-x="588" d="M548 20Q548 12 542 6T528 0H91Q69 0 55 8T40 37V92Q40 101 42 110T53 130L370 605Q373 609 373 614Q373 622 363 622H85Q66 622 66 640V724Q66 743 85 743H488Q510 743 525 734T541 705V647Q541 636 537 626T527 606L215 139Q211 134 211 128Q211 122 220 122H528Q536 122 542 117T548 104V20H548ZM499 939Q499 933 495 929L401 809Q394 801 390 798T375 794H245Q235 794 231 797T219 809L124 929Q120 933 120 939Q120 946 129 946H215Q224 946 228 943T239 932L310 853L381 932Q387 939 391 942T404 946H490Q499 946 499 939Z"  />
<glyph unicode="&#x17E;" horiz-adv-x="490" d="M450 20Q450 12 444 6T430 0H80Q63 0 52 11T40 40V83Q40 98 53 115L295 448Q298 452 298 454Q298 457 292 457H66Q58 457 53 461T48 473V544Q48 552 54 558T68 564H408Q425 564 436 552T448 523V466Q448 462 447 454T443 443L210 124L208 121Q208 117 214 117H432Q440 117 445 113T450 101V20H450ZM449 772Q449 766 445 762L351 642Q344 634 340 631T325 627H195Q185 627 181 630T169 642L74 762Q70 766 70 772Q70 779 79 779H165Q174 779 178 776T189 765L260 686L331 765Q337 772 341 775T354 779H440Q449 779 449 772Z"  />
<glyph unicode="&#x192;" horiz-adv-x="630" d="M587 749L579 691Q577 674 555 674H494Q457 674 444 662T425 617L401 444H539Q556 444 556 428V425L547 360Q545 352 539 346T524 340H387L339 3Q333 -42 316 -72T273 -121T216 -147T148 -155Q119 -155 97 -153T61 -148Q50 -146 47 -143T43 -133V-130L51 -72Q53 -55 75 -55H136Q173 -55 186 -43T205 2L253 340H126Q118 340 113 345T108 357V360L117 425Q119 433 125 438T140 444H267L291 617Q297 663 314 693T357 741T414 766T482 774Q511 774 533 772T569 767Q580 765 583 762T587 752V749Z"  />
<glyph unicode="&#x2C6;" horiz-adv-x="415" d="M394 634Q394 627 385 627H302Q293 627 289 630T279 640L208 721L137 640Q131 633 127 630T113 627H30Q21 627 21 634Q21 640 25 644L117 764Q124 772 128 775T143 779H273Q283 779 287 776T299 764L390 644Q394 640 394 634Z"  />
<glyph unicode="&#x2DC;" horiz-adv-x="496" d="M433 739Q433 678 404 653T322 627Q305 627 286 633T252 650L208 683Q195 693 185 698T166 704Q154 704 146 697T138 670V649Q138 633 124 633H67Q53 633 53 649V670Q53 730 83 756T165 782Q182 782 200 777T234 760L278 727Q304 707 320 707Q333 707 340 713T348 740V761Q348 777 362 777H419Q433 777 433 761V739H433Z"  />
<glyph unicode="&#x2013;" horiz-adv-x="309" d="M324 256Q324 238 305 238H4Q-15 238 -15 256V319Q-15 338 4 338H305Q324 338 324 319V256H324Z"  />
<glyph unicode="&#x2014;" horiz-adv-x="599" d="M614 256Q614 238 595 238H4Q-15 238 -15 256V319Q-15 338 4 338H595Q614 338 614 319V256H614Z"  />
<glyph unicode="&#x2018;" horiz-adv-x="215" d="M196 751Q196 745 195 742L144 535Q140 516 124 516H30Q19 516 19 527Q19 532 20 535L88 742Q93 761 107 761H187Q196 761 196 751Z"  />
<glyph unicode="&#x2019;" horiz-adv-x="215" d="M196 750Q196 745 195 742L127 535Q122 516 108 516H28Q19 516 19 526Q19 532 20 535L71 742Q75 761 91 761H185Q196 761 196 750Z"  />
<glyph unicode="&#x201A;" horiz-adv-x="215" d="M203 140Q203 139 201 133L114 -77Q110 -86 107 -91T95 -97H26Q11 -97 11 -83Q11 -79 12 -77L73 133Q79 152 93 152H189Q203 152 203 140Z"  />
<glyph unicode="&#x201C;" horiz-adv-x="416" d="M397 751Q397 745 396 742L345 535Q341 516 325 516H231Q220 516 220 527Q220 532 221 535L289 742Q294 761 308 761H388Q397 761 397 751ZM196 751Q196 745 195 742L144 535Q140 516 124 516H30Q19 516 19 527Q19 532 20 535L88 742Q93 761 107 761H187Q196 761 196 751Z"  />
<glyph unicode="&#x201D;" horiz-adv-x="416" d="M397 750Q397 745 396 742L328 535Q323 516 309 516H229Q220 516 220 526Q220 532 221 535L272 742Q276 761 292 761H386Q397 761 397 750ZM196 750Q196 745 195 742L127 535Q122 516 108 516H28Q19 516 19 526Q19 532 20 535L71 742Q75 761 91 761H185Q196 761 196 750Z"  />
<glyph unicode="&#x201E;" horiz-adv-x="416" d="M413 140Q413 139 411 133L324 -77Q320 -86 317 -91T305 -97H236Q221 -97 221 -83Q221 -79 222 -77L283 133Q289 152 303 152H399Q413 152 413 140ZM203 140Q203 139 201 133L114 -77Q110 -86 107 -91T95 -97H26Q11 -97 11 -83Q11 -79 12 -77L73 133Q79 152 93 152H189Q203 152 203 140Z"  />
<glyph unicode="&#x2020;" horiz-adv-x="425" d="M393 477Q393 461 374 461H275V14Q275 6 271 0T259 -6H157Q149 -6 145 0T141 14V461H52Q33 461 33 477V557Q33 572 52 572H141V742Q141 750 145 755T158 761H259Q267 761 271 756T275 742V572H374Q393 572 393 557V477H393Z"  />
<glyph unicode="&#x2021;" horiz-adv-x="425" d="M393 267Q393 251 374 251H275V14Q275 6 271 0T259 -6H157Q149 -6 145 0T141 14V251H52Q33 251 33 267V347Q33 362 52 362H141V461H52Q33 461 33 477V557Q33 572 52 572H141V742Q141 750 145 755T158 761H259Q267 761 271 756T275 742V572H374Q393 572 393 557V477Q393 461 374 461H275V362H374Q393 362 393 347V267H393Z"  />
<glyph unicode="&#x2022;" horiz-adv-x="418" d="M373 367Q373 333 360 303T325 251T273 216T209 203Q175 203 145 216T93 251T58 303T45 367Q45 401 58 431T93 483T145 518T209 531Q243 531 273 518T325 483T360 431T373 367Z"  />
<glyph unicode="&#x2026;" horiz-adv-x="703" d="M650 20Q650 12 644 6T630 0H540Q532 0 526 6T520 20V133Q520 141 526 146T540 152H630Q638 152 644 147T650 133V20ZM417 20Q417 12 411 6T397 0H307Q299 0 293 6T287 20V133Q287 141 293 146T307 152H397Q405 152 411 147T417 133V20ZM184 20Q184 12 178 6T164 0H74Q66 0 60 6T54 20V133Q54 141 60 146T74 152H164Q172 152 178 147T184 133V20Z"  />
<glyph unicode="&#x2030;" horiz-adv-x="1162" d="M1122 162Q1122 76 1085 35T980 -6Q912 -6 875 35T837 162V244Q837 330 874 371T980 412Q1048 412 1085 371T1122 244V162ZM772 162Q772 76 735 35T630 -6Q562 -6 525 35T487 162V244Q487 330 524 371T630 412Q698 412 735 371T772 244V162ZM674 735Q674 730 670 723L253 18Q247 7 243 2T230 -3H146Q136 -3 136 6Q136 13 140 18L557 723Q564 734 568 738T581 743H665Q674 743 674 735ZM325 499Q325 413 288 372T183 331Q115 331 78 372T40 499V581Q40 667 77 707T183 748Q251 748 288 708T325 581V499ZM1037 244Q1037 297 1022 317T980 337Q953 337 938 317T922 244V162Q922 109 937 89T980 69Q1007 69 1022 89T1037 162V244ZM687 244Q687 297 672 317T630 337Q603 337 588 317T572 244V162Q572 109 587 89T630 69Q657 69 672 89T687 162V244ZM240 581Q240 634 225 654T183 674Q156 674 141 654T125 581V499Q125 445 140 425T183 405Q210 405 225 425T240 499V581Z"  />
<glyph unicode="&#x2039;" horiz-adv-x="402" d="M350 77Q350 73 347 70T335 66H240Q227 66 222 69T210 79L48 257Q43 262 42 269T40 282Q40 287 41 294T48 307L210 485Q217 492 222 495T240 498H335Q343 498 346 495T350 487Q350 483 347 480L166 282L347 84Q350 81 350 77Z"  />
<glyph unicode="&#x203A;" horiz-adv-x="402" d="M362 282Q362 277 361 270T354 257L192 79Q185 72 180 69T162 66H67Q59 66 56 69T52 77Q52 81 55 84L236 282L55 480Q52 483 52 487Q52 491 55 494T67 498H162Q175 498 180 495T192 485L354 307Q359 302 360 295T362 282Z"  />
<glyph unicode="&#x20AC;" horiz-adv-x="630" d="M570 31Q570 20 564 16T548 8Q537 5 499 -1T402 -8Q360 -8 312 4T220 45T147 124T109 251H71Q63 251 57 257T51 271V319Q51 327 57 333T71 339H107V407H71Q63 407 57 413T51 427V475Q51 483 57 489T71 495H109Q117 573 148 622T221 700T312 740T403 751Q461 751 499 745T548 735Q558 732 564 728T570 712V645Q570 636 566 630T551 624H548Q513 627 479 629T405 632Q377 632 352 625T306 601T271 559T250 495H496Q503 495 507 491T512 480Q512 478 512 478T511 475L498 427Q496 419 491 413T478 407H247V339H453Q460 339 464 335T469 324Q469 322 469 322T468 319L455 271Q453 263 448 257T435 251H249Q255 213 269 187T304 143T350 119T404 111Q444 111 475 113T548 119H551Q562 119 566 113T570 98V31H570Z"  />
<glyph unicode="&#x2122;" horiz-adv-x="814" d="M773 348Q773 338 763 338H699Q689 338 689 348V593Q689 617 687 632T676 655T651 666T605 669V348Q605 338 594 338H530Q520 338 520 348V669Q495 669 474 668T436 665V348Q436 338 426 338H363Q352 338 352 348V709Q352 724 357 729T375 737Q432 742 475 744T562 747Q617 747 656 743T722 722T760 676T773 593V348ZM319 685Q319 679 314 676T304 672H216V352Q216 347 212 343T202 338H143Q137 338 133 342T129 352V672H39Q34 672 30 675T25 685V729Q25 743 39 743H304Q310 743 314 739T319 729V685Z"  />

</font>
</defs>
</svg>
