<?xml  version="1.0" encoding="UTF-8"?>
<!DOCTYPE svg PUBLIC "-//W3C//DTD SVG 1.0//EN" "http://www.w3.org/TR/2001/REC-SVG-20010904/DTD/svg10.dtd" >
<svg xmlns="http://www.w3.org/2000/svg" >
<metadata>
<version>1.0</version>
<id><![CDATA[Neo Sans W01 Light Italic]]></id>
<vendor>Monotype Imaging Inc.</vendor>
<credits>
<name>Fonts.com WebFonts</name>
<URL>http://webfonts.fonts.com</URL>
<role>Home of the Web fonts</role>
</credits>
<license>
<URL>http://webfonts.fonts.com/Legal</URL>
</license>
<copyright><![CDATA[Copyright 2004 Monotype Imaging Inc. All Rights Reserved. Neo Sans is designed by Sebastian Lester.]]></copyright>
<trademark><![CDATA[Neo Sans is a trademark of Monotype Imaging Inc. and may be registered in certain jurisdictions.]]></trademark>
<licensee>
<name></name>
</licensee>
</metadata>
<defs >
<font horiz-adv-x="485" id="470c1738-10af-498f-89d0-4c0adafd7b63">
<font-face font-family="" panose-1="2 11 3 4 3 5 4 9 2 4" ascent="961" descent="-216" units-per-em="1000" alphabetic="0">
</font-face>
<missing-glyph horiz-adv-x="0" />

<glyph unicode="&#xA;" />
<glyph unicode="&#xD;" horiz-adv-x="0" />
<glyph unicode=" " horiz-adv-x="215" />
<glyph unicode="!" horiz-adv-x="204" d="M252 724L158 192Q156 184 150 179T136 173H130Q114 173 114 189V192L208 724Q210 732 216 737T230 743H236Q252 743 252 727V724ZM139 87L126 13Q124 5 118 0T104 -6H98Q82 -6 82 10V13L95 87Q97 95 103 100T118 106H124Q139 106 139 90V87Z"  />
<glyph unicode="&quot;" horiz-adv-x="324" d="M401 735Q401 730 398 724L319 552Q311 533 297 533H282Q274 533 274 540Q274 546 277 552L349 724Q357 743 372 743H391Q401 743 401 735ZM276 735Q276 730 273 724L194 552Q186 533 172 533H157Q149 533 149 540Q149 546 152 552L224 724Q232 743 247 743H266Q276 743 276 735Z"  />
<glyph unicode="#" horiz-adv-x="636" d="M674 501V497Q672 489 666 485T651 480H547L487 254H591Q605 254 605 241V237L604 234Q602 226 596 222T581 217H476L424 19Q422 11 417 6T403 0H394Q380 0 380 14Q380 15 380 16T381 19L433 217H253L201 19Q199 11 194 6T180 0H170Q156 0 156 14Q156 16 156 16T157 19L209 217H106Q91 217 91 230V234L92 237Q94 245 101 249T116 254H220L280 480H176Q161 480 161 494V497V501Q163 509 170 513T185 518H289L344 724Q346 732 352 737T366 743H376Q389 743 389 729Q389 728 389 727T388 724L333 518H513L568 724Q570 732 576 737T590 743H599Q612 743 612 730Q612 726 611 724L556 518H660Q674 518 674 504V501ZM324 480L264 254H444L504 480H324Z"  />
<glyph unicode="$" horiz-adv-x="580" d="M607 723L605 710Q602 696 584 696Q576 696 559 697T522 701T479 704T437 706Q397 706 359 700T292 678T245 634T227 561Q227 546 232 533T248 506T278 476T325 441L412 381Q448 356 472 333T510 289T529 249T535 210Q535 162 518 124T471 59T400 16T311 -4L293 -109Q291 -117 287 -122T274 -128H264Q257 -128 254 -124T251 -113V-110V-109L269 -6H267Q218 -6 181 -2T114 5Q108 6 104 9T99 18V20V21L101 34Q103 42 108 44T122 47H125H126Q164 44 198 40T274 36Q318 36 357 45T425 76T472 130T489 210Q489 226 484 241T465 271T431 304T379 343L290 405Q229 447 205 484T181 559Q181 610 199 644T248 699T318 732T402 746L418 833Q420 841 424 846T436 852H446Q453 852 456 848T460 837V834V833L444 748H446Q486 748 523 745T593 738Q607 736 607 726V724V723Z"  />
<glyph unicode="%" horiz-adv-x="757" d="M422 637Q422 626 421 616T418 593L399 489Q384 405 345 369T246 333Q196 333 169 362T142 445Q142 456 143 466T146 489L165 593Q180 677 220 712T319 748Q367 748 394 720T422 637ZM747 739Q747 735 739 724L197 13Q189 2 185 -2T173 -6H142Q136 -6 136 -2Q136 2 144 13L686 724Q694 735 698 739T710 743H740Q747 743 747 739ZM746 297Q746 286 745 276T742 253L723 149Q708 65 669 29T570 -7Q520 -7 493 22T466 105Q466 116 467 126T470 149L489 253Q504 337 544 372T643 408Q691 408 718 380T746 297ZM383 635Q383 675 365 692T312 710Q272 710 244 682T204 593L185 489Q183 477 182 467T181 447Q181 406 200 389T253 372Q295 372 322 400T360 489L379 593Q381 605 382 615T383 635ZM707 295Q707 335 689 352T636 370Q596 370 568 342T528 253L509 149Q507 137 506 127T505 107Q505 66 524 49T577 32Q619 32 646 60T684 149L703 253Q705 265 706 275T707 295Z"  />
<glyph unicode="&amp;" horiz-adv-x="637" d="M639 365Q639 363 639 362T638 359L636 348Q624 280 597 218T526 108L597 13Q599 11 599 9Q599 0 589 0H562Q557 0 554 1T547 7L496 74Q453 36 398 15T275 -6Q237 -6 202 2T138 27T94 71T77 136Q77 144 77 151T79 167L81 173Q86 200 96 224T128 271T183 320T271 377Q257 397 242 419T214 466T193 516T184 567Q184 572 184 578T186 589L187 595Q194 641 215 670T265 717T330 741T405 748Q436 748 464 741T515 719T550 681T564 625Q564 611 561 595L560 589Q555 558 543 533T508 485T451 439T368 389L330 368Q361 325 405 268L502 140Q537 182 559 235T593 348L595 359Q598 378 614 378H626Q639 378 639 365ZM519 624Q519 649 510 665T484 691T445 704T398 708Q366 708 338 703T289 684T253 650T232 595L231 589Q230 583 230 578T229 567Q229 544 236 522T255 479T281 438T309 398L351 423Q397 450 427 470T475 509T502 546T515 589L516 595Q519 610 519 624ZM373 238Q350 269 330 296T293 346Q251 322 222 303T173 264T143 223T127 173L125 167Q123 159 123 152T123 138Q123 108 135 88T169 56T220 39T282 34Q341 34 389 53T474 105L373 238Z"  />
<glyph unicode="&apos;" horiz-adv-x="199" d="M276 735Q276 730 273 724L194 552Q186 533 172 533H157Q149 533 149 540Q149 546 152 552L224 724Q232 743 247 743H266Q276 743 276 735Z"  />
<glyph unicode="(" horiz-adv-x="265" d="M374 738Q374 732 369 729Q328 692 293 639T231 526T185 408T158 301L149 247Q144 215 141 180T138 106Q138 66 141 26T153 -52T175 -123T207 -181Q210 -186 210 -188Q210 -195 202 -195H177Q165 -195 161 -188Q142 -159 129 -124T108 -51T97 27T93 107Q93 145 96 180T104 247L113 301Q121 348 138 406T182 523T243 637T321 736Q327 743 339 743H366Q374 743 374 738Z"  />
<glyph unicode=")" horiz-adv-x="265" d="M269 445Q269 406 266 370T258 301L249 247Q241 200 224 142T181 25T120 -89T42 -188Q36 -195 24 -195H-6Q-13 -195 -13 -191Q-13 -187 -7 -181Q34 -144 69 -91T131 22T177 140T204 247L213 301Q218 334 221 370T225 445Q225 484 222 524T211 601T190 672T159 729Q156 733 156 737Q156 743 164 743H187Q199 743 203 736Q221 707 234 673T254 601T265 524T269 445Z"  />
<glyph unicode="*" horiz-adv-x="417" d="M486 614Q486 604 472 599L342 557L422 446Q427 439 427 434Q427 427 421 423L414 418Q409 415 406 415Q399 415 392 424L311 535L231 424Q224 415 217 415Q213 415 209 418L201 423Q195 427 195 433Q195 439 200 446L281 557L151 599Q137 604 137 614Q137 617 138 619L141 627Q144 636 154 636Q159 636 162 635L293 593V730Q293 738 296 743T307 748H316Q324 748 327 743T330 730V593L461 635Q464 636 469 636Q479 636 482 627L485 619Q486 617 486 614Z"  />
<glyph unicode="+" horiz-adv-x="580" d="M583 386Q583 378 577 374T563 370H381V189Q381 181 377 175T365 169H355Q347 169 343 175T339 189V370H158Q150 370 144 374T138 386V396Q138 404 144 408T158 412H339V594Q339 602 343 608T355 614H365Q373 614 377 608T381 594V412H563Q571 412 577 408T583 396V386H583Z"  />
<glyph unicode="&#x2c;" horiz-adv-x="168" d="M147 98Q147 95 143 87L51 -81Q41 -100 28 -100H16Q8 -100 8 -93Q8 -91 12 -81L94 87Q103 106 118 106H137Q147 106 147 98Z"  />
<glyph unicode="-" horiz-adv-x="344" d="M342 281L340 273Q337 257 318 257H116Q100 257 100 270V273L102 281Q104 289 110 294T124 299H326Q342 299 342 284V281Z"  />
<glyph unicode="." horiz-adv-x="168" d="M121 87L108 13Q106 5 100 0T86 -6H80Q64 -6 64 10V13L77 87Q79 95 85 100T100 106H106Q121 106 121 90V87Z"  />
<glyph unicode="/" horiz-adv-x="312" d="M429 739Q429 733 426 729L64 13Q60 6 57 0T45 -6H23Q14 -6 14 3Q14 7 17 13L379 729Q383 736 386 742T398 748H419Q429 748 429 739Z"  />
<glyph unicode="0" horiz-adv-x="580" d="M619 551Q619 516 611 470L576 273Q550 129 481 62T297 -6Q212 -6 160 43T108 193Q108 227 116 273L151 470Q164 545 190 598T251 684T332 733T430 748Q519 748 569 699T619 551ZM575 551Q575 633 536 670T423 708Q332 708 274 646T195 470L160 273Q152 227 152 195Q152 114 191 74T304 34Q391 34 451 94T532 273L567 470Q571 493 573 513T575 551Z"  />
<glyph unicode="1" horiz-adv-x="580" d="M263 41L379 700L203 678H198Q189 678 187 682T185 691L186 696Q188 707 194 710T210 716L408 743H413Q430 743 427 723L307 41H478Q486 41 491 38T495 26L493 15Q490 0 471 0H85Q77 0 71 3T67 15L69 26Q71 34 77 37T92 41H263Z"  />
<glyph unicode="2" horiz-adv-x="580" d="M244 733Q284 741 323 744T402 748Q607 748 607 605Q607 566 598 537T568 483T514 434T434 381L320 312Q266 279 234 252T183 198T156 144T141 81L134 41H480Q487 41 493 39T498 26L496 15Q494 7 490 4T473 0H102Q94 0 89 4T86 20L96 81Q103 125 114 159T147 224T205 284T298 348L412 417Q454 442 482 462T527 504T552 548T559 605Q559 660 521 683T394 706Q362 706 321 703T239 691Q230 689 224 692T220 706L222 717Q224 725 228 728T244 733Z"  />
<glyph unicode="3" horiz-adv-x="580" d="M244 691Q224 688 227 707L228 715Q229 729 249 733Q279 738 318 743T398 748Q449 748 490 741T559 715T603 668T618 594Q618 524 584 471T478 388Q499 378 514 363T538 330T552 293T557 255Q557 190 536 141T475 60T383 11T265 -6Q225 -6 188 -2T122 9Q114 11 110 14T107 27L108 33Q110 41 114 46T131 49Q162 44 199 40T272 36Q326 36 369 50T444 91T493 159T510 253Q510 273 504 294T484 331T446 358T390 369H203Q184 369 187 387L188 394Q190 405 196 408T211 412H398Q441 412 473 426T528 466T560 524T571 594Q571 628 561 650T528 684T471 701T390 706Q355 706 316 701T244 691Z"  />
<glyph unicode="4" horiz-adv-x="580" d="M587 240L585 231Q583 223 577 220T563 216H463L428 19Q426 11 422 6T410 0H398Q390 0 387 4T384 15V18V19L419 216H144Q116 216 102 229T87 261Q87 275 93 288T109 312L461 723Q475 740 487 744T512 748Q526 748 537 740T549 712Q549 704 548 700L470 258H570Q577 258 582 254T587 243V241V240ZM503 697Q503 700 499 700Q494 700 490 694L146 293Q141 288 136 281T131 267Q131 258 149 258H426L503 694V695V697Z"  />
<glyph unicode="5" horiz-adv-x="580" d="M615 727L613 716Q611 708 605 705T591 702H288L223 436H301Q374 436 422 425T500 394T541 343T554 273Q554 210 534 159T476 71T383 14T255 -6Q201 -6 166 0T104 12Q98 14 93 17T88 28V31L90 42Q93 55 106 55Q111 55 114 54Q124 51 140 48T177 43T219 38T262 36Q322 36 368 53T446 102T494 176T510 273Q510 342 458 368T294 395H188Q171 395 171 411Q171 415 172 417L249 726Q251 734 258 738T272 743H598Q605 743 610 740T615 730V727Z"  />
<glyph unicode="6" horiz-adv-x="580" d="M443 706Q393 706 354 695T284 659T234 591T203 488L193 429Q233 439 284 445T387 452Q425 452 459 444T518 417T559 368T574 296Q574 235 557 180T506 84T420 19T297 -6Q204 -6 157 39T110 171Q110 190 112 210T118 253L159 488Q171 558 194 607T254 688T338 733T450 748Q504 748 540 742T606 729Q619 726 622 722T624 706L623 701Q621 691 616 688T596 688Q568 694 534 700T443 706ZM529 293Q529 328 518 351T488 387T441 406T380 411Q354 411 327 409T274 404T225 396T185 387L162 253Q158 229 156 209T154 171Q154 97 189 66T300 34Q357 34 400 53T471 107T514 189T529 293Z"  />
<glyph unicode="7" horiz-adv-x="580" d="M648 704Q648 697 646 686T637 666L211 10Q207 4 204 2T191 0H176Q163 0 163 11Q163 19 169 27L601 686Q604 690 604 694Q604 700 596 700H222Q217 700 210 703T206 719L208 727Q210 738 216 740T230 743H596Q648 743 648 704Z"  />
<glyph unicode="8" horiz-adv-x="580" d="M636 588Q636 550 625 517T594 458T550 414T498 388Q534 367 554 329T575 250Q575 182 551 134T488 54T399 9T298 -6Q253 -6 216 4T152 36T110 92T94 176Q95 214 106 247T137 309T182 357T238 390Q199 407 179 445T159 522Q159 584 181 627T240 697T327 736T431 748Q527 748 581 709T636 588ZM589 589Q589 652 546 679T423 706Q320 706 263 662T206 521Q206 502 212 483T232 448T270 422T331 412H413Q465 412 499 428T553 469T581 526T589 589ZM323 369Q285 369 253 355T196 315T158 254T144 176Q143 100 185 68T305 36Q413 36 470 93T528 249Q528 267 523 288T504 327T466 357T405 369H323Z"  />
<glyph unicode="9" horiz-adv-x="580" d="M616 571Q616 552 614 532T608 489L567 254Q555 184 532 135T472 54T388 9T276 -6Q222 -6 186 0T120 13Q99 17 102 35L103 41Q105 52 112 54T130 54Q160 47 193 42T283 36Q333 36 372 47T442 83T492 151T523 254L533 313Q493 303 442 297T339 290Q301 290 267 298T208 325T167 374T152 446Q152 507 169 562T220 658T306 723T429 748Q522 748 569 703T616 571ZM572 571Q572 645 537 676T426 708Q369 708 326 689T255 635T212 553T197 449Q197 414 208 391T238 355T285 336T346 331Q371 331 398 333T452 338T501 346T541 355L564 489Q568 513 570 533T572 571Z"  />
<glyph unicode=":" horiz-adv-x="178" d="M203 523L190 449Q188 441 182 436T168 430H162Q146 430 146 446V449L159 523Q161 531 167 536T182 542H188Q203 542 203 526V523ZM126 87L113 13Q111 5 105 0T91 -6H85Q69 -6 69 10V13L82 87Q84 95 90 100T105 106H111Q126 106 126 90V87Z"  />
<glyph unicode=";" horiz-adv-x="178" d="M203 523L190 449Q188 441 182 436T168 430H162Q146 430 146 446V449L159 523Q161 531 167 536T182 542H188Q203 542 203 526V523ZM135 98Q135 95 131 87L39 -81Q29 -100 16 -100H4Q-4 -100 -4 -93Q-4 -91 0 -81L82 87Q91 106 106 106H125Q135 106 135 98Z"  />
<glyph unicode="&lt;" horiz-adv-x="580" d="M503 623Q503 614 495 608L230 391L495 174Q503 168 503 159Q503 153 498 148L491 141Q487 137 481 137Q474 137 465 144L199 362Q184 374 184 391Q184 408 199 420L465 638Q474 645 481 645Q487 645 491 641L498 634Q503 629 503 623Z"  />
<glyph unicode="=" horiz-adv-x="580" d="M569 486Q569 478 563 474T549 470H184Q176 470 170 474T164 486V496Q164 504 170 508T184 512H549Q557 512 563 508T569 496V486ZM569 286Q569 278 563 274T549 270H184Q176 270 170 274T164 286V296Q164 304 170 308T184 312H549Q557 312 563 308T569 296V286Z"  />
<glyph unicode="&gt;" horiz-adv-x="580" d="M552 391Q552 374 537 362L271 144Q262 137 255 137Q249 137 245 141L238 148Q233 153 233 159Q233 168 241 174L506 391L241 608Q233 614 233 623Q233 629 238 634L245 641Q249 645 255 645Q262 645 271 638L537 420Q552 408 552 391Z"  />
<glyph unicode="?" horiz-adv-x="424" d="M471 625Q471 620 471 615T470 603L469 595Q466 571 459 552T436 511T394 465T326 406L290 376Q267 356 253 342T229 315T216 288T208 252L198 192Q196 184 190 179T176 173H170Q154 173 154 189V191V192L164 252Q168 278 175 297T193 334T222 368T266 408L299 436Q335 467 357 488T393 527T413 561T421 595L422 603Q423 609 423 614T423 624Q423 670 393 689T296 709Q278 709 264 709T237 707T209 705T176 702H175H174Q161 702 161 712V713V714L162 722Q163 729 167 734T183 741Q215 745 244 746T303 748Q378 748 424 718T471 625ZM178 87L165 13Q163 5 157 0T143 -6H137Q121 -6 121 10V12V13L134 87Q136 95 142 100T157 106H163Q178 106 178 90V88V87Z"  />
<glyph unicode="@" horiz-adv-x="758" d="M749 391Q749 305 729 244T663 143T545 84T368 65Q341 65 317 70T275 87T245 119T234 172Q234 181 235 193T238 214L262 332Q279 414 320 446T434 479Q465 479 494 476T556 466Q562 464 566 460T571 448Q571 446 571 445T570 441L505 112Q542 121 578 133T643 175T689 255T707 391Q707 445 689 486T638 554T564 595T474 609Q402 609 347 590T250 535T183 452T145 345L116 203Q113 189 112 174T111 142Q111 89 127 51T174 -12T245 -49T334 -61Q366 -61 402 -59T468 -55H471Q486 -55 486 -67Q486 -88 462 -91Q450 -93 435 -94T402 -96T367 -98T334 -99Q277 -99 229 -84T144 -38T88 38T68 142Q68 156 69 172T73 203L102 346Q116 416 147 472T225 567T334 627T474 648Q530 648 580 631T667 580T727 499T749 391ZM525 432Q509 435 484 438T434 441Q402 441 380 436T343 417T319 383T303 331L280 214Q278 205 277 193T276 172Q276 129 301 116T368 103Q392 103 419 104T461 107L525 432Z"  />
<glyph unicode="A" horiz-adv-x="619" d="M583 18Q583 9 579 3T564 -3H554Q543 -3 541 10L505 281H217L87 10Q85 5 79 1T68 -3H53Q40 -3 40 9Q40 12 41 15T44 22L368 699Q392 748 442 748Q466 748 480 736T497 700L583 22V18ZM456 687Q455 695 450 701T437 707Q428 707 421 702T410 688L236 325H501L456 687Z"  />
<glyph unicode="B" horiz-adv-x="580" d="M627 605Q627 588 624 567L622 556Q598 427 474 388Q521 371 545 335T569 252Q569 244 569 236T567 220L564 203Q552 137 522 96T448 32T353 1T248 -7Q209 -7 171 -5T99 1Q83 2 83 14Q83 16 83 17T84 20L207 723Q209 731 215 736T230 742Q261 744 303 746T384 748Q436 748 481 741T558 718T608 674T627 605ZM583 599Q583 635 567 656T522 689T456 705T374 709Q341 709 308 708T248 705L197 412H378Q430 412 466 424T525 456T560 502T578 556L580 567Q583 585 583 599ZM526 254Q526 278 519 298T493 335T445 360T370 369H189L131 39Q163 37 190 35T255 33Q298 33 341 39T420 63T483 115T520 203L523 220Q526 238 526 254Z"  />
<glyph unicode="C" horiz-adv-x="537" d="M624 721L622 709Q620 701 617 699T607 697H603H601Q588 698 568 700T525 703T477 705T429 706Q385 706 346 692T274 647T218 564T181 437L158 305Q149 251 149 211Q149 162 161 129T194 75T245 45T311 36Q334 36 359 37T407 39T451 41T486 45H488H492Q503 45 503 37V33L501 21Q499 13 493 9T479 4Q459 2 416 -2T304 -6Q265 -6 229 5T166 42T122 110T105 212Q105 254 114 305L137 437Q153 528 182 588T252 683T339 733T437 748Q506 748 547 744T608 738Q614 737 619 734T624 723V721Z"  />
<glyph unicode="D" horiz-adv-x="613" d="M637 521Q637 501 636 479T629 433L607 309Q592 222 561 162T486 65T384 11T260 -6Q200 -6 159 -4T97 2Q84 4 84 18V21L207 721Q209 728 214 733T227 740Q250 744 291 746T393 748Q447 748 492 736T569 696T619 625T637 521ZM594 521Q594 576 579 612T535 669T469 700T386 709Q342 709 312 707T248 703L131 37Q163 35 193 34T267 33Q319 33 366 47T453 93T520 179T563 309L585 433Q594 482 594 521Z"  />
<glyph unicode="E" horiz-adv-x="533" d="M606 726L605 718Q604 710 598 706T583 702H325Q306 702 291 700T265 690T247 668T235 631L196 411H531Q538 411 543 408T548 398V395L546 385Q543 368 524 368H189L144 112Q142 105 142 99T142 88Q142 58 159 50T208 41H466Q482 41 482 28V25L481 17Q480 9 474 5T459 0H201Q152 0 125 20T97 85Q97 97 100 112L191 631Q202 696 236 719T332 743H590Q606 743 606 729V726Z"  />
<glyph unicode="F" horiz-adv-x="518" d="M606 725L605 717Q604 709 598 706T583 702H325Q307 702 292 700T266 690T247 668T235 631L196 411H531Q548 411 548 396V393L546 383Q543 368 524 368H189L127 19Q125 11 120 6T107 0H97Q90 0 87 4T83 15V19L191 631Q202 694 235 718T332 743H590Q598 743 602 739T606 728V725Z"  />
<glyph unicode="G" horiz-adv-x="588" d="M635 722L634 712Q633 697 616 697H612H610Q584 700 564 701T524 704T484 706T436 707Q398 707 359 694T285 650T222 565T180 433L158 309Q149 256 149 214Q149 119 193 78T317 36Q381 36 420 39T471 45L527 363Q530 382 547 382H557Q571 382 571 367V364V363L512 26Q510 18 504 13T491 7Q473 5 454 3T414 -2T368 -5T310 -6Q264 -6 227 7T162 49T120 118T105 217Q105 259 114 309L136 433Q153 530 187 591T263 687T352 735T443 748Q477 748 503 747T550 745T588 742T621 738Q635 736 635 725V722Z"  />
<glyph unicode="H" horiz-adv-x="647" d="M695 724L570 19Q568 11 563 6T550 0H541Q533 0 530 4T527 15V19L590 377H190L127 19Q125 11 120 6T107 0H97Q90 0 87 4T83 15V19L208 724Q210 732 215 737T228 743H238Q245 743 248 739T252 728V724L198 418H598L652 724Q654 732 659 737T672 743H681Q689 743 692 739T695 728V724Z"  />
<glyph unicode="I" horiz-adv-x="224" d="M262 724L137 19Q135 11 130 6T117 0H107Q100 0 97 4T93 15V19L218 724Q220 732 225 737T238 743H248Q255 743 258 739T262 728V724Z"  />
<glyph unicode="J" horiz-adv-x="224" d="M262 724L123 -60Q117 -97 106 -122T75 -164T27 -187T-44 -195H-58Q-66 -195 -71 -193T-76 -184V-181L-74 -171Q-71 -156 -52 -156H-38Q-7 -156 13 -152T46 -138T66 -109T79 -60L218 724Q220 732 225 737T238 743H248Q255 743 258 739T262 728V724Z"  />
<glyph unicode="K" horiz-adv-x="544" d="M637 730Q637 720 624 708L232 383L512 30Q518 22 518 15Q518 8 513 3T498 -2Q493 -2 486 -1T475 6L189 368L127 19Q125 11 120 6T107 0H97Q90 0 87 4T83 15V19L208 724Q210 732 216 737T230 743H236Q252 743 252 727V724L195 404L594 736Q602 743 608 745T619 747Q627 747 632 742T637 730Z"  />
<glyph unicode="L" horiz-adv-x="483" d="M452 25L451 17Q450 9 444 5T429 0H201Q155 0 126 17T97 82Q97 95 100 112L208 724Q210 732 215 737T228 743H238Q245 743 248 739T252 728V725V724L144 112Q141 95 141 84Q141 57 157 49T208 41H436Q452 41 452 27V26V25Z"  />
<glyph unicode="M" horiz-adv-x="730" d="M774 709Q774 703 773 700L653 19Q651 11 646 6T633 0H622Q615 0 612 4T608 15V19L728 700V701Q728 704 726 705T722 706Q719 706 717 703T713 697L470 324Q460 310 448 301T417 292Q400 292 391 301T376 324L265 697Q264 700 261 703T255 706Q253 706 250 705T246 700L126 19Q124 11 119 6T106 0H97Q90 0 87 4T83 15V19L203 700Q208 728 223 738T258 748Q279 748 288 738T302 717L413 351Q417 338 424 338Q429 338 431 341T439 351L678 716Q690 735 702 741T736 748Q751 748 762 738T774 709Z"  />
<glyph unicode="N" horiz-adv-x="651" d="M654 724Q656 732 660 737T675 743H683Q702 743 699 724L579 44Q574 20 560 7T526 -6Q507 -6 497 0T480 26L262 699Q260 706 254 706Q248 706 247 699L127 19Q125 11 121 6T103 0H98Q87 0 84 6T83 19L203 699Q208 727 224 737T256 748Q277 748 287 739T303 717L521 43Q523 36 527 36Q532 36 534 44L654 724H654Z"  />
<glyph unicode="O" horiz-adv-x="632" d="M657 525Q657 484 648 433L626 309Q611 223 581 163T511 66T421 11T315 -6Q268 -6 230 7T164 47T121 116T105 216Q105 258 114 309L136 433Q152 522 181 582T251 679T342 732T448 748Q495 748 533 735T599 694T642 624T657 525ZM613 527Q613 578 600 612T564 667T510 697T440 706Q394 706 353 693T278 647T219 563T180 433L158 309Q149 255 149 214Q149 164 161 130T196 75T251 45T322 36Q368 36 410 51T485 99T544 183T582 309L604 433Q613 485 613 527Z"  />
<glyph unicode="P" horiz-adv-x="540" d="M605 587Q605 565 601 545L598 528Q587 469 563 429T499 363T408 326T291 314Q262 314 232 315T180 318L127 19Q125 11 120 6T107 0H97Q90 0 87 4T83 15V18V19L208 724Q210 731 215 736T228 743Q254 745 293 746T364 748Q479 748 542 709T605 587ZM561 587Q561 657 509 683T357 709Q325 709 298 709T248 706L187 357Q210 355 239 354T295 353Q410 353 473 394T554 528L557 545Q561 565 561 587Z"  />
<glyph unicode="Q" horiz-adv-x="632" d="M657 525Q657 484 648 433L626 309Q611 227 584 169T519 74T435 17T336 -5L324 -72Q322 -86 321 -96T319 -115Q319 -141 336 -148T402 -156H423Q431 -156 436 -159T441 -169V-172L439 -179Q436 -195 417 -195H396Q367 -195 345 -193T308 -182T284 -158T276 -116Q276 -95 280 -72L292 -5Q208 1 157 54T105 216Q105 258 114 309L136 433Q152 522 181 582T251 679T342 732T448 748Q495 748 533 735T599 694T642 624T657 525ZM613 527Q613 578 600 612T564 667T510 697T440 706Q394 706 353 693T278 647T219 563T180 433L158 309Q149 255 149 214Q149 164 161 130T196 75T251 45T322 36Q368 36 410 51T485 99T544 183T582 309L604 433Q613 485 613 527Z"  />
<glyph unicode="R" horiz-adv-x="598" d="M626 593Q626 572 621 544L620 539Q600 441 546 396T406 340L553 29Q556 23 556 17Q556 10 552 5T539 0H529Q519 0 514 9L358 335H312H233Q209 335 183 336L127 19Q125 11 120 6T107 0H97Q83 0 83 16V19L208 725Q210 732 215 737T228 744Q241 745 261 745T303 746T347 747T385 748Q503 748 564 711T626 593ZM582 590Q582 657 531 681T377 706Q361 706 344 706T309 706T276 704T248 702L191 378Q201 378 219 378T256 378T294 377T323 377Q381 377 424 384T498 410T548 460T576 539L577 544Q579 557 580 568T582 590Z"  />
<glyph unicode="S" horiz-adv-x="530" d="M582 723L580 710Q579 697 562 697H559Q531 699 491 702T412 706Q376 706 339 702T271 683T221 641T201 568Q201 527 229 496T310 429L362 394Q403 366 431 342T477 296T503 252T511 208Q511 149 489 109T429 43T343 6T242 -6Q199 -6 160 -3T89 5Q83 6 79 9T74 19V21L76 34Q78 42 82 44T91 46H96Q134 42 170 39T249 35Q292 35 331 43T399 71T446 123T464 203Q464 224 457 241T435 277T396 314T335 358L284 393Q226 433 191 472T156 563Q156 619 179 655T240 711T325 740T421 748Q461 748 498 745T568 738Q582 736 582 726V724V723Z"  />
<glyph unicode="T" horiz-adv-x="571" d="M669 725L667 716Q664 702 646 702H432L311 19Q309 11 304 6T291 0H281Q274 0 271 4T267 15V19L388 702H173Q156 702 156 716V719L158 728Q161 743 180 743H653Q669 743 669 729V725Z"  />
<glyph unicode="U" horiz-adv-x="633" d="M681 724L600 264Q589 199 568 149T512 65T429 12T316 -6Q214 -6 167 45T119 186Q119 204 121 223T127 264L208 724Q210 732 215 737T228 743H238Q252 743 252 727V724L171 264Q167 242 165 223T163 185Q163 110 200 73T323 35Q423 35 479 93T556 264L637 724Q639 732 644 737T657 743H667Q681 743 681 727V724Z"  />
<glyph unicode="V" horiz-adv-x="630" d="M715 729Q715 724 712 718L388 43Q365 -6 316 -6Q292 -6 277 5T258 43L172 718V723Q172 731 176 737T188 743H200Q212 743 214 729L299 56Q301 44 306 40T319 35Q327 35 334 39T348 56L670 729Q677 743 688 743H700Q715 743 715 729Z"  />
<glyph unicode="W" horiz-adv-x="788" d="M870 729Q870 726 868 720L625 41Q608 -6 571 -6Q548 -6 541 7T531 39L477 426Q476 434 475 436T471 438Q469 438 467 436T461 426L271 39Q262 21 250 8T215 -6Q175 -6 175 41L172 720Q172 729 177 736T192 743H200Q206 743 210 739T215 727L216 50Q216 35 221 35Q224 35 225 38T231 50L424 439Q435 461 446 469T478 478Q495 478 503 469T514 439L571 50Q572 35 577 35Q582 35 587 50L827 727Q830 735 836 739T848 743H856Q870 743 870 729Z"  />
<glyph unicode="X" horiz-adv-x="602" d="M679 731Q679 721 672 713L391 378L560 29Q565 19 565 12Q565 0 552 0H542Q538 0 534 3T528 9L365 345L83 9Q78 4 75 2T65 0H55Q42 0 42 11Q42 19 50 29L346 383L186 713Q180 725 180 732Q180 743 194 743H206Q210 743 213 740T219 734L373 416L639 734Q644 739 647 741T657 743H666Q679 743 679 731Z"  />
<glyph unicode="Y" horiz-adv-x="550" d="M634 732Q634 726 628 716L409 367Q392 339 378 327T351 309L300 19Q298 11 293 6T280 0H270Q263 0 260 4T256 15V19L307 309Q296 314 288 326T271 367L174 716Q173 719 173 725Q173 743 193 743H201Q206 743 209 740T215 731L310 381Q316 359 320 353T334 346Q343 346 349 352T370 381L589 731Q592 736 597 739T607 743H619Q634 743 634 732Z"  />
<glyph unicode="Z" horiz-adv-x="595" d="M628 700Q628 684 615 666L131 55Q127 51 127 47Q127 41 138 41H521Q529 41 534 37T540 27V26V25L538 15Q536 7 529 4T514 0H129Q106 0 94 14T82 45Q82 63 93 77L579 689Q583 693 583 697Q583 702 576 702H214Q207 702 201 706T195 717V718V719L197 729Q199 737 206 740T221 743H576Q602 743 615 730T628 700Z"  />
<glyph unicode="[" horiz-adv-x="298" d="M406 726L405 718Q404 710 398 706T383 702H258L107 -154H232Q248 -154 248 -168V-171L246 -179Q243 -195 225 -195H73Q66 -195 63 -191T59 -180V-176L218 724Q220 732 225 737T238 743H390Q406 743 406 729V726Z"  />
<glyph unicode="\" horiz-adv-x="325" d="M304 9Q304 3 302 -1T292 -6H274Q266 -6 264 0T261 13L153 729V732Q153 748 166 748H183Q191 748 193 742T196 729L304 13V9H304Z"  />
<glyph unicode="]" horiz-adv-x="298" d="M336 724L177 -176Q175 -184 170 -189T157 -195H5Q-12 -195 -12 -182V-179L-10 -171Q-7 -154 12 -154H137L288 702H163Q147 702 147 715V718L148 726Q149 734 155 738T170 743H322Q329 743 332 739T336 728V724Z"  />
<glyph unicode="^" horiz-adv-x="580" d="M553 569Q553 560 543 560H525Q516 560 512 565T499 580L382 719L265 580Q257 570 252 565T239 560H221Q210 560 210 569Q210 573 215 580L332 730Q340 740 345 744T359 748H405Q413 748 418 744T432 730L549 580Q553 575 553 569Z"  />
<glyph unicode="_" horiz-adv-x="465" d="M482 -72L481 -82Q480 -90 473 -94T458 -98H-27Q-44 -98 -44 -85V-82L-43 -72Q-42 -64 -35 -60T-20 -56H465Q482 -56 482 -69V-72Z"  />
<glyph unicode="`" horiz-adv-x="330" d="M320 627Q320 618 310 618H292Q284 618 281 622T273 635L189 763Q186 767 186 770Q186 778 198 778H220Q228 778 232 775T241 763L318 635Q320 632 320 627Z"  />
<glyph unicode="a" horiz-adv-x="504" d="M524 511Q524 509 524 508T523 504L438 20Q436 12 430 6T416 0H408Q393 0 393 16Q393 17 393 18T394 20L400 53Q360 32 317 13T228 -6Q197 -6 171 2T125 29T94 74T83 138Q83 158 88 186L108 299Q120 364 139 410T187 485T255 528T347 542Q390 542 434 536T511 523Q524 520 524 511ZM476 490Q450 495 413 499T340 503Q256 503 213 450T152 299L132 186Q127 158 127 138Q127 105 136 85T160 53T196 37T238 33Q276 33 314 49T407 95L476 490Z"  />
<glyph unicode="b" horiz-adv-x="504" d="M508 375Q508 342 502 303L491 237Q482 181 464 136T418 60T350 11T256 -6Q235 -6 212 -5T167 0T124 6T87 13Q75 16 75 24Q75 29 76 32L198 724Q200 732 205 737T218 743H228Q235 743 238 739T242 728V725V724L208 529Q238 535 273 538T346 542Q508 542 508 375ZM465 377Q465 441 436 472T340 503Q325 503 307 502T270 499T233 494T200 488L122 46Q148 41 185 37T258 33Q301 33 333 46T387 85T424 149T447 237L458 303Q462 323 463 341T465 377Z"  />
<glyph unicode="c" horiz-adv-x="437" d="M484 515L483 508Q482 500 477 497T463 494H460H459Q390 503 342 503Q299 503 267 488T212 446T174 383T152 303L141 236Q138 216 136 198T134 163Q134 100 162 67T259 33Q307 33 379 42H380H383Q398 42 398 31V29V28L397 21Q395 13 391 9T375 3Q343 -1 310 -3T252 -6Q209 -6 179 6T129 41T100 96T91 166Q91 200 97 236L108 303Q117 357 135 401T183 476T253 525T349 542Q373 542 405 540T468 533Q484 530 484 520V517V515Z"  />
<glyph unicode="d" horiz-adv-x="504" d="M562 724L440 32Q438 23 435 19T421 13Q386 6 340 0T251 -6Q168 -6 130 42T91 169Q91 201 97 237L108 303Q129 428 189 485T347 542Q362 542 379 541T415 538T451 533T483 527L518 724Q521 743 538 743H548Q555 743 558 739T562 728V725V724ZM476 490Q462 493 445 495T409 499T373 502T340 503Q260 503 215 453T152 303L141 237Q137 217 136 199T134 163Q134 100 162 67T257 33Q295 33 333 37T398 46L476 490Z"  />
<glyph unicode="e" horiz-adv-x="511" d="M516 372Q516 340 510 304L505 277Q503 269 496 264T481 258H144L141 237Q139 219 137 203T135 172Q135 131 145 105T175 63T222 41T285 34Q318 34 358 38T437 50Q440 51 446 51Q458 51 458 43Q458 38 457 36L455 29Q452 18 448 16T432 11Q394 3 354 -1T279 -6Q238 -6 204 4T144 35T106 89T92 170Q92 185 93 202T97 237L108 303Q128 421 190 481T352 542Q395 542 426 530T477 495T506 441T516 372ZM473 374Q473 437 444 470T346 503Q304 503 273 489T218 449T178 386T153 303L152 298H465L466 304Q469 324 471 341T473 374Z"  />
<glyph unicode="f" horiz-adv-x="377" d="M194 -43Q188 -78 177 -100T148 -136T109 -155T60 -161Q37 -161 28 -161T9 -158Q-8 -155 -7 -143L-6 -135Q-4 -126 1 -124T17 -122H67Q85 -122 98 -119T122 -108T139 -84T150 -43L245 496H146Q138 496 133 499T130 514L132 521Q135 531 139 534T154 537H253L269 630Q275 665 286 687T315 723T354 742T403 748Q426 748 435 748T454 745Q471 742 470 730L469 722Q467 713 462 711T446 709H396Q361 709 341 694T313 630L297 537H416Q424 537 429 534T432 521L430 512Q428 504 424 500T408 496H289L194 -43Z"  />
<glyph unicode="g" horiz-adv-x="504" d="M524 512Q524 510 524 509T523 505L434 -1Q423 -61 406 -98T362 -157T301 -187T219 -195Q193 -195 169 -194T125 -190T90 -186T68 -182Q51 -178 51 -168Q51 -167 51 -166T52 -163L53 -158Q56 -144 70 -144H74Q92 -147 133 -151T219 -156Q261 -156 289 -150T336 -127T368 -79T391 -1L393 9Q382 6 365 3T330 -2T293 -5T261 -6Q232 -6 202 0T146 24T105 74T89 160Q89 177 90 195T96 235L108 303Q120 373 141 419T193 492T264 531T357 542Q379 542 401 540T444 536T482 530T511 524Q524 521 524 512ZM476 489Q450 494 419 498T351 503Q310 503 278 494T222 463T180 402T152 303L140 235Q136 212 134 192T132 155Q132 115 142 91T171 54T214 37T268 33Q280 33 297 34T332 38T367 43T398 50L476 489Z"  />
<glyph unicode="h" horiz-adv-x="504" d="M507 399Q507 387 506 375T502 350L443 19Q441 11 436 6T423 0H413Q406 0 403 4T400 15V18V19L459 350Q461 364 462 376T464 399Q464 451 435 477T338 503Q306 503 268 498T200 484L117 19Q115 11 110 6T97 0H87Q80 0 77 4T73 15V18V19L198 724Q200 732 205 737T218 743H228Q235 743 238 739T242 728V725V724L207 525Q238 533 275 537T345 542Q388 542 419 532T469 502T498 457T507 399Z"  />
<glyph unicode="i" horiz-adv-x="204" d="M211 636Q200 636 197 641T195 655L209 729Q211 741 217 744T231 748H237Q258 748 253 729L239 655Q237 644 231 640T217 636H211ZM202 537Q218 537 215 518L127 19Q125 11 121 6T105 0H99Q80 0 83 19L171 518Q173 526 176 531T191 537H202Z"  />
<glyph unicode="j" horiz-adv-x="204" d="M253 729L239 655Q237 644 231 640T217 636H211Q195 636 195 650V655L209 729Q211 741 217 744T231 748H237Q245 748 249 744T253 733V729ZM215 518L109 -86Q103 -117 94 -138T71 -171T37 -189T-13 -195Q-26 -195 -35 -195T-55 -192Q-69 -189 -69 -180V-178L-68 -169Q-67 -162 -64 -160T-51 -157H-7Q10 -157 22 -155T42 -144T55 -123T65 -86L171 518Q173 526 178 531T191 537H202Q215 537 215 523V518Z"  />
<glyph unicode="k" horiz-adv-x="444" d="M500 529Q500 518 487 508L202 282L404 23Q409 16 409 10Q409 -6 389 -6Q380 -6 373 -4T359 6L162 265L117 19Q115 11 109 6T95 0H89Q73 0 73 16V19L198 724Q200 732 206 737T220 743H226Q242 743 242 727V724L167 303L454 533Q460 538 465 540T482 542Q500 542 500 529Z"  />
<glyph unicode="l" horiz-adv-x="204" d="M252 724L127 19Q125 11 120 6T107 0H97Q90 0 87 4T83 15V19L208 724Q210 732 215 737T228 743H238Q245 743 248 739T252 728V724Z"  />
<glyph unicode="m" horiz-adv-x="746" d="M746 416Q746 407 745 398T742 377L679 19Q677 11 672 6T659 0H649Q641 0 638 4T635 15V19L698 377Q700 388 701 397T702 415Q702 464 675 483T601 503Q568 503 533 494T463 469Q467 454 467 430Q467 419 466 407T462 381L398 19Q396 11 392 6T380 0H365Q358 0 356 4T354 14V19L418 381Q423 409 423 427Q423 467 404 485T346 503Q313 503 273 491T195 461L117 19Q115 11 111 6T99 0H85Q78 0 76 4T73 15V19L161 517Q163 525 169 531T183 537H191Q199 537 202 533T205 522V517L202 499Q244 518 278 530T354 542Q381 542 407 533T449 501Q490 519 529 530T608 542Q636 542 661 535T705 513T735 474T746 416Z"  />
<glyph unicode="n" horiz-adv-x="521" d="M518 399Q518 379 513 351L454 19Q452 11 446 6T432 0H425Q410 0 410 16V19L469 351Q471 363 472 374T473 396Q473 455 441 479T361 503Q323 503 280 492T195 462L117 19Q115 11 109 6T95 0H89Q73 0 73 16V19L161 517Q163 525 169 531T183 537H191Q198 537 201 533T205 522V517L202 501Q244 520 284 531T363 542Q394 542 422 534T472 509T505 465T518 399Z"  />
<glyph unicode="o" horiz-adv-x="522" d="M526 369Q526 339 520 303L508 233Q488 118 428 56T260 -6Q175 -6 133 40T90 169Q90 198 96 233L108 303Q128 421 189 481T357 542Q443 542 484 496T526 369ZM483 372Q483 435 453 469T350 503Q265 503 217 448T152 303L140 233Q137 214 135 197T133 164Q133 101 164 67T267 33Q310 33 343 47T401 88T440 151T464 233L476 303Q479 322 481 339T483 372Z"  />
<glyph unicode="p" horiz-adv-x="504" d="M509 371Q509 354 508 336T502 299L490 233Q467 109 410 52T252 -6Q237 -6 220 -5T184 -2T148 4T116 10L83 -176Q81 -184 76 -189T63 -195H53Q39 -195 39 -179V-176L159 504Q161 513 164 517T177 523Q209 530 252 536T349 542Q391 542 421 530T470 495T499 441T509 371ZM466 378Q466 441 437 472T342 503Q324 503 304 502T265 498T229 493T200 488L123 48Q137 45 154 43T190 38T226 34T259 33Q339 33 384 84T446 233L458 299Q466 345 466 378Z"  />
<glyph unicode="q" horiz-adv-x="504" d="M524 511Q524 509 524 508T523 504L403 -176Q401 -184 396 -189T383 -195H373Q359 -195 359 -179V-176L392 9Q326 -6 266 -6Q228 -6 196 2T140 30T103 80T89 159Q89 176 90 194T96 233L108 299Q130 418 188 480T344 542Q387 542 433 536T511 523Q524 520 524 511ZM476 490Q450 495 415 499T344 503Q260 503 215 451T152 299L140 233Q136 213 135 196T133 163Q133 125 143 100T170 60T212 39T266 32Q324 32 398 47L476 490Z"  />
<glyph unicode="r" horiz-adv-x="309" d="M366 527L365 519Q363 509 357 507T339 504Q310 504 278 495T195 457L117 19Q115 11 109 6T95 0H89Q73 0 73 16V19L161 517Q163 525 169 531T183 537H191Q206 537 206 523Q206 521 206 520T205 517L201 496Q242 521 274 531T343 542Q354 542 360 540T366 530V527Z"  />
<glyph unicode="s" horiz-adv-x="440" d="M463 516L462 508Q461 499 458 497T447 494Q446 494 443 494T439 495Q430 496 415 497T380 499T341 502T301 503Q239 503 205 484T171 408Q171 382 192 360T252 315L312 278Q342 260 361 245T393 215T410 185T415 150Q415 106 399 76T355 28T291 2T216 -6Q200 -6 181 -5T142 -2T104 2T73 8Q67 10 61 12T54 22V24L56 35Q58 43 60 45T68 47Q73 47 77 46Q118 40 158 37T225 33Q291 33 331 59T371 150Q371 175 352 194T284 243L226 278Q184 304 156 334T127 406Q127 445 141 471T180 513T235 535T301 542Q355 542 387 539T445 533Q452 532 457 529T463 518V516Z"  />
<glyph unicode="t" horiz-adv-x="380" d="M432 521L430 511Q427 496 408 496H290L220 102Q217 85 217 75Q217 46 233 40T277 33H325Q332 33 337 31T343 22V19L342 13Q341 7 337 3T322 -3Q311 -5 297 -5T270 -6Q224 -6 199 11T173 71Q173 85 176 102L246 496H146Q130 496 130 509V513L132 523Q134 532 140 534T154 537H254L270 630Q272 638 277 643T290 649H301Q314 649 314 635V630L298 537H416Q423 537 427 535T432 525V521Z"  />
<glyph unicode="u" horiz-adv-x="522" d="M544 518L455 19Q453 11 447 5T433 -1H425Q412 -1 412 15V18V19L414 35Q372 16 332 5T253 -7Q221 -7 193 1T144 26T111 71T99 137Q99 148 100 159T103 185L163 518Q165 526 171 531T185 537H192Q207 537 207 521V518L147 185Q145 172 144 160T143 137Q143 78 175 55T255 32Q293 32 336 44T421 74L500 518Q502 526 508 531T522 537H528Q544 537 544 521V518Z"  />
<glyph unicode="v" horiz-adv-x="480" d="M534 526Q534 522 530 512L319 57Q300 17 281 6T240 -6Q219 -6 203 5T181 57L130 512V516Q130 525 134 531T148 537H158Q163 537 167 534T173 519L221 68Q223 45 230 39T245 32Q253 32 260 38T279 68L487 519Q492 530 497 533T508 537H522Q534 537 534 526Z"  />
<glyph unicode="w" horiz-adv-x="752" d="M794 522Q794 519 792 513L601 50Q589 21 576 8T541 -6Q515 -6 508 9T498 53L459 431Q458 439 457 441T454 443Q452 443 450 441T445 431L272 53Q259 25 247 10T209 -6Q188 -6 180 7T169 50L140 513V514Q140 523 146 530T163 537H167Q173 537 176 533T180 523L207 60Q208 41 210 37T216 33Q219 33 222 37T233 59L409 445Q427 483 458 483Q472 483 482 474T495 445L535 59Q537 42 539 38T545 33Q548 33 551 37T563 60L752 523Q754 528 759 532T771 537H779Q787 537 790 533T794 522Z"  />
<glyph unicode="x" horiz-adv-x="493" d="M537 526Q537 517 530 510L321 272L453 25Q457 17 457 12Q457 7 454 4T442 0H431Q420 0 415 8L291 239L87 8Q81 0 73 0H61Q45 0 45 12Q45 17 50 24L271 276L144 513Q142 516 142 524Q142 537 157 537H167Q174 537 177 534T183 529L303 310L494 529Q498 534 503 535T514 537H523Q537 537 537 526Z"  />
<glyph unicode="y" horiz-adv-x="486" d="M539 525Q539 519 536 512L272 -56Q254 -94 238 -120T201 -163T153 -187T86 -195Q69 -195 54 -193T25 -189Q17 -187 12 -185T7 -177V-175L9 -164Q12 -150 28 -150H33Q44 -152 64 -154T96 -156Q123 -156 142 -151T177 -133T206 -100T233 -47L254 0H242Q219 0 208 10T191 56L136 513V516Q136 525 142 531T157 537H164Q169 537 172 533T177 523L231 63Q233 47 236 44T250 41H273L495 524Q497 529 503 533T516 537H527Q539 537 539 525Z"  />
<glyph unicode="z" horiz-adv-x="446" d="M481 496Q481 470 461 449L103 60Q100 56 98 53T94 48Q94 41 103 41H393Q399 41 405 39T411 29V26L409 16Q407 8 401 4T386 0H97Q77 0 65 13T53 44Q53 53 56 62T68 80L435 477Q440 482 440 488Q440 496 428 496H165Q159 496 154 498T148 508V511L150 521Q152 529 158 533T173 537H428Q456 537 468 525T481 496Z"  />
<glyph unicode="{" horiz-adv-x="300" d="M408 726L407 718Q406 710 400 706T385 702H339Q314 702 298 700T272 690T257 669T248 633L212 429Q202 376 183 340T120 273Q143 252 152 228T162 173Q162 161 161 148T157 119L121 -85Q118 -103 118 -116Q118 -139 133 -146T188 -154H234Q250 -154 250 -168V-169V-170L249 -178Q248 -186 242 -190T227 -195H181Q127 -195 101 -179T74 -118Q74 -103 77 -85L113 119Q119 152 119 175Q119 201 110 219T76 258L82 294Q104 308 118 321T142 349T157 383T168 429L204 633Q210 667 220 688T246 722T287 738T346 743H392Q408 743 408 729V727V726Z"  />
<glyph unicode="|" horiz-adv-x="224" d="M204 -176Q204 -184 200 -189T187 -195H177Q169 -195 165 -190T160 -176V724Q160 732 164 737T177 743H187Q195 743 199 738T204 724V-176H204Z"  />
<glyph unicode="}" horiz-adv-x="300" d="M323 665Q323 651 320 633L284 429Q281 412 279 398T277 371Q277 345 286 327T320 289L314 253Q291 239 277 226T254 198T240 165T229 119L193 -85Q187 -117 179 -138T156 -171T116 -189T51 -195H5Q-11 -195 -11 -181V-178L-10 -170Q-9 -162 -3 -158T12 -154H58Q82 -154 98 -152T124 -142T139 -121T149 -85L185 119Q195 172 214 208T276 273Q253 294 244 317T234 371Q234 397 240 429L276 633Q279 651 279 664Q279 687 264 694T209 702H163Q147 702 147 715V718L148 726Q149 734 155 738T170 743H216Q274 743 298 724T323 665Z"  />
<glyph unicode="~" horiz-adv-x="580" d="M554 459Q554 405 530 380T464 355Q441 355 423 363T387 387L330 442Q316 456 303 466T275 477Q251 477 236 462T221 409V379Q221 369 220 365T210 360H195Q182 360 182 379V409Q182 463 207 489T274 515Q297 515 315 506T351 481L408 426Q422 412 435 404T463 395Q489 395 502 408T515 459V490Q515 500 516 504T526 508H541Q554 508 554 490V459H554Z"  />
<glyph unicode="&#xA0;" horiz-adv-x="215" />
<glyph unicode="&#xA1;" horiz-adv-x="204" d="M216 523L203 449Q201 441 195 436T181 430H175Q159 430 159 446V449L172 523Q174 531 180 536T195 542H201Q216 542 216 527V523ZM185 344L91 -188Q89 -196 83 -201T68 -207H62Q47 -207 47 -191V-188L141 344Q143 352 149 357T163 363H169Q185 363 185 347V344Z"  />
<glyph unicode="&#xA2;" horiz-adv-x="580" d="M499 515L498 508Q497 500 492 497T478 494H475H474Q405 503 357 503Q314 503 282 488T227 446T189 383T167 303L156 236Q150 201 150 171Q150 110 178 72T274 33Q322 33 394 42H395H398Q413 42 413 31V29V28L412 21Q410 13 406 9T390 3Q364 0 338 -2T288 -6L270 -107Q268 -115 264 -120T251 -126H241Q234 -126 231 -122T228 -111V-108V-107L246 -5Q170 1 138 46T105 163Q105 180 107 198T112 236L123 303Q141 413 193 473T342 541L360 643Q362 651 367 656T380 662H390Q402 662 402 648V645V643L385 542Q408 541 433 539T483 533Q499 530 499 520V517V515Z"  />
<glyph unicode="&#xA3;" horiz-adv-x="580" d="M635 723L634 715Q633 700 617 700H610Q578 704 540 706T466 708Q418 708 385 691T330 645T295 575T274 486L261 412H506Q521 412 521 399V395L519 386Q517 378 511 374T496 369H253L218 169Q210 127 196 97T163 41H497Q504 41 509 39T515 30V27L513 16Q511 8 505 4T490 0H118Q108 0 105 5T101 16Q101 24 106 31Q132 64 148 94T172 169L207 369H154Q139 369 139 382V386L141 395Q143 403 149 407T164 412H215L228 486Q239 550 257 599T304 681T374 731T473 748Q513 748 551 746T619 739Q629 737 632 735T635 727V723Z"  />
<glyph unicode="&#xA4;" horiz-adv-x="580" d="M589 161Q589 154 584 149L577 142Q572 137 566 137Q558 137 551 144L470 226Q444 206 414 196T353 185Q322 185 293 195T237 225L157 145Q150 138 142 138Q136 138 131 143L124 150Q119 155 119 161Q119 169 126 176L205 255Q184 281 174 311T163 374Q163 439 204 491L126 569Q119 576 119 584Q119 591 124 596L131 603Q136 608 141 608Q149 608 157 600L235 522Q287 563 352 563Q384 563 414 553T471 521L551 601Q558 608 566 608Q572 608 577 603L584 596Q589 591 589 585Q589 577 582 570L502 490Q522 464 532 435T542 374Q542 343 532 313T501 257L582 176Q589 169 589 161ZM501 374Q501 405 490 431T458 478T410 509T353 521Q322 521 295 510T248 478T217 432T205 374Q205 343 216 316T248 269T295 238T353 226Q384 226 411 237T458 269T489 316T501 374Z"  />
<glyph unicode="&#xA5;" horiz-adv-x="580" d="M649 732Q649 725 643 716L477 471H600Q615 471 615 458V455L614 446Q613 438 606 434T591 430H449L366 309L361 279H566Q581 279 581 266V263L580 254Q579 246 572 242T557 238H354L315 19Q313 11 308 6T295 0H285Q278 0 275 4T271 15V19L310 238H105Q90 238 90 251V254L91 263Q92 271 99 275T114 279H317L322 309L283 430H139Q124 430 124 443V446L125 455Q126 463 133 467T148 471H269L189 716Q187 724 187 727Q187 743 205 743H217Q222 743 225 740T231 731L352 361L602 731Q605 736 610 739T620 743H634Q649 743 649 732Z"  />
<glyph unicode="&#xA6;" horiz-adv-x="224" d="M214 361Q214 353 210 348T197 342H187Q179 342 175 347T170 361V709Q170 717 174 722T187 728H197Q205 728 209 723T214 709V361ZM214 -192Q214 -200 210 -205T197 -211H187Q179 -211 175 -206T170 -192V156Q170 164 174 169T187 175H197Q205 175 209 170T214 156V-192Z"  />
<glyph unicode="&#xA7;" horiz-adv-x="521" d="M578 722L577 714Q576 706 570 702T555 698Q547 698 530 699T491 701T448 704T406 706Q368 706 331 701T264 681T216 637T197 562Q197 529 219 503T296 439L383 379Q453 330 478 291T504 213Q504 197 501 181Q495 146 484 120T452 70Q461 54 464 39T468 6Q468 -55 447 -97T390 -165T304 -204T199 -216Q150 -216 113 -214T47 -208Q33 -206 33 -192V-190V-189L34 -183Q36 -175 43 -171T58 -166H59H60Q98 -169 131 -171T206 -174Q250 -174 289 -165T358 -135T405 -81T423 1Q423 19 418 34T399 66T365 98T314 136L224 197Q160 240 138 276T115 348Q115 362 118 376Q126 418 139 440T172 483Q163 496 157 515T151 557Q151 616 173 653T233 711T317 740T414 748Q431 748 453 748T497 746T537 744T565 741Q572 740 575 736T578 725V723V722ZM460 210Q460 226 455 241T438 271T404 305T351 345L261 406Q242 419 228 430T201 452Q171 425 162 376Q160 369 160 363T160 352Q160 320 182 294T259 230L346 170Q373 151 393 136T427 104Q450 137 457 181Q460 196 460 210Z"  />
<glyph unicode="&#xA8;" horiz-adv-x="330" d="M392 735L379 661Q377 653 371 648T356 642H350Q335 642 335 657V661L348 735Q350 743 356 748T370 754H376Q392 754 392 738V735ZM242 735L229 661Q227 653 221 648T206 642H200Q185 642 185 657V661L198 735Q200 743 206 748T220 754H226Q242 754 242 738V735Z"  />
<glyph unicode="&#xA9;" horiz-adv-x="730" d="M763 374Q763 308 738 250T669 148T567 80T442 55Q376 55 318 80T216 148T148 249T123 374Q123 440 148 499T216 601T317 670T442 696Q508 696 566 671T668 602T737 499T763 374ZM724 374Q724 432 702 484T642 574T552 634T442 657Q383 657 332 635T243 574T182 484T160 374Q160 315 182 264T242 175T332 115T442 93Q500 93 551 115T641 175T702 264T724 374ZM543 183Q543 175 538 172T527 167Q516 165 493 163T430 161Q403 161 377 170T331 200T299 255T287 341V413Q287 464 299 498T331 554T377 584T430 593Q469 593 492 591T527 587Q532 586 537 583T543 572V564Q543 556 539 554T530 552H525Q510 554 483 555T430 557Q408 557 389 550T356 525T333 481T325 413V341Q325 301 333 274T355 229T389 205T430 197Q456 197 483 198T525 202H528Q533 202 538 200T543 188V183Z"  />
<glyph unicode="&#xAA;" horiz-adv-x="268" d="M346 669Q346 655 343 640L313 469Q311 456 299 453Q257 442 216 442Q166 442 143 458T120 511Q120 516 120 521T122 532L123 539Q130 585 164 605T270 626H307L309 640Q311 649 312 656T313 671Q313 694 302 703T262 713Q236 713 221 712T187 708H186H185Q180 708 176 710T171 717Q171 728 175 732T191 738Q208 740 224 741T267 743Q311 743 328 722T346 669ZM266 595Q236 595 216 592T183 582T164 565T155 539L154 532Q153 527 153 522T152 512Q152 491 166 482T221 472Q238 472 255 474T282 478L302 595H266Z"  />
<glyph unicode="&#xAB;" horiz-adv-x="535" d="M562 447Q562 435 550 426L344 264L493 102Q498 95 498 92Q498 87 491 81L483 74Q476 69 472 69Q466 69 458 77L308 240Q299 250 299 262Q299 271 304 280T319 298L525 461Q535 468 542 468Q548 468 552 464L560 454Q562 452 562 447ZM332 447Q332 435 320 426L114 264L263 102Q268 95 268 92Q268 87 261 81L253 74Q246 69 242 69Q236 69 228 77L78 240Q69 250 69 262Q69 271 74 280T89 298L295 461Q305 468 312 468Q318 468 322 464L330 454Q332 452 332 447Z"  />
<glyph unicode="&#xAC;" horiz-adv-x="580" d="M573 290Q573 282 569 276T557 270H547Q539 270 535 276T531 290V470H188Q180 470 174 474T168 486V496Q168 504 174 508T188 512H557Q565 512 569 507T573 494V290H573Z"  />
<glyph unicode="&#xAD;" horiz-adv-x="344" d="M342 281L340 273Q337 257 318 257H116Q100 257 100 270V273L102 281Q104 289 110 294T124 299H326Q342 299 342 284V281Z"  />
<glyph unicode="&#xAE;" horiz-adv-x="616" d="M661 484Q661 430 641 382T584 299T500 243T398 222Q344 222 296 242T212 298T156 382T135 484Q135 538 155 586T212 670T296 726T398 747Q452 747 500 727T584 670T640 586T661 484ZM626 484Q626 531 608 572T559 645T487 694T398 712Q351 712 310 694T237 645T189 573T171 484Q171 437 188 396T237 323T309 275T398 257Q445 257 486 274T559 323T608 395T626 484ZM517 330Q517 325 514 321T503 317H498Q494 317 491 319T485 324L394 463H393Q389 463 387 463T379 464H345H330V333Q330 328 326 323T315 317H311Q304 317 300 322T296 333V641Q296 646 300 651T310 657Q321 658 343 658T379 659Q439 659 472 638T505 562V560Q505 519 487 498T432 468L514 341Q517 336 517 330ZM471 562Q471 598 449 612T379 626Q368 626 355 626T330 625V497Q341 497 356 497T379 496Q430 496 450 509T471 560V562Z"  />
<glyph unicode="&#xAF;" horiz-adv-x="330" d="M444 715L442 704Q440 696 434 692T419 688H153Q136 688 136 701V704L138 715Q140 723 146 726T161 730H427Q444 730 444 718V715Z"  />
<glyph unicode="&#xB0;" horiz-adv-x="331" d="M417 613Q417 585 407 561T378 518T335 489T282 478Q254 478 230 488T187 517T157 560T146 613Q146 641 157 665T186 708T229 737T282 748Q310 748 334 738T377 709T406 666T417 613ZM379 613Q379 633 372 650T351 681T320 703T282 711Q262 711 244 703T213 682T193 651T185 613Q185 593 192 576T213 545T244 524T282 516Q302 516 319 523T350 544T371 575T379 613Z"  />
<glyph unicode="&#xB1;" horiz-adv-x="580" d="M577 386Q577 378 571 374T557 370H375V189Q375 181 371 175T359 169H349Q341 169 337 175T333 189V370H152Q144 370 138 374T132 386V396Q132 404 138 408T152 412H333V594Q333 602 337 608T349 614H359Q367 614 371 608T375 594V412H557Q565 412 571 408T577 396V386ZM577 16Q577 8 571 4T557 0H152Q144 0 138 4T132 16V26Q132 34 138 38T152 42H557Q565 42 571 38T577 26V16Z"  />
<glyph unicode="&#xB2;" horiz-adv-x="319" d="M192 709Q183 708 179 709T174 721V724Q174 740 197 743Q217 746 239 747T279 749Q337 749 367 730T398 668Q398 634 377 603T298 538L237 501Q210 485 194 471T168 443T154 415T146 384L144 370H322Q330 370 334 366T337 354L336 348Q334 339 329 336T315 332H115Q107 332 103 338T100 351L106 384Q110 406 116 425T135 461T167 495T219 532L281 570Q300 582 314 592T337 613T350 638T355 668Q355 690 336 702T272 714Q255 714 234 713T192 709Z"  />
<glyph unicode="&#xB3;" horiz-adv-x="319" d="M161 531Q153 531 149 535T146 548L147 552Q152 569 168 569H269Q295 569 311 578T337 601T349 630T352 658Q352 692 330 703T262 714Q247 714 226 712T184 708Q176 707 171 708T167 720L168 724Q170 731 173 735T187 742Q204 745 227 747T269 749Q327 749 360 731T394 658Q394 646 392 632T382 602T361 573T327 548Q347 532 354 515T361 471Q361 429 349 402T314 358T261 336T195 329Q177 329 155 331T116 336Q105 338 103 343T103 354L104 358Q106 368 111 369T125 370Q145 368 164 366T201 364Q264 364 292 390T320 471Q320 497 309 514T262 531H161Z"  />
<glyph unicode="&#xB4;" horiz-adv-x="330" d="M407 772Q407 768 402 763L283 635Q275 627 271 623T258 618H232Q224 618 224 624Q224 629 230 635L342 763Q350 772 354 775T367 778H397Q407 778 407 772Z"  />
<glyph unicode="&#xB5;" horiz-adv-x="521" d="M542 518L458 38Q457 32 452 27T442 20Q403 8 355 1T266 -6Q215 -6 179 9T123 54L83 -176Q81 -184 76 -189T63 -195H53Q39 -195 39 -179V-176L161 518Q163 526 169 531T184 537H191Q205 537 205 521V518L147 185Q143 162 143 139Q143 83 175 58T273 33Q305 33 345 38T416 52L498 518Q500 526 506 531T521 537H527Q542 537 542 521V518Z"  />
<glyph unicode="&#xB6;" horiz-adv-x="599" d="M658 731Q658 729 658 728T657 724L498 -176Q496 -184 491 -189T478 -195H468Q454 -195 454 -179V-176L609 702H553L398 -176Q396 -184 391 -189T378 -195H368Q354 -195 354 -179V-176L433 275H324Q233 275 181 319T128 447Q128 459 129 471T133 498L137 520Q147 574 171 615T230 685T310 728T407 743H644Q658 743 658 731Z"  />
<glyph unicode="&#xB7;" horiz-adv-x="168" d="M183 434L169 360Q167 352 161 347T147 341H141Q125 341 125 357V360L139 434Q141 442 147 447T161 453H167Q183 453 183 437V434Z"  />
<glyph unicode="&#xB8;" horiz-adv-x="330" d="M192 -53Q192 -58 187 -63L69 -178Q61 -186 57 -190T44 -195H22Q14 -195 14 -189Q14 -184 20 -178L131 -63Q139 -55 144 -52T157 -48H183Q192 -48 192 -53Z"  />
<glyph unicode="&#xB9;" horiz-adv-x="210" d="M216 707L160 699Q147 697 144 702T143 718Q145 729 150 732T164 737L242 748Q257 750 259 744T260 729L193 350Q191 342 187 337T174 332H166Q157 332 155 337T153 350L216 707Z"  />
<glyph unicode="&#xBA;" horiz-adv-x="287" d="M369 647Q369 639 368 630T365 611L358 574Q345 508 312 475T222 442Q174 442 151 469T127 539Q127 547 128 556T131 574L138 611Q163 743 275 743Q323 743 346 717T369 647ZM336 649Q336 681 321 697T270 713Q226 713 203 684T171 611L164 574Q160 555 160 537Q160 472 227 472Q271 472 294 500T325 574L332 611Q336 630 336 649Z"  />
<glyph unicode="&#xBB;" horiz-adv-x="535" d="M561 275Q561 266 556 257T541 239L335 76Q330 73 327 71T318 69Q312 69 308 73L300 83Q298 85 298 90Q298 102 310 111L516 273L367 435Q362 442 362 445Q362 450 369 456L377 463Q384 468 388 468Q392 468 395 466T402 460L552 297Q561 286 561 275ZM331 275Q331 266 326 257T311 239L105 76Q100 73 97 71T88 69Q82 69 78 73L70 83Q68 85 68 90Q68 102 80 111L286 273L137 435Q132 442 132 445Q132 450 139 456L147 463Q154 468 158 468Q164 468 172 460L322 297Q331 286 331 275Z"  />
<glyph unicode="&#xBC;" horiz-adv-x="688" d="M242 707L186 699Q173 697 170 702T169 718Q171 729 176 732T190 737L268 748Q283 750 285 744T286 729L219 350Q217 342 213 337T200 332H192Q183 332 181 337T179 350L242 707ZM665 743Q676 743 678 738T675 724L133 13Q125 2 120 -2T102 -6H91Q80 -6 78 0T83 17L622 724Q630 735 636 739T653 743H665ZM588 154L625 361Q626 368 620 362L450 161Q447 158 448 156T452 154H588ZM577 0Q568 0 565 5T564 18L582 117H450Q433 117 423 123T410 140T410 161T421 183L606 398Q617 411 627 414T646 417Q674 417 668 379L628 154H674Q681 154 686 152T690 138L689 133Q686 117 668 117H622L604 18Q601 0 585 0H577Z"  />
<glyph unicode="&#xBD;" horiz-adv-x="736" d="M242 707L186 699Q173 697 170 702T169 718Q171 729 176 732T190 737L268 748Q283 750 285 744T286 729L219 350Q217 342 213 337T200 332H192Q183 332 181 337T179 350L242 707ZM665 743Q676 743 678 738T675 724L133 13Q125 2 120 -2T102 -6H91Q80 -6 78 0T83 17L622 724Q630 735 636 739T653 743H665ZM533 377Q524 376 520 377T515 389V392Q515 408 538 411Q558 414 580 415T620 417Q678 417 708 398T739 336Q739 302 718 271T639 206L578 169Q551 153 535 139T509 111T495 83T487 52L485 38H663Q671 38 675 34T678 22L677 16Q675 7 670 4T656 0H456Q448 0 444 6T441 19L447 52Q451 74 457 93T476 129T508 163T560 200L622 238Q641 250 655 260T678 281T691 306T696 336Q696 358 677 370T613 382Q596 382 575 381T533 377Z"  />
<glyph unicode="&#xBE;" horiz-adv-x="735" d="M712 743Q723 743 725 738T722 724L180 13Q172 2 167 -2T149 -6H138Q127 -6 125 0T130 17L669 724Q677 735 683 739T700 743H712ZM635 154L672 361Q673 368 667 362L497 161Q494 158 495 156T499 154H635ZM624 0Q615 0 612 5T611 18L629 117H497Q480 117 470 123T457 140T457 161T468 183L653 398Q664 411 674 414T693 417Q721 417 715 379L675 154H721Q728 154 733 152T737 138L736 133Q733 117 715 117H669L651 18Q648 0 632 0H624ZM136 531Q128 531 124 535T121 548L122 552Q127 569 143 569H244Q270 569 286 578T312 601T324 630T327 658Q327 692 305 703T237 714Q222 714 201 712T159 708Q151 707 146 708T142 720L143 724Q145 731 148 735T162 742Q179 745 202 747T244 749Q302 749 335 731T369 658Q369 646 367 632T357 602T336 573T302 548Q322 532 329 515T336 471Q336 429 324 402T289 358T236 336T170 329Q152 329 130 331T91 336Q80 338 78 343T78 354L79 358Q81 368 86 369T100 370Q120 368 139 366T176 364Q239 364 267 390T295 471Q295 497 284 514T237 531H136Z"  />
<glyph unicode="&#xBF;" horiz-adv-x="424" d="M397 524L384 450Q382 442 376 437T361 431H355Q340 431 340 447V449V450L353 524Q355 532 361 537T375 543H381Q397 543 397 527V525V524ZM364 345L354 285Q350 259 343 240T325 203T296 169T252 129L219 101Q183 70 161 49T125 10T105 -24T97 -58L96 -66Q95 -72 95 -77T95 -87Q95 -133 125 -152T222 -172Q240 -172 254 -172T281 -170T309 -168T342 -165H343H344Q357 -165 357 -175V-176V-177L356 -185Q355 -192 351 -197T335 -204Q303 -208 274 -209T215 -211Q140 -211 94 -181T47 -88Q47 -83 47 -78T48 -66L49 -58Q52 -34 59 -15T82 26T124 72T192 131L228 161Q251 180 265 194T289 222T302 249T310 285L320 345Q322 353 328 358T342 364H348Q364 364 364 348V346V345Z"  />
<glyph unicode="&#xC0;" horiz-adv-x="619" d="M583 18Q583 9 579 3T564 -3H554Q543 -3 541 10L505 281H217L87 10Q85 5 79 1T68 -3H53Q40 -3 40 9Q40 12 41 15T44 22L368 699Q392 748 442 748Q466 748 480 736T497 700L583 22V18ZM456 687Q455 695 450 701T437 707Q428 707 421 702T410 688L236 325H501L456 687ZM498 802Q498 793 488 793H470Q462 793 459 797T451 810L367 938Q364 942 364 945Q364 953 376 953H398Q406 953 410 950T419 938L496 810Q498 807 498 802Z"  />
<glyph unicode="&#xC1;" horiz-adv-x="619" d="M583 18Q583 9 579 3T564 -3H554Q543 -3 541 10L505 281H217L87 10Q85 5 79 1T68 -3H53Q40 -3 40 9Q40 12 41 15T44 22L368 699Q392 748 442 748Q466 748 480 736T497 700L583 22V18ZM456 687Q455 695 450 701T437 707Q428 707 421 702T410 688L236 325H501L456 687ZM569 948Q569 944 564 939L445 811Q437 803 433 799T420 794H394Q386 794 386 800Q386 805 392 811L504 939Q512 948 516 951T529 954H559Q569 954 569 948Z"  />
<glyph unicode="&#xC2;" horiz-adv-x="619" d="M583 18Q583 9 579 3T564 -3H554Q543 -3 541 10L505 281H217L87 10Q85 5 79 1T68 -3H53Q40 -3 40 9Q40 12 41 15T44 22L368 699Q392 748 442 748Q466 748 480 736T497 700L583 22V18ZM456 687Q455 695 450 701T437 707Q428 707 421 702T410 688L236 325H501L456 687ZM598 803Q598 794 588 794H569Q561 794 558 798T550 811L476 924L362 811Q354 803 350 799T337 794H312Q304 794 304 800Q304 805 310 811L433 939Q441 947 445 950T458 954H498Q506 954 510 951T519 939L596 811Q598 808 598 803Z"  />
<glyph unicode="&#xC3;" horiz-adv-x="619" d="M583 18Q583 9 579 3T564 -3H554Q543 -3 541 10L505 281H217L87 10Q85 5 79 1T68 -3H53Q40 -3 40 9Q40 12 41 15T44 22L368 699Q392 748 442 748Q466 748 480 736T497 700L583 22V18ZM456 687Q455 695 450 701T437 707Q428 707 421 702T410 688L236 325H501L456 687ZM638 912Q638 910 638 909T637 905L633 879Q626 833 602 811T541 789Q521 789 504 795T465 827L437 861Q427 873 417 880T395 887Q377 887 363 878T343 836L339 810Q337 802 335 798T326 794H305Q296 794 296 803Q296 805 296 806T297 810L301 836Q308 882 333 904T395 926Q415 926 431 920T468 889L497 854Q518 828 541 828Q559 828 572 837T591 879L595 905Q597 913 599 917T608 921H629Q638 921 638 912Z"  />
<glyph unicode="&#xC4;" horiz-adv-x="619" d="M583 18Q583 9 579 3T564 -3H554Q543 -3 541 10L505 281H217L87 10Q85 5 79 1T68 -3H53Q40 -3 40 9Q40 12 41 15T44 22L368 699Q392 748 442 748Q466 748 480 736T497 700L583 22V18ZM456 687Q455 695 450 701T437 707Q428 707 421 702T410 688L236 325H501L456 687ZM568 907L555 833Q553 825 547 820T532 814H526Q511 814 511 829V833L524 907Q526 915 532 920T546 926H552Q568 926 568 910V907ZM418 907L405 833Q403 825 397 820T382 814H376Q361 814 361 829V833L374 907Q376 915 382 920T396 926H402Q418 926 418 910V907Z"  />
<glyph unicode="&#xC5;" horiz-adv-x="619" d="M583 18Q583 9 579 3T564 -3H554Q543 -3 541 10L505 281H217L87 10Q85 5 79 1T68 -3H53Q40 -3 40 9Q40 12 41 15T44 22L368 699Q392 748 442 748Q466 748 480 736T497 700L583 22V18ZM456 687Q455 695 450 701T437 707Q428 707 421 702T410 688L236 325H501L456 687ZM556 868Q556 849 549 832T529 803T499 783T463 775Q444 775 427 782T398 802T378 832T370 868Q370 887 377 904T397 933T427 953T463 961Q482 961 499 954T528 934T548 904T556 868ZM521 868Q521 892 504 909T463 926Q439 926 423 909T406 868Q406 844 422 827T463 810Q487 810 504 827T521 868Z"  />
<glyph unicode="&#xC6;" horiz-adv-x="879" d="M950 726L949 718Q948 710 942 706T927 702H592L540 411H875Q882 411 887 408T892 398V395L890 385Q887 368 868 368H533L482 81Q481 76 481 72T480 64Q480 52 487 47T514 41H810Q826 41 826 28V25L825 17Q824 9 818 5T803 0H507Q471 0 454 15T436 60Q436 65 436 70T438 81L474 281H206L76 10Q74 5 68 1T57 -3H44Q31 -3 31 9Q31 12 32 15T35 22L358 694Q369 717 388 730T432 743H934Q950 743 950 729V726ZM425 702Q416 702 409 697T398 683L225 325H481L548 702H425Z"  />
<glyph unicode="&#xC7;" horiz-adv-x="537" d="M624 721L622 709Q620 701 617 699T607 697H603H601Q588 698 568 700T525 703T477 705T429 706Q385 706 346 692T274 647T218 564T181 437L158 305Q149 251 149 211Q149 162 161 129T194 75T245 45T311 36Q334 36 359 37T407 39T451 41T486 45H488H492Q503 45 503 37V33L501 21Q499 13 493 9T479 4Q459 2 416 -2T304 -6Q265 -6 229 5T166 42T122 110T105 212Q105 254 114 305L137 437Q153 528 182 588T252 683T339 733T437 748Q506 748 547 744T608 738Q614 737 619 734T624 723V721ZM346 -53Q346 -57 340 -63L210 -191Q202 -199 198 -203T185 -208H163Q156 -208 156 -202Q156 -198 161 -191L284 -63Q292 -55 297 -52T310 -48H336Q346 -48 346 -53Z"  />
<glyph unicode="&#xC8;" horiz-adv-x="533" d="M606 726L605 718Q604 710 598 706T583 702H325Q306 702 291 700T265 690T247 668T235 631L196 411H531Q538 411 543 408T548 398V395L546 385Q543 368 524 368H189L144 112Q142 105 142 99T142 88Q142 58 159 50T208 41H466Q482 41 482 28V25L481 17Q480 9 474 5T459 0H201Q152 0 125 20T97 85Q97 97 100 112L191 631Q202 696 236 719T332 743H590Q606 743 606 729V726ZM488 803Q488 794 478 794H460Q452 794 449 798T441 811L357 939Q354 943 354 946Q354 954 366 954H388Q396 954 400 951T409 939L486 811Q488 808 488 803Z"  />
<glyph unicode="&#xC9;" horiz-adv-x="533" d="M606 726L605 718Q604 710 598 706T583 702H325Q306 702 291 700T265 690T247 668T235 631L196 411H531Q538 411 543 408T548 398V395L546 385Q543 368 524 368H189L144 112Q142 105 142 99T142 88Q142 58 159 50T208 41H466Q482 41 482 28V25L481 17Q480 9 474 5T459 0H201Q152 0 125 20T97 85Q97 97 100 112L191 631Q202 696 236 719T332 743H590Q606 743 606 729V726ZM559 948Q559 944 554 939L435 811Q427 803 423 799T410 794H384Q376 794 376 800Q376 805 382 811L494 939Q502 948 506 951T519 954H549Q559 954 559 948Z"  />
<glyph unicode="&#xCA;" horiz-adv-x="533" d="M606 726L605 718Q604 710 598 706T583 702H325Q306 702 291 700T265 690T247 668T235 631L196 411H531Q538 411 543 408T548 398V395L546 385Q543 368 524 368H189L144 112Q142 105 142 99T142 88Q142 58 159 50T208 41H466Q482 41 482 28V25L481 17Q480 9 474 5T459 0H201Q152 0 125 20T97 85Q97 97 100 112L191 631Q202 696 236 719T332 743H590Q606 743 606 729V726ZM569 803Q569 794 559 794H540Q532 794 529 798T521 811L447 924L333 811Q325 803 321 799T308 794H283Q275 794 275 800Q275 805 281 811L404 939Q412 947 416 950T429 954H469Q477 954 481 951T490 939L567 811Q569 808 569 803Z"  />
<glyph unicode="&#xCB;" horiz-adv-x="533" d="M606 726L605 718Q604 710 598 706T583 702H325Q306 702 291 700T265 690T247 668T235 631L196 411H531Q538 411 543 408T548 398V395L546 385Q543 368 524 368H189L144 112Q142 105 142 99T142 88Q142 58 159 50T208 41H466Q482 41 482 28V25L481 17Q480 9 474 5T459 0H201Q152 0 125 20T97 85Q97 97 100 112L191 631Q202 696 236 719T332 743H590Q606 743 606 729V726ZM541 906L528 832Q526 824 520 819T505 813H499Q484 813 484 828V832L497 906Q499 914 505 919T519 925H525Q541 925 541 909V906ZM391 906L378 832Q376 824 370 819T355 813H349Q334 813 334 828V832L347 906Q349 914 355 919T369 925H375Q391 925 391 909V906Z"  />
<glyph unicode="&#xCC;" horiz-adv-x="224" d="M262 724L137 19Q135 11 130 6T117 0H107Q100 0 97 4T93 15V19L218 724Q220 732 225 737T238 743H248Q255 743 258 739T262 728V724ZM300 803Q300 794 290 794H272Q264 794 261 798T253 811L169 939Q166 943 166 946Q166 954 178 954H200Q208 954 212 951T221 939L298 811Q300 808 300 803Z"  />
<glyph unicode="&#xCD;" horiz-adv-x="224" d="M262 724L137 19Q135 11 130 6T117 0H107Q100 0 97 4T93 15V19L218 724Q220 732 225 737T238 743H248Q255 743 258 739T262 728V724ZM386 948Q386 944 381 939L262 811Q254 803 250 799T237 794H211Q203 794 203 800Q203 805 209 811L321 939Q329 948 333 951T346 954H376Q386 954 386 948Z"  />
<glyph unicode="&#xCE;" horiz-adv-x="224" d="M262 724L137 19Q135 11 130 6T117 0H107Q100 0 97 4T93 15V19L218 724Q220 732 225 737T238 743H248Q255 743 258 739T262 728V724ZM403 803Q403 794 393 794H374Q366 794 363 798T355 811L281 924L167 811Q159 803 155 799T142 794H117Q109 794 109 800Q109 805 115 811L238 939Q246 947 250 950T263 954H303Q311 954 315 951T324 939L401 811Q403 808 403 803Z"  />
<glyph unicode="&#xCF;" horiz-adv-x="224" d="M262 724L137 19Q135 11 130 6T117 0H107Q100 0 97 4T93 15V19L218 724Q220 732 225 737T238 743H248Q255 743 258 739T262 728V724ZM370 907L357 833Q355 825 349 820T334 814H328Q313 814 313 829V833L326 907Q328 915 334 920T348 926H354Q370 926 370 910V907ZM220 907L207 833Q205 825 199 820T184 814H178Q163 814 163 829V833L176 907Q178 915 184 920T198 926H204Q220 926 220 910V907Z"  />
<glyph unicode="&#xD0;" horiz-adv-x="613" d="M637 521Q637 501 636 479T629 433L607 309Q591 218 559 158T481 61T380 9T260 -6Q200 -6 159 -4T97 2Q84 4 84 18V20V21L145 368H74Q58 368 58 382V384V385L60 395Q63 411 81 411H152L207 721Q209 728 214 733T227 740Q250 744 291 746T393 748Q447 748 492 736T569 696T619 625T637 521ZM594 521Q594 576 578 612T535 670T469 700T386 709Q342 709 312 707T248 703L196 411H281Q298 411 298 398V396V395L296 385Q293 368 274 368H189L131 37Q163 35 193 34T267 33Q319 33 367 48T454 96T521 181T563 309L585 433Q594 482 594 521Z"  />
<glyph unicode="&#xD1;" horiz-adv-x="651" d="M654 724Q656 732 660 737T675 743H683Q702 743 699 724L579 44Q574 20 560 7T526 -6Q507 -6 497 0T480 26L262 699Q260 706 254 706Q248 706 247 699L127 19Q125 11 121 6T103 0H98Q87 0 84 6T83 19L203 699Q208 727 224 737T256 748Q277 748 287 739T303 717L521 43Q523 36 527 36Q532 36 534 44L654 724H654ZM647 912Q647 910 647 909T646 905L642 879Q635 833 611 811T550 789Q530 789 513 795T474 827L446 861Q436 873 426 880T404 887Q386 887 372 878T352 836L348 810Q346 802 344 798T335 794H314Q305 794 305 803Q305 805 305 806T306 810L310 836Q317 882 342 904T404 926Q424 926 440 920T477 889L506 854Q527 828 550 828Q568 828 581 837T600 879L604 905Q606 913 608 917T617 921H638Q647 921 647 912Z"  />
<glyph unicode="&#xD2;" horiz-adv-x="632" d="M657 525Q657 484 648 433L626 309Q611 223 581 163T511 66T421 11T315 -6Q268 -6 230 7T164 47T121 116T105 216Q105 258 114 309L136 433Q152 522 181 582T251 679T342 732T448 748Q495 748 533 735T599 694T642 624T657 525ZM613 527Q613 578 600 612T564 667T510 697T440 706Q394 706 353 693T278 647T219 563T180 433L158 309Q149 255 149 214Q149 164 161 130T196 75T251 45T322 36Q368 36 410 51T485 99T544 183T582 309L604 433Q613 485 613 527ZM530 802Q530 793 520 793H502Q494 793 491 797T483 810L399 938Q396 942 396 945Q396 953 408 953H430Q438 953 442 950T451 938L528 810Q530 807 530 802Z"  />
<glyph unicode="&#xD3;" horiz-adv-x="632" d="M657 525Q657 484 648 433L626 309Q611 223 581 163T511 66T421 11T315 -6Q268 -6 230 7T164 47T121 116T105 216Q105 258 114 309L136 433Q152 522 181 582T251 679T342 732T448 748Q495 748 533 735T599 694T642 624T657 525ZM613 527Q613 578 600 612T564 667T510 697T440 706Q394 706 353 693T278 647T219 563T180 433L158 309Q149 255 149 214Q149 164 161 130T196 75T251 45T322 36Q368 36 410 51T485 99T544 183T582 309L604 433Q613 485 613 527ZM613 947Q613 943 608 938L489 810Q481 802 477 798T464 793H438Q430 793 430 799Q430 804 436 810L548 938Q556 947 560 950T573 953H603Q613 953 613 947Z"  />
<glyph unicode="&#xD4;" horiz-adv-x="632" d="M657 525Q657 484 648 433L626 309Q611 223 581 163T511 66T421 11T315 -6Q268 -6 230 7T164 47T121 116T105 216Q105 258 114 309L136 433Q152 522 181 582T251 679T342 732T448 748Q495 748 533 735T599 694T642 624T657 525ZM613 527Q613 578 600 612T564 667T510 697T440 706Q394 706 353 693T278 647T219 563T180 433L158 309Q149 255 149 214Q149 164 161 130T196 75T251 45T322 36Q368 36 410 51T485 99T544 183T582 309L604 433Q613 485 613 527ZM605 803Q605 794 595 794H576Q568 794 565 798T557 811L483 924L369 811Q361 803 357 799T344 794H319Q311 794 311 800Q311 805 317 811L440 939Q448 947 452 950T465 954H505Q513 954 517 951T526 939L603 811Q605 808 605 803Z"  />
<glyph unicode="&#xD5;" horiz-adv-x="632" d="M657 525Q657 484 648 433L626 309Q611 223 581 163T511 66T421 11T315 -6Q268 -6 230 7T164 47T121 116T105 216Q105 258 114 309L136 433Q152 522 181 582T251 679T342 732T448 748Q495 748 533 735T599 694T642 624T657 525ZM613 527Q613 578 600 612T564 667T510 697T440 706Q394 706 353 693T278 647T219 563T180 433L158 309Q149 255 149 214Q149 164 161 130T196 75T251 45T322 36Q368 36 410 51T485 99T544 183T582 309L604 433Q613 485 613 527ZM643 912Q643 910 643 909T642 905L638 879Q631 833 607 811T546 789Q526 789 509 795T470 827L442 861Q432 873 422 880T400 887Q382 887 368 878T348 836L344 810Q342 802 340 798T331 794H310Q301 794 301 803Q301 805 301 806T302 810L306 836Q313 882 338 904T400 926Q420 926 436 920T473 889L502 854Q523 828 546 828Q564 828 577 837T596 879L600 905Q602 913 604 917T613 921H634Q643 921 643 912Z"  />
<glyph unicode="&#xD6;" horiz-adv-x="632" d="M657 525Q657 484 648 433L626 309Q611 223 581 163T511 66T421 11T315 -6Q268 -6 230 7T164 47T121 116T105 216Q105 258 114 309L136 433Q152 522 181 582T251 679T342 732T448 748Q495 748 533 735T599 694T642 624T657 525ZM613 527Q613 578 600 612T564 667T510 697T440 706Q394 706 353 693T278 647T219 563T180 433L158 309Q149 255 149 214Q149 164 161 130T196 75T251 45T322 36Q368 36 410 51T485 99T544 183T582 309L604 433Q613 485 613 527ZM568 906L555 832Q553 824 547 819T532 813H526Q511 813 511 828V832L524 906Q526 914 532 919T546 925H552Q568 925 568 909V906ZM418 906L405 832Q403 824 397 819T382 813H376Q361 813 361 828V832L374 906Q376 914 382 919T396 925H402Q418 925 418 909V906Z"  />
<glyph unicode="&#xD7;" horiz-adv-x="580" d="M544 549Q544 541 536 533L393 391L536 248Q544 240 544 232Q544 227 539 222L532 215Q527 210 522 210Q514 210 506 218L364 361L222 219Q214 211 206 211Q201 211 196 216L189 223Q184 228 184 233Q184 241 192 249L334 391L192 533Q184 541 184 548Q184 553 189 558L196 565Q201 570 206 570Q214 570 222 562L364 420L506 563Q514 571 522 571Q527 571 532 566L539 559Q544 554 544 549Z"  />
<glyph unicode="&#xD8;" horiz-adv-x="632" d="M728 734Q728 728 724 724L640 630Q657 585 657 525Q657 484 648 433L626 309Q611 223 581 163T511 66T421 11T315 -6Q258 -6 214 13T142 73L82 6Q77 0 72 -3T59 -6H43Q34 -6 34 3Q34 9 38 13L123 108Q105 153 105 216Q105 258 114 309L136 433Q152 522 181 582T251 679T342 732T448 748Q506 748 550 728T622 666L682 733Q687 739 691 741T703 743H719Q728 743 728 734ZM592 632Q570 673 531 689T440 706Q394 706 353 693T278 647T219 563T180 433L158 309Q149 255 149 214Q149 194 151 178T157 146L592 632ZM613 527Q613 565 606 592L172 107Q193 69 232 53T322 36Q368 36 410 51T485 99T544 183T582 309L604 433Q613 485 613 527Z"  />
<glyph unicode="&#xD9;" horiz-adv-x="633" d="M681 724L600 264Q589 199 568 149T512 65T429 12T316 -6Q214 -6 167 45T119 186Q119 204 121 223T127 264L208 724Q210 732 215 737T228 743H238Q252 743 252 727V724L171 264Q167 242 165 223T163 185Q163 110 200 73T323 35Q423 35 479 93T556 264L637 724Q639 732 644 737T657 743H667Q681 743 681 727V724ZM501 802Q501 793 491 793H473Q465 793 462 797T454 810L370 938Q367 942 367 945Q367 953 379 953H401Q409 953 413 950T422 938L499 810Q501 807 501 802Z"  />
<glyph unicode="&#xDA;" horiz-adv-x="633" d="M681 724L600 264Q589 199 568 149T512 65T429 12T316 -6Q214 -6 167 45T119 186Q119 204 121 223T127 264L208 724Q210 732 215 737T228 743H238Q252 743 252 727V724L171 264Q167 242 165 223T163 185Q163 110 200 73T323 35Q423 35 479 93T556 264L637 724Q639 732 644 737T657 743H667Q681 743 681 727V724ZM597 947Q597 943 592 938L473 810Q465 802 461 798T448 793H422Q414 793 414 799Q414 804 420 810L532 938Q540 947 544 950T557 953H587Q597 953 597 947Z"  />
<glyph unicode="&#xDB;" horiz-adv-x="633" d="M681 724L600 264Q589 199 568 149T512 65T429 12T316 -6Q214 -6 167 45T119 186Q119 204 121 223T127 264L208 724Q210 732 215 737T228 743H238Q252 743 252 727V724L171 264Q167 242 165 223T163 185Q163 110 200 73T323 35Q423 35 479 93T556 264L637 724Q639 732 644 737T657 743H667Q681 743 681 727V724ZM601 803Q601 794 591 794H572Q564 794 561 798T553 811L479 924L365 811Q357 803 353 799T340 794H315Q307 794 307 800Q307 805 313 811L436 939Q444 947 448 950T461 954H501Q509 954 513 951T522 939L599 811Q601 808 601 803Z"  />
<glyph unicode="&#xDC;" horiz-adv-x="633" d="M681 724L600 264Q589 199 568 149T512 65T429 12T316 -6Q214 -6 167 45T119 186Q119 204 121 223T127 264L208 724Q210 732 215 737T228 743H238Q252 743 252 727V724L171 264Q167 242 165 223T163 185Q163 110 200 73T323 35Q423 35 479 93T556 264L637 724Q639 732 644 737T657 743H667Q681 743 681 727V724ZM563 907L550 833Q548 825 542 820T527 814H521Q506 814 506 829V833L519 907Q521 915 527 920T541 926H547Q563 926 563 910V907ZM413 907L400 833Q398 825 392 820T377 814H371Q356 814 356 829V833L369 907Q371 915 377 920T391 926H397Q413 926 413 910V907Z"  />
<glyph unicode="&#xDD;" horiz-adv-x="550" d="M634 732Q634 726 628 716L409 367Q392 339 378 327T351 309L300 19Q298 11 293 6T280 0H270Q263 0 260 4T256 15V19L307 309Q296 314 288 326T271 367L174 716Q173 719 173 725Q173 743 193 743H201Q206 743 209 740T215 731L310 381Q316 359 320 353T334 346Q343 346 349 352T370 381L589 731Q592 736 597 739T607 743H619Q634 743 634 732ZM549 948Q549 944 544 939L425 811Q417 803 413 799T400 794H374Q366 794 366 800Q366 805 372 811L484 939Q492 948 496 951T509 954H539Q549 954 549 948Z"  />
<glyph unicode="&#xDE;" horiz-adv-x="540" d="M588 491Q588 469 584 449L581 432Q570 373 546 333T484 267T392 230T271 218Q242 218 213 219T163 222L127 19Q125 11 120 6T107 0H97Q90 0 87 4T83 15V19L208 724Q210 732 215 737T228 743H238Q245 743 248 739T252 728V724L238 649Q264 651 294 651T349 652Q465 652 526 612T588 491ZM544 490Q544 559 493 586T342 613Q310 613 282 613T232 610L170 261Q193 259 222 258T278 257Q394 257 457 297T537 432L540 449Q542 460 543 470T544 490Z"  />
<glyph unicode="&#xDF;" horiz-adv-x="543" d="M572 598Q572 582 569 564L568 557Q563 526 550 500T516 452T472 416T421 391Q471 375 499 334T527 240Q527 234 527 229T526 217L525 209Q517 150 494 109T435 43T353 6T254 -6Q244 -6 237 -5T214 -3Q198 -3 198 12V15L199 23Q200 31 205 33T218 35H220H221Q239 34 245 34T261 33Q305 33 342 42T409 73T456 127T481 209L482 217Q483 223 483 229T484 242Q484 270 475 293T447 334T398 360T326 370H285Q278 370 273 373T268 382V386L270 395Q273 411 292 411H333Q377 411 410 423T468 456T506 502T524 557L525 564Q527 575 527 582T528 598Q528 650 499 679T400 709Q370 709 340 699T285 665T239 604T210 514L123 20Q121 12 116 6T102 0H90Q78 0 78 13Q78 15 78 16T79 20L165 513Q176 577 199 622T253 695T324 735T407 748Q483 748 527 709T572 598Z"  />
<glyph unicode="&#xE0;" horiz-adv-x="504" d="M524 511Q524 509 524 508T523 504L438 20Q436 12 430 6T416 0H408Q393 0 393 16Q393 17 393 18T394 20L400 53Q360 32 317 13T228 -6Q197 -6 171 2T125 29T94 74T83 138Q83 158 88 186L108 299Q120 364 139 410T187 485T255 528T347 542Q390 542 434 536T511 523Q524 520 524 511ZM476 490Q450 495 413 499T340 503Q256 503 213 450T152 299L132 186Q127 158 127 138Q127 105 136 85T160 53T196 37T238 33Q276 33 314 49T407 95L476 490ZM410 627Q410 618 400 618H382Q374 618 371 622T363 635L279 763Q276 767 276 770Q276 778 288 778H310Q318 778 322 775T331 763L408 635Q410 632 410 627Z"  />
<glyph unicode="&#xE1;" horiz-adv-x="504" d="M524 511Q524 509 524 508T523 504L438 20Q436 12 430 6T416 0H408Q393 0 393 16Q393 17 393 18T394 20L400 53Q360 32 317 13T228 -6Q197 -6 171 2T125 29T94 74T83 138Q83 158 88 186L108 299Q120 364 139 410T187 485T255 528T347 542Q390 542 434 536T511 523Q524 520 524 511ZM476 490Q450 495 413 499T340 503Q256 503 213 450T152 299L132 186Q127 158 127 138Q127 105 136 85T160 53T196 37T238 33Q276 33 314 49T407 95L476 490ZM484 772Q484 768 479 763L360 635Q352 627 348 623T335 618H309Q301 618 301 624Q301 629 307 635L419 763Q427 772 431 775T444 778H474Q484 778 484 772Z"  />
<glyph unicode="&#xE2;" horiz-adv-x="504" d="M524 511Q524 509 524 508T523 504L438 20Q436 12 430 6T416 0H408Q393 0 393 16Q393 17 393 18T394 20L400 53Q360 32 317 13T228 -6Q197 -6 171 2T125 29T94 74T83 138Q83 158 88 186L108 299Q120 364 139 410T187 485T255 528T347 542Q390 542 434 536T511 523Q524 520 524 511ZM476 490Q450 495 413 499T340 503Q256 503 213 450T152 299L132 186Q127 158 127 138Q127 105 136 85T160 53T196 37T238 33Q276 33 314 49T407 95L476 490ZM503 627Q503 618 493 618H474Q466 618 463 622T455 635L381 748L267 635Q259 627 255 623T242 618H217Q209 618 209 624Q209 629 215 635L338 763Q346 771 350 774T363 778H403Q411 778 415 775T424 763L501 635Q503 632 503 627Z"  />
<glyph unicode="&#xE3;" horiz-adv-x="504" d="M524 511Q524 509 524 508T523 504L438 20Q436 12 430 6T416 0H408Q393 0 393 16Q393 17 393 18T394 20L400 53Q360 32 317 13T228 -6Q197 -6 171 2T125 29T94 74T83 138Q83 158 88 186L108 299Q120 364 139 410T187 485T255 528T347 542Q390 542 434 536T511 523Q524 520 524 511ZM476 490Q450 495 413 499T340 503Q256 503 213 450T152 299L132 186Q127 158 127 138Q127 105 136 85T160 53T196 37T238 33Q276 33 314 49T407 95L476 490ZM535 752Q535 750 535 749T534 745L530 719Q523 673 499 651T438 629Q418 629 401 635T362 667L334 701Q324 713 314 720T292 727Q274 727 260 718T240 676L236 650Q234 642 232 638T223 634H202Q193 634 193 643Q193 645 193 646T194 650L198 676Q205 722 230 744T292 766Q312 766 328 760T365 729L394 694Q415 668 438 668Q456 668 469 677T488 719L492 745Q494 753 496 757T505 761H526Q535 761 535 752Z"  />
<glyph unicode="&#xE4;" horiz-adv-x="504" d="M524 511Q524 509 524 508T523 504L438 20Q436 12 430 6T416 0H408Q393 0 393 16Q393 17 393 18T394 20L400 53Q360 32 317 13T228 -6Q197 -6 171 2T125 29T94 74T83 138Q83 158 88 186L108 299Q120 364 139 410T187 485T255 528T347 542Q390 542 434 536T511 523Q524 520 524 511ZM476 490Q450 495 413 499T340 503Q256 503 213 450T152 299L132 186Q127 158 127 138Q127 105 136 85T160 53T196 37T238 33Q276 33 314 49T407 95L476 490ZM472 742L459 668Q457 660 451 655T436 649H430Q415 649 415 664V668L428 742Q430 750 436 755T450 761H456Q472 761 472 745V742ZM322 742L309 668Q307 660 301 655T286 649H280Q265 649 265 664V668L278 742Q280 750 286 755T300 761H306Q322 761 322 745V742Z"  />
<glyph unicode="&#xE5;" horiz-adv-x="504" d="M524 511Q524 509 524 508T523 504L438 20Q436 12 430 6T416 0H408Q393 0 393 16Q393 17 393 18T394 20L400 53Q360 32 317 13T228 -6Q197 -6 171 2T125 29T94 74T83 138Q83 158 88 186L108 299Q120 364 139 410T187 485T255 528T347 542Q390 542 434 536T511 523Q524 520 524 511ZM476 490Q450 495 413 499T340 503Q256 503 213 450T152 299L132 186Q127 158 127 138Q127 105 136 85T160 53T196 37T238 33Q276 33 314 49T407 95L476 490ZM466 698Q466 679 459 662T439 633T409 613T373 605Q354 605 337 612T308 632T288 662T280 698Q280 717 287 734T307 763T337 783T373 791Q392 791 409 784T438 764T458 734T466 698ZM431 698Q431 722 414 739T373 756Q349 756 333 739T316 698Q316 674 332 657T373 640Q397 640 414 657T431 698Z"  />
<glyph unicode="&#xE6;" horiz-adv-x="830" d="M835 368Q835 337 829 304L824 277Q822 269 816 264T801 258H463L454 204Q451 187 448 170T445 136Q445 117 450 99T472 67Q497 45 532 39T605 33Q638 33 678 37T756 50Q758 50 759 50T762 51Q775 51 775 40V38V37L773 30Q771 22 767 18T751 11Q713 3 673 -1T598 -6Q554 -6 514 2T444 35Q436 41 425 55T409 83Q397 69 382 54T344 25T287 3T205 -6Q181 -6 158 1T116 23T86 62T74 119Q74 127 74 136T77 155L80 168Q89 209 107 238T157 286T236 313T352 322H431L437 358Q443 391 443 415Q443 462 419 482T337 503Q312 503 294 503T259 501T227 498T193 494H192H189Q182 494 177 496T172 506Q172 507 172 507T173 509L174 515Q177 530 200 533Q216 535 231 536T262 539T298 541T343 542Q412 542 445 513T483 445Q513 494 561 518T670 542Q712 542 743 530T794 494T825 439T835 368ZM792 374Q792 437 763 470T665 503Q624 503 592 489T536 448T495 386T472 304L471 298H784L785 304Q788 324 790 341T792 374ZM345 282Q288 282 250 277T186 258T146 222T124 168L121 155Q119 145 119 136T118 119Q118 71 144 52T209 33Q297 33 345 73T410 204L424 282H345Z"  />
<glyph unicode="&#xE7;" horiz-adv-x="437" d="M484 515L483 508Q482 500 477 497T463 494H460H459Q390 503 342 503Q299 503 267 488T212 446T174 383T152 303L141 236Q138 216 136 198T134 163Q134 100 162 67T259 33Q307 33 379 42H380H383Q398 42 398 31V29V28L397 21Q395 13 391 9T375 3Q343 -1 310 -3T252 -6Q209 -6 179 6T129 41T100 96T91 166Q91 200 97 236L108 303Q117 357 135 401T183 476T253 525T349 542Q373 542 405 540T468 533Q484 530 484 520V517V515ZM268 -54Q268 -56 263 -63L144 -191Q136 -199 132 -203T119 -208H93Q85 -208 85 -202Q85 -197 91 -191L203 -63Q211 -54 215 -51T228 -48H258Q268 -48 268 -54Z"  />
<glyph unicode="&#xE8;" horiz-adv-x="511" d="M516 372Q516 340 510 304L505 277Q503 269 496 264T481 258H144L141 237Q139 219 137 203T135 172Q135 131 145 105T175 63T222 41T285 34Q318 34 358 38T437 50Q440 51 446 51Q458 51 458 43Q458 38 457 36L455 29Q452 18 448 16T432 11Q394 3 354 -1T279 -6Q238 -6 204 4T144 35T106 89T92 170Q92 185 93 202T97 237L108 303Q128 421 190 481T352 542Q395 542 426 530T477 495T506 441T516 372ZM473 374Q473 437 444 470T346 503Q304 503 273 489T218 449T178 386T153 303L152 298H465L466 304Q469 324 471 341T473 374ZM410 627Q410 618 400 618H382Q374 618 371 622T363 635L279 763Q276 767 276 770Q276 778 288 778H310Q318 778 322 775T331 763L408 635Q410 632 410 627Z"  />
<glyph unicode="&#xE9;" horiz-adv-x="511" d="M516 372Q516 340 510 304L505 277Q503 269 496 264T481 258H144L141 237Q139 219 137 203T135 172Q135 131 145 105T175 63T222 41T285 34Q318 34 358 38T437 50Q440 51 446 51Q458 51 458 43Q458 38 457 36L455 29Q452 18 448 16T432 11Q394 3 354 -1T279 -6Q238 -6 204 4T144 35T106 89T92 170Q92 185 93 202T97 237L108 303Q128 421 190 481T352 542Q395 542 426 530T477 495T506 441T516 372ZM473 374Q473 437 444 470T346 503Q304 503 273 489T218 449T178 386T153 303L152 298H465L466 304Q469 324 471 341T473 374ZM507 772Q507 768 502 763L383 635Q375 627 371 623T358 618H332Q324 618 324 624Q324 629 330 635L442 763Q450 772 454 775T467 778H497Q507 778 507 772Z"  />
<glyph unicode="&#xEA;" horiz-adv-x="511" d="M516 372Q516 340 510 304L505 277Q503 269 496 264T481 258H144L141 237Q139 219 137 203T135 172Q135 131 145 105T175 63T222 41T285 34Q318 34 358 38T437 50Q440 51 446 51Q458 51 458 43Q458 38 457 36L455 29Q452 18 448 16T432 11Q394 3 354 -1T279 -6Q238 -6 204 4T144 35T106 89T92 170Q92 185 93 202T97 237L108 303Q128 421 190 481T352 542Q395 542 426 530T477 495T506 441T516 372ZM473 374Q473 437 444 470T346 503Q304 503 273 489T218 449T178 386T153 303L152 298H465L466 304Q469 324 471 341T473 374ZM519 627Q519 618 509 618H490Q482 618 479 622T471 635L397 748L283 635Q275 627 271 623T258 618H233Q225 618 225 624Q225 629 231 635L354 763Q362 771 366 774T379 778H419Q427 778 431 775T440 763L517 635Q519 632 519 627Z"  />
<glyph unicode="&#xEB;" horiz-adv-x="511" d="M516 372Q516 340 510 304L505 277Q503 269 496 264T481 258H144L141 237Q139 219 137 203T135 172Q135 131 145 105T175 63T222 41T285 34Q318 34 358 38T437 50Q440 51 446 51Q458 51 458 43Q458 38 457 36L455 29Q452 18 448 16T432 11Q394 3 354 -1T279 -6Q238 -6 204 4T144 35T106 89T92 170Q92 185 93 202T97 237L108 303Q128 421 190 481T352 542Q395 542 426 530T477 495T506 441T516 372ZM473 374Q473 437 444 470T346 503Q304 503 273 489T218 449T178 386T153 303L152 298H465L466 304Q469 324 471 341T473 374ZM493 735L480 661Q478 653 472 648T457 642H451Q436 642 436 657V661L449 735Q451 743 457 748T471 754H477Q493 754 493 738V735ZM343 735L330 661Q328 653 322 648T307 642H301Q286 642 286 657V661L299 735Q301 743 307 748T321 754H327Q343 754 343 738V735Z"  />
<glyph unicode="&#xEC;" horiz-adv-x="204" d="M215 518L127 19Q125 11 119 6T105 0H99Q83 0 83 16V19L171 518Q173 526 178 531T191 537H202Q209 537 212 533T215 522V518ZM269 627Q269 618 259 618H241Q233 618 230 622T222 635L138 763Q135 767 135 770Q135 778 147 778H169Q177 778 181 775T190 763L267 635Q269 632 269 627Z"  />
<glyph unicode="&#xED;" horiz-adv-x="204" d="M215 518L127 19Q125 11 119 6T105 0H99Q83 0 83 16V19L171 518Q173 526 178 531T191 537H202Q209 537 212 533T215 522V518ZM334 772Q334 768 329 763L210 635Q202 627 198 623T185 618H159Q151 618 151 624Q151 629 157 635L269 763Q277 772 281 775T294 778H324Q334 778 334 772Z"  />
<glyph unicode="&#xEE;" horiz-adv-x="204" d="M215 518L127 19Q125 11 119 6T105 0H99Q83 0 83 16V19L171 518Q173 526 178 531T191 537H202Q209 537 212 533T215 522V518ZM360 627Q360 618 350 618H331Q323 618 320 622T312 635L238 748L124 635Q116 627 112 623T99 618H74Q66 618 66 624Q66 629 72 635L195 763Q203 771 207 774T220 778H260Q268 778 272 775T281 763L358 635Q360 632 360 627Z"  />
<glyph unicode="&#xEF;" horiz-adv-x="204" d="M215 518L127 19Q125 11 119 6T105 0H99Q83 0 83 16V19L171 518Q173 526 178 531T191 537H202Q209 537 212 533T215 522V518ZM330 735L317 661Q315 653 309 648T294 642H288Q273 642 273 657V661L286 735Q288 743 294 748T308 754H314Q330 754 330 738V735ZM180 735L167 661Q165 653 159 648T144 642H138Q123 642 123 657V661L136 735Q138 743 144 748T158 754H164Q180 754 180 738V735Z"  />
<glyph unicode="&#xF0;" horiz-adv-x="522" d="M541 456Q541 434 539 412T532 367L508 233Q487 115 428 55T260 -6Q173 -6 132 40T90 168Q90 198 96 233L108 303Q130 429 192 485T357 542Q407 542 441 526T497 481Q491 541 462 585T363 662L251 588Q242 582 237 582Q231 582 227 588L223 594Q221 598 221 600Q221 605 225 609T234 618L324 679Q302 687 276 695T221 709Q216 711 212 714T207 722Q207 723 209 729L213 737Q218 748 229 748Q234 748 237 747Q275 738 306 728T365 706L481 785Q486 789 494 789Q502 789 506 784L511 778Q514 775 514 772Q514 764 501 756L402 689Q480 647 510 587T541 456ZM482 369Q482 432 452 467T350 503Q262 503 215 450T152 303L140 233Q134 197 134 166Q134 102 165 68T267 33Q355 33 401 85T464 233L476 303Q482 339 482 369Z"  />
<glyph unicode="&#xF1;" horiz-adv-x="521" d="M518 399Q518 379 513 351L454 19Q452 11 446 6T432 0H425Q410 0 410 16V19L469 351Q471 363 472 374T473 396Q473 455 441 479T361 503Q323 503 280 492T195 462L117 19Q115 11 109 6T95 0H89Q73 0 73 16V19L161 517Q163 525 169 531T183 537H191Q198 537 201 533T205 522V517L202 501Q244 520 284 531T363 542Q394 542 422 534T472 509T505 465T518 399ZM557 752Q557 750 557 749T556 745L552 719Q545 673 521 651T460 629Q440 629 423 635T384 667L356 701Q346 713 336 720T314 727Q296 727 282 718T262 676L258 650Q256 642 254 638T245 634H224Q215 634 215 643Q215 645 215 646T216 650L220 676Q227 722 252 744T314 766Q334 766 350 760T387 729L416 694Q437 668 460 668Q478 668 491 677T510 719L514 745Q516 753 518 757T527 761H548Q557 761 557 752Z"  />
<glyph unicode="&#xF2;" horiz-adv-x="522" d="M526 369Q526 339 520 303L508 233Q488 118 428 56T260 -6Q175 -6 133 40T90 169Q90 198 96 233L108 303Q128 421 189 481T357 542Q443 542 484 496T526 369ZM483 372Q483 435 453 469T350 503Q265 503 217 448T152 303L140 233Q137 214 135 197T133 164Q133 101 164 67T267 33Q310 33 343 47T401 88T440 151T464 233L476 303Q479 322 481 339T483 372ZM420 627Q420 618 410 618H392Q384 618 381 622T373 635L289 763Q286 767 286 770Q286 778 298 778H320Q328 778 332 775T341 763L418 635Q420 632 420 627Z"  />
<glyph unicode="&#xF3;" horiz-adv-x="522" d="M526 369Q526 339 520 303L508 233Q488 118 428 56T260 -6Q175 -6 133 40T90 169Q90 198 96 233L108 303Q128 421 189 481T357 542Q443 542 484 496T526 369ZM483 372Q483 435 453 469T350 503Q265 503 217 448T152 303L140 233Q137 214 135 197T133 164Q133 101 164 67T267 33Q310 33 343 47T401 88T440 151T464 233L476 303Q479 322 481 339T483 372ZM493 772Q493 768 488 763L369 635Q361 627 357 623T344 618H318Q310 618 310 624Q310 629 316 635L428 763Q436 772 440 775T453 778H483Q493 778 493 772Z"  />
<glyph unicode="&#xF4;" horiz-adv-x="522" d="M526 369Q526 339 520 303L508 233Q488 118 428 56T260 -6Q175 -6 133 40T90 169Q90 198 96 233L108 303Q128 421 189 481T357 542Q443 542 484 496T526 369ZM483 372Q483 435 453 469T350 503Q265 503 217 448T152 303L140 233Q137 214 135 197T133 164Q133 101 164 67T267 33Q310 33 343 47T401 88T440 151T464 233L476 303Q479 322 481 339T483 372ZM518 627Q518 618 508 618H489Q481 618 478 622T470 635L396 748L282 635Q274 627 270 623T257 618H232Q224 618 224 624Q224 629 230 635L353 763Q361 771 365 774T378 778H418Q426 778 430 775T439 763L516 635Q518 632 518 627Z"  />
<glyph unicode="&#xF5;" horiz-adv-x="522" d="M526 369Q526 339 520 303L508 233Q488 118 428 56T260 -6Q175 -6 133 40T90 169Q90 198 96 233L108 303Q128 421 189 481T357 542Q443 542 484 496T526 369ZM483 372Q483 435 453 469T350 503Q265 503 217 448T152 303L140 233Q137 214 135 197T133 164Q133 101 164 67T267 33Q310 33 343 47T401 88T440 151T464 233L476 303Q479 322 481 339T483 372ZM555 752Q555 750 555 749T554 745L550 719Q543 673 519 651T458 629Q438 629 421 635T382 667L354 701Q344 713 334 720T312 727Q294 727 280 718T260 676L256 650Q254 642 252 638T243 634H222Q213 634 213 643Q213 645 213 646T214 650L218 676Q225 722 250 744T312 766Q332 766 348 760T385 729L414 694Q435 668 458 668Q476 668 489 677T508 719L512 745Q514 753 516 757T525 761H546Q555 761 555 752Z"  />
<glyph unicode="&#xF6;" horiz-adv-x="522" d="M526 369Q526 339 520 303L508 233Q488 118 428 56T260 -6Q175 -6 133 40T90 169Q90 198 96 233L108 303Q128 421 189 481T357 542Q443 542 484 496T526 369ZM483 372Q483 435 453 469T350 503Q265 503 217 448T152 303L140 233Q137 214 135 197T133 164Q133 101 164 67T267 33Q310 33 343 47T401 88T440 151T464 233L476 303Q479 322 481 339T483 372ZM488 735L475 661Q473 653 467 648T452 642H446Q431 642 431 657V661L444 735Q446 743 452 748T466 754H472Q488 754 488 738V735ZM338 735L325 661Q323 653 317 648T302 642H296Q281 642 281 657V661L294 735Q296 743 302 748T316 754H322Q338 754 338 738V735Z"  />
<glyph unicode="&#xF7;" horiz-adv-x="580" d="M398 511Q398 503 393 498T379 492H373Q365 492 360 497T354 511V585Q354 593 359 598T373 604H379Q387 604 392 599T398 585V511ZM579 386Q579 378 573 374T559 370H194Q186 370 180 374T174 386V396Q174 404 180 408T194 412H559Q567 412 573 408T579 396V386ZM398 197Q398 189 393 184T379 178H373Q365 178 360 183T354 197V271Q354 279 359 284T373 290H379Q387 290 392 285T398 271V197Z"  />
<glyph unicode="&#xF8;" horiz-adv-x="522" d="M599 562Q599 555 593 549L509 458Q526 419 526 369Q526 339 520 303L508 233Q488 118 428 56T260 -6Q173 -6 130 43L68 -25Q61 -32 58 -33T50 -35H25Q18 -35 18 -29Q18 -22 24 -16L109 76Q90 117 90 169Q90 198 96 233L108 303Q128 421 189 481T357 542Q445 542 488 491L549 558Q556 565 559 566T567 568H592Q599 568 599 562ZM460 460Q428 503 350 503Q265 503 217 448T152 303L140 233Q137 214 135 197T133 164Q133 133 140 111L460 460ZM483 372Q483 399 477 422L158 74Q190 33 267 33Q310 33 343 47T401 88T440 151T464 233L476 303Q479 322 481 339T483 372Z"  />
<glyph unicode="&#xF9;" horiz-adv-x="522" d="M544 518L455 19Q453 11 447 5T433 -1H425Q412 -1 412 15V18V19L414 35Q372 16 332 5T253 -7Q221 -7 193 1T144 26T111 71T99 137Q99 148 100 159T103 185L163 518Q165 526 171 531T185 537H192Q207 537 207 521V518L147 185Q145 172 144 160T143 137Q143 78 175 55T255 32Q293 32 336 44T421 74L500 518Q502 526 508 531T522 537H528Q544 537 544 521V518ZM434 627Q434 618 424 618H406Q398 618 395 622T387 635L303 763Q300 767 300 770Q300 778 312 778H334Q342 778 346 775T355 763L432 635Q434 632 434 627Z"  />
<glyph unicode="&#xFA;" horiz-adv-x="522" d="M544 518L455 19Q453 11 447 5T433 -1H425Q412 -1 412 15V18V19L414 35Q372 16 332 5T253 -7Q221 -7 193 1T144 26T111 71T99 137Q99 148 100 159T103 185L163 518Q165 526 171 531T185 537H192Q207 537 207 521V518L147 185Q145 172 144 160T143 137Q143 78 175 55T255 32Q293 32 336 44T421 74L500 518Q502 526 508 531T522 537H528Q544 537 544 521V518ZM507 772Q507 768 502 763L383 635Q375 627 371 623T358 618H332Q324 618 324 624Q324 629 330 635L442 763Q450 772 454 775T467 778H497Q507 778 507 772Z"  />
<glyph unicode="&#xFB;" horiz-adv-x="522" d="M544 518L455 19Q453 11 447 5T433 -1H425Q412 -1 412 15V18V19L414 35Q372 16 332 5T253 -7Q221 -7 193 1T144 26T111 71T99 137Q99 148 100 159T103 185L163 518Q165 526 171 531T185 537H192Q207 537 207 521V518L147 185Q145 172 144 160T143 137Q143 78 175 55T255 32Q293 32 336 44T421 74L500 518Q502 526 508 531T522 537H528Q544 537 544 521V518ZM521 627Q521 618 511 618H492Q484 618 481 622T473 635L399 748L285 635Q277 627 273 623T260 618H235Q227 618 227 624Q227 629 233 635L356 763Q364 771 368 774T381 778H421Q429 778 433 775T442 763L519 635Q521 632 521 627Z"  />
<glyph unicode="&#xFC;" horiz-adv-x="522" d="M544 518L455 19Q453 11 447 5T433 -1H425Q412 -1 412 15V18V19L414 35Q372 16 332 5T253 -7Q221 -7 193 1T144 26T111 71T99 137Q99 148 100 159T103 185L163 518Q165 526 171 531T185 537H192Q207 537 207 521V518L147 185Q145 172 144 160T143 137Q143 78 175 55T255 32Q293 32 336 44T421 74L500 518Q502 526 508 531T522 537H528Q544 537 544 521V518ZM488 735L475 661Q473 653 467 648T452 642H446Q431 642 431 657V661L444 735Q446 743 452 748T466 754H472Q488 754 488 738V735ZM338 735L325 661Q323 653 317 648T302 642H296Q281 642 281 657V661L294 735Q296 743 302 748T316 754H322Q338 754 338 738V735Z"  />
<glyph unicode="&#xFD;" horiz-adv-x="486" d="M539 525Q539 519 536 512L272 -56Q254 -94 238 -120T201 -163T153 -187T86 -195Q69 -195 54 -193T25 -189Q17 -187 12 -185T7 -177V-175L9 -164Q12 -150 28 -150H33Q44 -152 64 -154T96 -156Q123 -156 142 -151T177 -133T206 -100T233 -47L254 0H242Q219 0 208 10T191 56L136 513V516Q136 525 142 531T157 537H164Q169 537 172 533T177 523L231 63Q233 47 236 44T250 41H273L495 524Q497 529 503 533T516 537H527Q539 537 539 525ZM498 772Q498 768 493 763L374 635Q366 627 362 623T349 618H323Q315 618 315 624Q315 629 321 635L433 763Q441 772 445 775T458 778H488Q498 778 498 772Z"  />
<glyph unicode="&#xFE;" horiz-adv-x="504" d="M509 371Q509 354 508 336T502 299L490 233Q467 109 410 52T252 -6Q237 -6 220 -5T184 -2T148 4T116 10L83 -176Q81 -184 76 -189T63 -195H53Q46 -195 43 -191T39 -180V-176L198 724Q200 732 205 737T218 743H228Q235 743 238 739T242 728V724L207 529Q236 534 271 538T349 542Q391 542 421 530T470 495T499 441T509 371ZM466 378Q466 441 437 472T342 503Q324 503 304 502T265 498T229 493T200 488L123 48Q137 45 154 43T190 38T226 34T259 33Q339 33 384 84T446 233L458 299Q466 345 466 378Z"  />
<glyph unicode="&#xFF;" horiz-adv-x="486" d="M539 525Q539 519 536 512L272 -56Q254 -94 238 -120T201 -163T153 -187T86 -195Q69 -195 54 -193T25 -189Q17 -187 12 -185T7 -177V-175L9 -164Q12 -150 28 -150H33Q44 -152 64 -154T96 -156Q123 -156 142 -151T177 -133T206 -100T233 -47L254 0H242Q219 0 208 10T191 56L136 513V516Q136 525 142 531T157 537H164Q169 537 172 533T177 523L231 63Q233 47 236 44T250 41H273L495 524Q497 529 503 533T516 537H527Q539 537 539 525ZM477 735L464 661Q462 653 456 648T441 642H435Q420 642 420 657V661L433 735Q435 743 441 748T455 754H461Q477 754 477 738V735ZM327 735L314 661Q312 653 306 648T291 642H285Q270 642 270 657V661L283 735Q285 743 291 748T305 754H311Q327 754 327 738V735Z"  />
<glyph unicode="&#x131;" horiz-adv-x="204" d="M215 518L127 19Q125 11 119 6T105 0H99Q83 0 83 16V19L171 518Q173 526 178 531T191 537H202Q209 537 212 533T215 522V518Z"  />
<glyph unicode="&#x152;" horiz-adv-x="982" d="M1055 726L1054 718Q1053 710 1047 706T1032 702H736Q710 702 703 693T690 661L645 411H980Q987 411 992 408T997 398V395L995 385Q992 368 973 368H638L587 81Q586 76 586 68Q586 54 593 48T619 41H915Q931 41 931 28V25L930 17Q929 9 923 5T908 0H616Q584 0 563 15T542 62Q542 67 542 71T544 81L548 104Q511 56 450 25T315 -6Q268 -6 229 8T161 50T117 115T101 203Q101 217 102 230T106 259L145 483Q157 549 185 598T254 681T344 731T448 748Q521 748 569 717T641 638L646 661Q657 709 678 726T743 743H1039Q1055 743 1055 729V726ZM619 533Q619 575 605 607T567 662T511 695T440 706Q397 706 356 691T281 648T223 578T189 483L150 259Q148 245 147 232T145 205Q145 161 158 130T196 77T252 46T322 36Q371 36 414 54T490 103T545 174T575 259L614 483Q616 496 617 508T619 533Z"  />
<glyph unicode="&#x153;" horiz-adv-x="880" d="M885 372Q885 340 879 304L874 277Q872 269 865 264T850 258H513L510 237Q508 219 506 203T504 172Q504 131 514 105T544 63T591 41T654 34Q687 34 727 38T806 50Q809 51 815 51Q827 51 827 43Q827 38 826 36L824 29Q821 18 817 16T801 11Q763 3 723 -1T648 -6Q579 -6 532 21T468 110Q437 53 386 24T260 -6Q175 -6 133 40T90 169Q90 198 96 233L108 303Q128 421 189 481T357 542Q426 542 466 512T520 427Q552 483 602 512T721 542Q764 542 795 530T846 495T875 441T885 372ZM842 374Q842 437 813 470T715 503Q673 503 641 489T586 449T547 386T522 303L521 298H834L835 304Q838 324 840 340T842 374ZM483 372Q483 435 453 469T350 503Q265 503 217 448T152 303L140 233Q137 214 135 197T133 164Q133 101 164 67T267 33Q310 33 343 47T401 88T440 151T464 233L476 303Q479 322 481 339T483 372Z"  />
<glyph unicode="&#x160;" horiz-adv-x="530" d="M582 723L580 710Q579 697 562 697H559Q531 699 491 702T412 706Q376 706 339 702T271 683T221 641T201 568Q201 527 229 496T310 429L362 394Q403 366 431 342T477 296T503 252T511 208Q511 149 489 109T429 43T343 6T242 -6Q199 -6 160 -3T89 5Q83 6 79 9T74 19V21L76 34Q78 42 82 44T91 46H96Q134 42 170 39T249 35Q292 35 331 43T399 71T446 123T464 203Q464 224 457 241T435 277T396 314T335 358L284 393Q226 433 191 472T156 563Q156 619 179 655T240 711T325 740T421 748Q461 748 498 745T568 738Q582 736 582 726V724V723ZM570 949Q570 944 564 938L442 810Q434 802 429 799T416 795H376Q368 795 365 798T356 810L278 938Q276 941 276 946Q276 955 286 955H306Q314 955 317 951T325 938L399 825L513 938Q521 946 525 950T538 955H562Q570 955 570 949Z"  />
<glyph unicode="&#x161;" horiz-adv-x="440" d="M463 516L462 508Q461 499 458 497T447 494Q446 494 443 494T439 495Q430 496 415 497T380 499T341 502T301 503Q239 503 205 484T171 408Q171 382 192 360T252 315L312 278Q342 260 361 245T393 215T410 185T415 150Q415 106 399 76T355 28T291 2T216 -6Q200 -6 181 -5T142 -2T104 2T73 8Q67 10 61 12T54 22V24L56 35Q58 43 60 45T68 47Q73 47 77 46Q118 40 158 37T225 33Q291 33 331 59T371 150Q371 175 352 194T284 243L226 278Q184 304 156 334T127 406Q127 445 141 471T180 513T235 535T301 542Q355 542 387 539T445 533Q452 532 457 529T463 518V516ZM499 772Q499 767 493 761L371 633Q363 625 358 622T345 618H305Q297 618 294 621T285 633L207 761Q205 764 205 769Q205 778 215 778H235Q243 778 246 774T254 761L328 648L442 761Q450 769 454 773T467 778H491Q499 778 499 772Z"  />
<glyph unicode="&#x178;" horiz-adv-x="550" d="M634 732Q634 726 628 716L409 367Q392 339 378 327T351 309L300 19Q298 11 293 6T280 0H270Q263 0 260 4T256 15V19L307 309Q296 314 288 326T271 367L174 716Q173 719 173 725Q173 743 193 743H201Q206 743 209 740T215 731L310 381Q316 359 320 353T334 346Q343 346 349 352T370 381L589 731Q592 736 597 739T607 743H619Q634 743 634 732ZM530 897L517 823Q515 815 509 810T494 804H488Q473 804 473 819V823L486 897Q488 905 494 910T508 916H514Q530 916 530 900V897ZM380 897L367 823Q365 815 359 810T344 804H338Q323 804 323 819V823L336 897Q338 905 344 910T358 916H364Q380 916 380 900V897Z"  />
<glyph unicode="&#x17D;" horiz-adv-x="595" d="M628 700Q628 684 615 666L131 55Q127 51 127 47Q127 41 138 41H521Q529 41 534 37T540 27V26V25L538 15Q536 7 529 4T514 0H129Q106 0 94 14T82 45Q82 63 93 77L579 689Q583 693 583 697Q583 702 576 702H214Q207 702 201 706T195 717V718V719L197 729Q199 737 206 740T221 743H576Q602 743 615 730T628 700ZM606 948Q606 943 600 937L478 809Q470 801 465 798T452 794H412Q404 794 401 797T392 809L314 937Q312 940 312 945Q312 954 322 954H342Q350 954 353 950T361 937L435 824L549 937Q557 945 561 949T574 954H598Q606 954 606 948Z"  />
<glyph unicode="&#x17E;" horiz-adv-x="446" d="M481 496Q481 470 461 449L103 60Q100 56 98 53T94 48Q94 41 103 41H393Q399 41 405 39T411 29V26L409 16Q407 8 401 4T386 0H97Q77 0 65 13T53 44Q53 53 56 62T68 80L435 477Q440 482 440 488Q440 496 428 496H165Q159 496 154 498T148 508V511L150 521Q152 529 158 533T173 537H428Q456 537 468 525T481 496ZM515 772Q515 767 509 761L387 633Q379 625 374 622T361 618H321Q313 618 310 621T301 633L223 761Q221 764 221 769Q221 778 231 778H251Q259 778 262 774T270 761L344 648L458 761Q466 769 470 773T483 778H507Q515 778 515 772Z"  />
<glyph unicode="&#x192;" horiz-adv-x="580" d="M618 733Q618 730 617 729L614 722Q611 715 606 712T590 709H540Q505 709 485 692T454 630L404 412H553Q567 412 567 399V395L565 386Q563 378 557 374T542 369H393L306 -6Q298 -41 285 -63T255 -99T216 -118T167 -124Q144 -124 135 -124T116 -121Q99 -118 99 -109Q99 -108 99 -108T100 -105L102 -98Q106 -85 127 -85H177Q212 -85 231 -68T262 -6L349 369H220Q205 369 205 382V386L207 395Q209 403 216 407T231 412H360L410 630Q426 699 461 723T550 748Q573 748 581 748T600 745Q618 742 618 733Z"  />
<glyph unicode="&#x2C6;" horiz-adv-x="330" d="M422 627Q422 618 412 618H393Q385 618 382 622T374 635L300 748L186 635Q178 627 174 623T161 618H136Q128 618 128 624Q128 629 134 635L257 763Q265 771 269 774T282 778H322Q330 778 334 775T343 763L420 635Q422 632 422 627Z"  />
<glyph unicode="&#x2DC;" horiz-adv-x="491" d="M535 752Q535 750 535 749T534 745L530 719Q523 673 499 651T438 629Q418 629 401 635T362 667L334 701Q324 713 314 720T292 727Q274 727 260 718T240 676L236 650Q234 642 232 638T223 634H202Q193 634 193 643Q193 645 193 646T194 650L198 676Q205 722 230 744T292 766Q312 766 328 760T365 729L394 694Q415 668 438 668Q456 668 469 677T488 719L492 745Q494 753 496 757T505 761H526Q535 761 535 752Z"  />
<glyph unicode="&#x2013;" horiz-adv-x="360" d="M423 273Q420 257 401 257H49Q30 257 33 273L34 281Q36 289 42 294T56 299H408Q416 299 421 294T424 281L423 273H423Z"  />
<glyph unicode="&#x2014;" horiz-adv-x="703" d="M766 273Q763 257 744 257H49Q30 257 33 273L34 281Q36 289 42 294T56 299H751Q759 299 764 294T767 281L766 273H766Z"  />
<glyph unicode="&#x2018;" horiz-adv-x="170" d="M263 736Q263 730 260 723L189 551Q181 532 166 532H147Q137 532 137 540Q137 545 140 551L218 723Q226 742 241 742H256Q263 742 263 736Z"  />
<glyph unicode="&#x2019;" horiz-adv-x="170" d="M268 735Q268 730 265 724L186 552Q178 533 164 533H149Q141 533 141 540Q141 546 144 552L216 724Q224 743 239 743H258Q268 743 268 735Z"  />
<glyph unicode="&#x201A;" horiz-adv-x="170" d="M156 98Q156 94 153 87L75 -85Q67 -104 53 -104H38Q30 -104 30 -97Q30 -91 33 -85L104 87Q112 106 128 106H147Q156 106 156 98Z"  />
<glyph unicode="&#x201C;" horiz-adv-x="325" d="M401 736Q401 730 398 724L326 552Q318 533 303 533H284Q274 533 274 541Q274 546 277 552L356 724Q364 743 378 743H393Q401 743 401 736ZM276 736Q276 730 273 724L201 552Q193 533 178 533H159Q149 533 149 541Q149 546 152 552L231 724Q239 743 253 743H268Q276 743 276 736Z"  />
<glyph unicode="&#x201D;" horiz-adv-x="325" d="M401 735Q401 730 398 724L319 552Q311 533 297 533H282Q274 533 274 540Q274 546 277 552L349 724Q357 743 372 743H391Q401 743 401 735ZM276 735Q276 730 273 724L194 552Q186 533 172 533H157Q149 533 149 540Q149 546 152 552L224 724Q232 743 247 743H266Q276 743 276 735Z"  />
<glyph unicode="&#x201E;" horiz-adv-x="325" d="M269 98Q269 94 266 87L188 -85Q180 -104 166 -104H151Q143 -104 143 -97Q143 -91 146 -85L217 87Q225 106 241 106H260Q269 106 269 98ZM144 98Q144 94 141 87L63 -85Q55 -104 41 -104H26Q18 -104 18 -97Q18 -91 21 -85L92 87Q100 106 116 106H135Q144 106 144 98Z"  />
<glyph unicode="&#x2020;" horiz-adv-x="380" d="M432 522L430 512Q427 496 408 496H289L204 14Q202 6 198 0T185 -6H173Q160 -6 160 9V14L245 496H146Q130 496 130 509V512L132 522Q135 537 154 537H253L286 724Q288 732 293 737T306 743H317Q324 743 327 739T330 728V724L297 537H416Q432 537 432 525V522Z"  />
<glyph unicode="&#x2021;" horiz-adv-x="380" d="M432 522L430 512Q427 496 408 496H289L260 327H379Q395 327 395 315V312L393 302Q390 286 371 286H252L204 14Q202 6 198 0T185 -6H173Q160 -6 160 9V14L208 286H109Q93 286 93 299V302L95 312Q98 327 117 327H216L245 496H146Q130 496 130 509V512L132 522Q135 537 154 537H253L289 742Q291 750 296 755T309 761H320Q327 761 330 757T333 746V742L297 537H416Q432 537 432 525V522Z"  />
<glyph unicode="&#x2022;" horiz-adv-x="418" d="M435 367Q435 335 423 307T390 258T341 225T281 213Q249 213 221 225T172 258T139 307T127 367Q127 399 139 427T172 476T221 509T281 521Q313 521 341 509T390 476T423 427T435 367Z"  />
<glyph unicode="&#x2026;" horiz-adv-x="508" d="M461 87L448 13Q446 5 440 0T426 -6H420Q404 -6 404 10V13L417 87Q419 95 425 100T440 106H446Q461 106 461 90V87ZM291 87L278 13Q276 5 270 0T256 -6H250Q234 -6 234 10V13L247 87Q249 95 255 100T270 106H276Q291 106 291 90V87ZM121 87L108 13Q106 5 100 0T86 -6H80Q64 -6 64 10V13L77 87Q79 95 85 100T100 106H106Q121 106 121 90V87Z"  />
<glyph unicode="&#x2030;" horiz-adv-x="1087" d="M1076 297Q1076 286 1075 276T1072 253L1053 149Q1038 65 999 29T900 -7Q850 -7 823 22T796 105Q796 116 797 126T800 149L819 253Q834 337 874 372T973 408Q1021 408 1048 380T1076 297ZM422 637Q422 626 421 616T418 593L399 489Q384 405 345 369T246 333Q196 333 169 362T142 445Q142 456 143 466T146 489L165 593Q180 677 220 712T319 748Q367 748 394 720T422 637ZM747 739Q747 735 739 724L197 13Q189 2 185 -2T173 -6H142Q136 -6 136 -2Q136 2 144 13L686 724Q694 735 698 739T710 743H740Q747 743 747 739ZM746 297Q746 286 745 276T742 253L723 149Q708 65 669 29T570 -7Q520 -7 493 22T466 105Q466 116 467 126T470 149L489 253Q504 337 544 372T643 408Q691 408 718 380T746 297ZM1037 295Q1037 335 1019 352T966 370Q926 370 898 342T858 253L839 149Q837 137 836 127T835 107Q835 66 854 49T907 32Q949 32 976 60T1014 149L1033 253Q1035 265 1036 275T1037 295ZM383 635Q383 675 365 692T312 710Q272 710 244 682T204 593L185 489Q183 477 182 467T181 447Q181 406 200 389T253 372Q295 372 322 400T360 489L379 593Q381 605 382 615T383 635ZM707 295Q707 335 689 352T636 370Q596 370 568 342T528 253L509 149Q507 137 506 127T505 107Q505 66 524 49T577 32Q619 32 646 60T684 149L703 253Q705 265 706 275T707 295Z"  />
<glyph unicode="&#x2039;" horiz-adv-x="305" d="M332 447Q332 435 320 426L114 264L263 102Q268 95 268 92Q268 87 261 81L253 74Q246 69 242 69Q236 69 228 77L78 240Q69 250 69 262Q69 271 74 280T89 298L295 461Q305 468 312 468Q318 468 322 464L330 454Q332 452 332 447Z"  />
<glyph unicode="&#x203A;" horiz-adv-x="305" d="M331 276Q331 267 326 258T311 240L105 77Q100 74 97 72T88 70Q82 70 78 74L70 84Q68 86 68 91Q68 103 80 112L286 274L137 436Q132 441 132 446Q132 451 139 457L147 464Q154 469 158 469Q164 469 172 461L322 298Q331 287 331 276Z"  />
<glyph unicode="&#x20AC;" horiz-adv-x="580" d="M648 721L646 709Q644 701 641 699T631 697H627H625Q599 700 565 703T483 706Q441 706 401 696T326 659T263 586T219 468H548Q564 468 564 457Q564 454 563 452L559 443Q553 427 536 427H211L192 320H489Q496 320 501 317T506 309Q506 306 505 304L501 295Q495 279 478 279H185Q183 265 182 250T181 221Q181 168 196 133T236 76T295 45T365 36Q412 36 447 39T510 45H512H516Q527 45 527 36V33L525 21Q523 13 517 9T503 4Q493 3 482 1T455 -2T416 -5T358 -6Q317 -6 278 6T207 45T157 115T137 221Q137 235 138 249T141 279H97Q82 279 82 291V295L84 304Q87 320 106 320H148L167 427H123Q108 427 108 439V443L110 452Q112 460 118 464T133 468H175Q194 553 228 607T305 693T394 736T486 748Q520 748 543 747T583 745T611 741T632 738Q638 737 643 734T648 723V721Z"  />
<glyph unicode="&#x2122;" horiz-adv-x="766" d="M811 344Q811 334 801 334H783Q774 334 774 344V599Q774 632 771 653T754 687T715 704T646 709V344Q646 334 637 334H618Q608 334 608 344V709Q569 709 537 707T480 701V344Q480 334 471 334H453Q443 334 443 344V724Q443 732 451 734Q481 738 530 741T628 745Q676 745 711 741T768 721T800 677T811 599V344ZM404 721Q404 713 398 710T386 706H279V351Q279 345 275 340T262 334H256Q248 334 244 339T240 351V706H132Q126 706 121 709T115 721V726Q115 734 120 738T132 742H386Q393 742 398 738T404 726V721Z"  />

</font>
</defs>
</svg>
